<svg width="32" height="32" viewBox="0 0 32 32" fill="none" xmlns="http://www.w3.org/2000/svg">
<path d="M12.3673 13.2362C11.3515 13.2362 10.5496 14.025 10.5496 14.9873C10.5496 15.9497 11.3694 16.7385 12.3673 16.7385C13.383 16.7385 14.185 15.9497 14.185 14.9873C14.2028 14.025 13.383 13.2362 12.3673 13.2362ZM18.8717 13.2362C17.8559 13.2362 17.054 14.025 17.054 14.9873C17.054 15.9497 17.8738 16.7385 18.8717 16.7385C19.8875 16.7385 20.6894 15.9497 20.6894 14.9873C20.6894 14.025 19.8875 13.2362 18.8717 13.2362Z" fill="white" fill-opacity="0.5"/>
<path d="M27.5324 0H3.65316C1.63947 0 0 1.4514 0 3.24988V24.5792C0 26.3777 1.63947 27.8291 3.65316 27.8291H23.8614L22.9169 24.9105L25.1979 26.7879L27.3542 28.5548L31.1855 31.5522V3.24988C31.1855 1.4514 29.5461 0 27.5324 0ZM20.6537 20.6036C20.6537 20.6036 20.0122 19.9252 19.4776 19.3258C21.812 18.742 22.7031 17.4484 22.7031 17.4484C21.9724 17.8743 21.2774 18.1741 20.6537 18.3792C19.7627 18.7105 18.9073 18.9314 18.0698 19.0576C16.359 19.3415 14.7908 19.2626 13.4543 19.0418C12.4386 18.8682 11.5654 18.6158 10.8347 18.3634C10.4249 18.2214 9.97937 18.0479 9.53386 17.827C9.4804 17.7955 9.42694 17.7797 9.37348 17.7481C9.33784 17.7324 9.32002 17.7166 9.3022 17.7008C8.98143 17.5431 8.80323 17.4326 8.80323 17.4326C8.80323 17.4326 9.6586 18.6947 11.9218 19.2942C11.3872 19.8937 10.7278 20.6036 10.7278 20.6036C6.78953 20.4932 5.29263 18.2056 5.29263 18.2056C5.29263 13.1257 7.85875 9.00817 7.85875 9.00817C10.4249 7.30435 12.8663 7.35167 12.8663 7.35167L13.0445 7.54099C9.83681 8.36135 8.35772 9.60766 8.35772 9.60766C8.35772 9.60766 8.74977 9.41835 9.40912 9.15015C11.3159 8.40867 12.8306 8.20358 13.4543 8.15626C13.5612 8.14048 13.6503 8.1247 13.7573 8.1247C14.8443 7.9985 16.0739 7.96694 17.357 8.09315C19.0499 8.26669 20.8676 8.70842 22.7209 9.60766C22.7209 9.60766 21.3131 8.42445 18.2836 7.60409L18.5331 7.35167C18.5331 7.35167 20.9745 7.30435 23.5406 9.00817C23.5406 9.00817 26.1067 13.1257 26.1067 18.2056C26.1067 18.2056 24.592 20.4932 20.6537 20.6036Z" fill="white" fill-opacity="0.5"/>
</svg>
