<svg width="304" height="43" viewBox="0 0 304 43" fill="none" xmlns="http://www.w3.org/2000/svg">
<path d="M67.5784 17.4846V15.2006H77.4136V17.4846H73.8852V26.8369H71.1125V17.4846H67.5784ZM80.8672 26.8369V15.2006H88.9808V17.4846H83.6797V19.871H88.566V22.1608H83.6797V24.5528H88.9808V26.8369H80.8672ZM95.3392 26.8369H92.3165L96.2426 15.2006H99.9869L103.913 26.8369H100.89L98.1574 18.1324H98.0665L95.3392 26.8369ZM94.9358 22.2574H101.254V24.3937H94.9358V22.2574ZM107.246 15.2006H110.729L113.683 22.4051H113.82L116.774 15.2006H120.257V26.8369H117.519V19.6892H117.422L114.627 26.7631H112.877L110.081 19.6494H109.985V26.8369H107.246V15.2006ZM131.819 28.6892C130.592 28.6892 129.497 28.5225 128.535 28.1892C127.573 27.8596 126.758 27.3767 126.092 26.7403C125.425 26.1002 124.917 25.3237 124.569 24.4108C124.22 23.4979 124.044 22.4581 124.04 21.2915C124.044 20.1362 124.22 19.085 124.569 18.1381C124.921 17.1873 125.434 16.3691 126.109 15.6835C126.787 14.9941 127.616 14.4619 128.597 14.0869C129.582 13.7119 130.705 13.5244 131.967 13.5244C133.118 13.5244 134.152 13.6873 135.069 14.0131C135.985 14.3388 136.766 14.8085 137.41 15.4221C138.057 16.0358 138.552 16.7763 138.893 17.6437C139.234 18.5112 139.402 19.4903 139.398 20.5812C139.402 21.3274 139.33 21.996 139.182 22.5869C139.035 23.1778 138.809 23.6835 138.506 24.104C138.207 24.5244 137.828 24.8559 137.37 25.0983C136.915 25.3369 136.379 25.479 135.762 25.5244C135.262 25.5661 134.883 25.5358 134.626 25.4335C134.368 25.3312 134.186 25.1835 134.08 24.9903C133.974 24.7934 133.9 24.5737 133.859 24.3312H133.79C133.703 24.5623 133.512 24.7687 133.217 24.9506C132.925 25.1286 132.576 25.2649 132.171 25.3596C131.766 25.4506 131.349 25.4827 130.921 25.4562C130.489 25.4259 130.069 25.3237 129.66 25.1494C129.251 24.9714 128.881 24.7119 128.552 24.371C128.226 24.0263 127.967 23.5926 127.773 23.0699C127.584 22.5471 127.487 21.9316 127.484 21.2233C127.487 20.5149 127.586 19.907 127.779 19.3994C127.976 18.8881 128.232 18.4638 128.546 18.1267C128.864 17.7858 129.213 17.5225 129.592 17.3369C129.97 17.1475 130.342 17.0244 130.705 16.9676C131.145 16.8918 131.569 16.8862 131.978 16.9506C132.387 17.0149 132.732 17.1191 133.012 17.2631C133.296 17.407 133.472 17.5623 133.54 17.729H133.626V17.0926H135.592V22.7744C135.599 23.0206 135.648 23.1987 135.739 23.3085C135.83 23.4184 135.948 23.4733 136.092 23.4733C136.311 23.4733 136.504 23.3653 136.671 23.1494C136.842 22.9297 136.972 22.5945 137.063 22.1437C137.158 21.6892 137.203 21.1115 137.199 20.4108C137.203 19.6305 137.101 18.9638 136.893 18.4108C136.688 17.854 136.41 17.3937 136.057 17.0301C135.705 16.6665 135.304 16.3824 134.853 16.1778C134.406 15.9695 133.932 15.8237 133.432 15.7403C132.932 15.657 132.44 15.6153 131.955 15.6153C130.989 15.6153 130.154 15.7612 129.449 16.0528C128.745 16.3407 128.162 16.7403 127.699 17.2517C127.237 17.7631 126.893 18.3559 126.665 19.0301C126.442 19.7006 126.328 20.4202 126.324 21.1892C126.328 22.0642 126.453 22.8388 126.699 23.5131C126.946 24.1835 127.307 24.746 127.785 25.2006C128.262 25.6551 128.851 25.9998 129.552 26.2346C130.256 26.4657 131.063 26.5812 131.972 26.5812C132.415 26.5812 132.847 26.5528 133.268 26.496C133.688 26.4392 134.071 26.3672 134.415 26.2801C134.764 26.193 135.05 26.1021 135.273 26.0074L135.921 27.854C135.682 28.0017 135.353 28.1381 134.932 28.2631C134.516 28.3918 134.039 28.4941 133.501 28.5699C132.967 28.6494 132.406 28.6892 131.819 28.6892ZM131.682 23.3483C132.133 23.3483 132.489 23.2649 132.751 23.0983C133.012 22.9278 133.198 22.6778 133.307 22.3483C133.417 22.0187 133.467 21.6153 133.455 21.1381C133.455 20.7441 133.406 20.3956 133.307 20.0926C133.209 19.7896 133.031 19.5509 132.773 19.3767C132.516 19.2024 132.145 19.1153 131.66 19.1153C131.243 19.1153 130.889 19.1968 130.597 19.3596C130.309 19.5225 130.088 19.7555 129.932 20.0585C129.781 20.3615 129.705 20.7271 129.705 21.1551C129.705 21.5301 129.768 21.8862 129.893 22.2233C130.018 22.5566 130.224 22.8274 130.512 23.0358C130.8 23.2441 131.19 23.3483 131.682 23.3483ZM143.172 26.8369V15.2006H145.984V20.121H146.137L149.984 15.2006H153.297L149.172 20.3937L153.37 26.8369H150.007L147.109 22.2631L145.984 23.6835V26.8369H143.172ZM159.003 26.8369H155.98L159.906 15.2006H163.651L167.577 26.8369H164.554L161.821 18.1324H161.73L159.003 26.8369ZM158.6 22.2574H164.918V24.3937H158.6V22.2574ZM170.91 26.8369V15.2006H175.762C176.633 15.2006 177.362 15.3237 177.949 15.5699C178.54 15.8161 178.984 16.1608 179.279 16.604C179.578 17.0471 179.728 17.5604 179.728 18.1437C179.728 18.5869 179.635 18.9827 179.449 19.3312C179.264 19.6759 179.008 19.9619 178.682 20.1892C178.357 20.4165 177.98 20.5756 177.552 20.6665V20.7801C178.021 20.8028 178.455 20.9297 178.853 21.1608C179.254 21.3918 179.576 21.7138 179.819 22.1267C180.061 22.5358 180.182 23.0206 180.182 23.5812C180.182 24.2062 180.023 24.7649 179.705 25.2574C179.387 25.746 178.927 26.1324 178.324 26.4165C177.722 26.6968 176.991 26.8369 176.131 26.8369H170.91ZM173.722 24.5699H175.461C176.071 24.5699 176.52 24.4543 176.807 24.2233C177.099 23.9922 177.245 23.6702 177.245 23.2574C177.245 22.9581 177.175 22.7006 177.035 22.4846C176.895 22.2649 176.696 22.0964 176.438 21.979C176.18 21.8577 175.872 21.7971 175.512 21.7971H173.722V24.5699ZM173.722 19.9846H175.279C175.586 19.9846 175.859 19.9335 176.097 19.8312C176.336 19.729 176.521 19.5812 176.654 19.3881C176.79 19.1949 176.859 18.9619 176.859 18.6892C176.859 18.299 176.72 17.9922 176.444 17.7687C176.167 17.5452 175.794 17.4335 175.324 17.4335H173.722V19.9846ZM186.132 26.8369H183.109L187.035 15.2006H190.779L194.706 26.8369H191.683L188.95 18.1324H188.859L186.132 26.8369ZM185.728 22.2574H192.046V24.3937H185.728V22.2574ZM207.942 15.2006V26.8369H205.555L200.925 20.121H200.851V26.8369H198.038V15.2006H200.459L205.038 21.9051H205.135V15.2006H207.942ZM214.307 26.8369H211.285L215.211 15.2006H218.955L222.881 26.8369H219.858L217.126 18.1324H217.035L214.307 26.8369ZM213.904 22.2574H220.222V24.3937H213.904V22.2574ZM227.777 27.0017C227.367 27.0017 227.017 26.8577 226.725 26.5699C226.438 26.282 226.295 25.9335 226.299 25.5244C226.295 25.1229 226.438 24.7801 226.725 24.496C227.017 24.2081 227.367 24.0642 227.777 24.0642C228.163 24.0642 228.504 24.2081 228.799 24.496C229.099 24.7801 229.25 25.1229 229.254 25.5244C229.25 25.7971 229.178 26.0452 229.038 26.2687C228.902 26.4922 228.722 26.6702 228.498 26.8028C228.278 26.9354 228.038 27.0017 227.777 27.0017ZM243.732 19.4165H240.891C240.853 19.1248 240.775 18.8615 240.658 18.6267C240.54 18.3918 240.385 18.1911 240.192 18.0244C239.999 17.8577 239.769 17.7309 239.504 17.6437C239.243 17.5528 238.953 17.5074 238.635 17.5074C238.071 17.5074 237.584 17.6456 237.175 17.9221C236.769 18.1987 236.457 18.5983 236.237 19.121C236.021 19.6437 235.913 20.2763 235.913 21.0187C235.913 21.7915 236.023 22.4392 236.243 22.9619C236.466 23.4809 236.779 23.8729 237.18 24.1381C237.586 24.3994 238.065 24.5301 238.618 24.5301C238.929 24.5301 239.211 24.4903 239.464 24.4108C239.722 24.3312 239.947 24.2157 240.141 24.0642C240.338 23.9089 240.499 23.7214 240.624 23.5017C240.752 23.2782 240.841 23.0263 240.891 22.746L243.732 22.7631C243.682 23.2782 243.533 23.7858 243.283 24.2858C243.036 24.7858 242.697 25.2422 242.266 25.6551C241.834 26.0642 241.307 26.3899 240.686 26.6324C240.069 26.8748 239.36 26.996 238.561 26.996C237.508 26.996 236.565 26.7649 235.732 26.3028C234.902 25.8369 234.247 25.1589 233.766 24.2687C233.285 23.3786 233.044 22.2952 233.044 21.0187C233.044 19.7384 233.288 18.6532 233.777 17.7631C234.266 16.8729 234.927 16.1968 235.76 15.7346C236.593 15.2725 237.527 15.0415 238.561 15.0415C239.266 15.0415 239.917 15.1399 240.516 15.3369C241.114 15.5301 241.641 15.8142 242.095 16.1892C242.55 16.5604 242.919 17.0168 243.203 17.5585C243.487 18.1002 243.663 18.7195 243.732 19.4165ZM247.421 26.8369V15.2006H250.233V24.5528H255.074V26.8369H247.421ZM265.65 15.2006H268.457V22.7062C268.457 23.5737 268.25 24.3293 267.838 24.9733C267.425 25.6134 266.849 26.1096 266.11 26.4619C265.372 26.8104 264.514 26.9846 263.536 26.9846C262.548 26.9846 261.684 26.8104 260.946 26.4619C260.207 26.1096 259.633 25.6134 259.224 24.9733C258.815 24.3293 258.61 23.5737 258.61 22.7062V15.2006H261.423V22.4619C261.423 22.8634 261.51 23.2214 261.684 23.5358C261.862 23.8502 262.11 24.0964 262.428 24.2744C262.747 24.4524 263.116 24.5415 263.536 24.5415C263.957 24.5415 264.324 24.4524 264.639 24.2744C264.957 24.0964 265.205 23.8502 265.383 23.5358C265.561 23.2214 265.65 22.8634 265.65 22.4619V15.2006ZM272.3 26.8369V15.2006H277.152C278.023 15.2006 278.752 15.3237 279.339 15.5699C279.93 15.8161 280.374 16.1608 280.669 16.604C280.968 17.0471 281.118 17.5604 281.118 18.1437C281.118 18.5869 281.025 18.9827 280.839 19.3312C280.654 19.6759 280.398 19.9619 280.072 20.1892C279.747 20.4165 279.37 20.5756 278.942 20.6665V20.7801C279.411 20.8028 279.845 20.9297 280.243 21.1608C280.644 21.3918 280.966 21.7138 281.209 22.1267C281.451 22.5358 281.572 23.0206 281.572 23.5812C281.572 24.2062 281.413 24.7649 281.095 25.2574C280.777 25.746 280.317 26.1324 279.714 26.4165C279.112 26.6968 278.381 26.8369 277.521 26.8369H272.3ZM275.112 24.5699H276.851C277.461 24.5699 277.91 24.4543 278.197 24.2233C278.489 23.9922 278.635 23.6702 278.635 23.2574C278.635 22.9581 278.565 22.7006 278.425 22.4846C278.285 22.2649 278.086 22.0964 277.828 21.979C277.57 21.8577 277.262 21.7971 276.902 21.7971H275.112V24.5699ZM275.112 19.9846H276.669C276.976 19.9846 277.249 19.9335 277.487 19.8312C277.726 19.729 277.911 19.5812 278.044 19.3881C278.18 19.1949 278.249 18.9619 278.249 18.6892C278.249 18.299 278.11 17.9922 277.834 17.7687C277.557 17.5452 277.184 17.4335 276.714 17.4335H275.112V19.9846Z" fill="white"/>
<path d="M32.1217 37.9149C30.3074 37.9149 28.7543 37.2689 27.4623 35.9769C26.1703 34.6849 25.5243 33.1317 25.5243 31.3174V23.8952C25.5243 22.7407 25.9229 21.7648 26.7201 20.9676C27.5173 20.1704 28.4931 19.7718 29.6477 19.7718C30.8022 19.7718 31.7781 20.1704 32.5753 20.9676C33.3725 21.7648 33.7711 22.7407 33.7711 23.8952V31.3174H30.4724V23.8952C30.4724 23.6753 30.3899 23.4829 30.225 23.318C30.06 23.153 29.8676 23.0705 29.6477 23.0705C29.4278 23.0705 29.2353 23.153 29.0704 23.318C28.9055 23.4829 28.823 23.6753 28.823 23.8952V31.3174C28.823 32.2245 29.1457 33.0014 29.7912 33.648C30.4377 34.2934 31.2146 34.6161 32.1217 34.6161C33.0289 34.6161 33.8057 34.2934 34.4523 33.648C35.0978 33.0014 35.4205 32.2245 35.4205 31.3174V24.7199H38.7192V31.3174C38.7192 33.1317 38.0732 34.6849 36.7812 35.9769C35.4892 37.2689 33.936 37.9149 32.1217 37.9149ZM5.73184 31.3174C4.82469 31.3174 4.04839 30.9947 3.40293 30.3492C2.75638 29.7027 2.43311 28.9258 2.43311 28.0187V8.22623C2.43311 7.31908 2.75638 6.54222 3.40293 5.89567C4.04839 5.25022 4.82469 4.92749 5.73184 4.92749H32.1217C33.0289 4.92749 33.8057 5.25022 34.4523 5.89567C35.0978 6.54222 35.4205 7.31908 35.4205 8.22623V18.1224H29.6477C28.0533 18.1224 26.6926 18.686 25.5655 19.813C24.4384 20.9401 23.8749 22.3008 23.8749 23.8952V31.3174H5.73184ZM18.9268 19.7718L32.1217 11.525V8.22623L18.9268 16.4731L5.73184 8.22623V11.525L18.9268 19.7718Z" fill="white"/>
</svg>
