<svg width="33" height="32" viewBox="0 0 33 32" fill="none" xmlns="http://www.w3.org/2000/svg">
<path fill-rule="evenodd" clip-rule="evenodd" d="M16.2517 0C7.27836 0 0 7.24018 0 16.1664C0 23.3074 4.68606 29.3574 11.0671 31.5394C11.8647 31.6386 12.1638 31.1427 12.1638 30.746C12.1638 30.3493 12.1638 29.3574 12.1638 27.9689C7.67717 28.9607 6.68013 25.7869 6.68013 25.7869C5.98221 23.9025 4.88547 23.4066 4.88547 23.4066C3.38992 22.4148 4.98518 22.4148 4.98518 22.4148C6.58043 22.514 7.47776 24.1009 7.47776 24.1009C8.97332 26.5804 11.2665 25.8861 12.1638 25.4894C12.2635 24.3984 12.762 23.7042 13.1609 23.3074C9.57154 22.9107 5.7828 21.5222 5.7828 15.2738C5.7828 13.4886 6.38102 12.1 7.47776 10.9099C7.37806 10.6123 6.77984 8.92625 7.67717 6.74428C7.67717 6.74428 9.07302 6.34756 12.1638 8.43035C13.46 8.03362 14.8558 7.93444 16.2517 7.93444C17.6475 7.93444 19.0434 8.13281 20.3395 8.43035C23.4303 6.34756 24.8262 6.74428 24.8262 6.74428C25.7235 8.92625 25.1253 10.6123 25.0256 11.009C26.0226 12.1 26.7205 13.5877 26.7205 15.373C26.7205 21.6214 22.9318 22.9107 19.3425 23.3074C19.9407 23.8033 20.4392 24.7951 20.4392 26.2828C20.4392 28.4648 20.4392 30.1509 20.4392 30.746C20.4392 31.1427 20.7383 31.6386 21.536 31.5394C28.0167 29.3574 32.603 23.3074 32.603 16.1664C32.5033 7.24018 25.225 0 16.2517 0Z" fill="white" fill-opacity="0.5"/>
</svg>
