<svg width="36" height="35" viewBox="0 0 36 35" fill="none" xmlns="http://www.w3.org/2000/svg">
<path d="M2.46568 14.9166C12.0937 10.0268 18.5138 6.80309 21.7262 5.24557C30.8981 0.798525 32.8039 0.0260276 34.0461 0.000247297C34.3193 -0.005091 34.9302 0.0738376 35.3259 0.448126C35.66 0.764167 35.752 1.19109 35.796 1.49074C35.84 1.79038 35.8947 2.47297 35.8512 3.00633C35.3542 9.09399 33.2035 23.8671 32.1094 30.6854C31.6464 33.5705 30.7349 34.5378 29.8523 34.6325C27.9344 34.8382 26.478 33.155 24.6204 31.7355C21.7136 29.5144 20.0715 28.1317 17.2499 25.9642C13.9891 23.4594 16.103 22.0826 17.9613 19.8327C18.4476 19.2439 26.898 10.2839 27.0616 9.47112C27.0821 9.36946 27.101 8.99054 26.9079 8.79046C26.7148 8.59037 26.4298 8.6588 26.2241 8.71321C25.9326 8.79034 21.2889 12.3682 12.2932 19.4468C10.9751 20.5018 9.78126 21.0159 8.71159 20.989C7.53236 20.9593 5.264 20.2117 3.5777 19.5727C1.5094 18.789 -0.134453 18.3747 0.00868915 17.0436C0.0832465 16.3504 0.902243 15.6414 2.46568 14.9166Z" fill="white"/>
</svg>
