<svg width="305" height="71" viewBox="0 0 305 71" fill="none" xmlns="http://www.w3.org/2000/svg">
<path d="M304.533 12.9049C304.72 0.3368 287.281 0.395146 276.308 0.976841C208.779 1.72127 65.7039 3.34464 33.6375 3.88265C1.57111 4.42067 -1.53247 13.7463 0.924042 18.3419L13.3264 50.623C16.2023 57.9759 30.9787 61.042 38.0074 61.656L263.011 70.5086C281.3 70.8577 291.781 65.9022 294.736 63.3809C300.334 62.1008 303.6 29.1968 304.533 12.9049Z" fill="#FEF2EA"/>
<path d="M289.487 16.155C289.655 5.3824 273.941 5.43241 264.053 5.93101C203.203 6.56909 74.2785 7.96055 45.3835 8.42171C16.4885 8.88286 13.6918 16.8763 15.9054 20.8153L27.0811 48.4848C29.6726 54.7873 42.9876 57.4155 49.3211 57.9417L252.072 65.5297C268.551 65.8289 277.996 61.5814 280.659 59.4202C285.704 58.323 288.646 30.1196 289.487 16.155Z" fill="#BEC8FF"/>
<path d="M272.394 70.4126L281.129 57.2635C275.389 61.615 261.882 60.6534 257.157 60.8362C210.534 59.1353 110.898 57.7955 76.0727 56.8662C32.5416 55.7046 42.3067 51.3972 35.8841 45.629C30.746 41.0145 19.5307 26.6501 17.8656 18.2197L5.28271 26.3739L10.4206 39.3559C16.433 53.7653 12.4976 55.8044 35.8841 61.5263C35.8841 61.5263 266.889 71.7061 272.394 70.4126Z" fill="#D8DEFB"/>
<path d="M289.487 18.8089C289.655 9.15843 273.941 9.20323 264.053 9.64989C203.203 10.2215 74.2783 11.468 45.3833 11.8811C16.4883 12.2943 13.6917 19.455 15.9053 22.9838L27.081 47.771C29.6725 53.417 42.9874 55.7714 49.321 56.2428L252.072 63.0403C268.551 63.3084 277.996 59.5033 280.659 57.5673C285.703 56.5843 288.646 31.3188 289.487 18.8089Z" fill="url(#paint0_linear_154_441)"/>
<path d="M273.25 34.3101H286.145V36.9005H272.522L264.411 31.9189L273.25 34.3101Z" fill="#0E5210"/>
<path d="M272.449 37.2402L284.473 37.2079L284.308 38.1222L271.547 38.1459L264.411 31.9189L272.449 37.2402Z" fill="#FFF0C6"/>
<ellipse cx="5.85129" cy="1.86808" rx="5.85129" ry="1.86808" transform="matrix(-1 0 0 1 256.053 7.01123)" fill="white"/>
<path d="M147.385 15.7289C146.057 14.2359 142.192 10.9003 137.354 9.50195C137.378 10.7279 139.417 13.6897 147.385 15.7289Z" fill="#0E5210"/>
<path d="M147.385 15.7289C142.668 14.5019 137.902 9.96052 137.358 9.50195C137.182 11.3601 143.273 14.8139 147.385 15.7289Z" fill="#FFF4C1"/>
<path d="M106.211 44.7269C104.213 44.7269 102.53 43.8899 101.162 42.2159C99.7939 40.5419 99.1099 38.4899 99.1099 36.0599C99.1099 33.0899 99.9289 30.5879 101.567 28.5539C103.223 26.5199 105.248 25.5029 107.642 25.5029C108.578 25.5029 109.442 25.6019 110.234 25.7999C111.044 25.9799 111.62 26.1689 111.962 26.3669L112.448 26.6639L110.612 30.4169C110.198 30.0569 109.613 29.7239 108.857 29.4179C108.101 29.0939 107.417 28.9319 106.805 28.9319C105.563 28.9319 104.564 29.4449 103.808 30.4709C103.07 31.4969 102.701 32.9639 102.701 34.8719C102.701 36.7619 103.088 38.3189 103.862 39.5429C104.636 40.7489 105.689 41.3519 107.021 41.3519C107.885 41.3519 108.668 41.0819 109.37 40.5419C110.072 40.0019 110.567 39.2819 110.855 38.3819L113.096 39.6779C112.502 41.2619 111.593 42.5039 110.369 43.4039C109.145 44.2859 107.759 44.7269 106.211 44.7269ZM122.621 37.5989C122.621 36.3569 122.513 35.5289 122.297 35.1149C122.081 34.7009 121.577 34.4939 120.785 34.4939C119.993 34.4939 119.093 34.8089 118.085 35.4389V37.4099L118.382 43.7549L114.737 44.4299L115.061 37.8689L114.737 24.2069L118.436 23.5319L118.085 30.5249V33.6839C118.355 33.3239 118.661 32.9729 119.003 32.6309C119.345 32.2889 119.876 31.9019 120.596 31.4699C121.316 31.0379 122.081 30.8219 122.891 30.8219C123.719 30.8219 124.412 31.1459 124.97 31.7939C125.528 32.4239 125.807 33.2879 125.807 34.3859L125.645 37.4099L125.942 43.8899L122.297 44.5649L122.621 37.5989ZM131.623 44.4299C130.561 44.4299 129.688 44.0969 129.004 43.4309C128.338 42.7469 128.005 41.8379 128.005 40.7039C128.005 39.5519 128.527 38.5619 129.571 37.7339C130.615 36.8879 131.884 36.4649 133.378 36.4649H135.214V36.0059C135.214 35.1239 135.034 34.5209 134.674 34.1969C134.314 33.8729 133.639 33.7109 132.649 33.7109C132.235 33.7109 131.74 33.8009 131.164 33.9809C130.606 34.1429 129.976 34.4039 129.274 34.7639L128.491 32.6309C129.265 32.0909 130.201 31.6049 131.299 31.1729C132.415 30.7409 133.333 30.5249 134.053 30.5249C136.879 30.5249 138.292 31.8929 138.292 34.6289V39.9209C138.292 40.9289 138.607 42.0539 139.237 43.2959L136.375 44.5109C135.925 43.6469 135.592 42.8729 135.376 42.1889C134.386 43.6829 133.135 44.4299 131.623 44.4299ZM132.757 41.6759C133.477 41.6759 134.296 41.3069 135.214 40.5689V38.7599C134.26 38.5439 133.486 38.4359 132.892 38.4359C131.758 38.4359 131.191 38.9399 131.191 39.9479C131.191 40.4699 131.335 40.8929 131.623 41.2169C131.911 41.5229 132.289 41.6759 132.757 41.6759ZM141.282 31.3889L144.549 30.6869C144.711 32.0729 144.819 33.3869 144.873 34.6289C146.511 32.0909 148.05 30.8219 149.49 30.8219L149.193 35.0339C148.149 35.0339 147.321 35.1329 146.709 35.3309C146.115 35.5109 145.503 35.8799 144.873 36.4379V37.4099L145.17 43.7549L141.552 44.4299L141.876 37.8689C141.804 35.4569 141.606 33.2969 141.282 31.3889ZM152.256 31.3619V28.4189L155.901 27.7169L155.55 31.3619H158.817L158.52 33.5759H155.442L155.307 39.2189C155.307 40.0649 155.388 40.6319 155.55 40.9199C155.712 41.1899 156.009 41.3249 156.441 41.3249C156.873 41.3249 157.449 41.2259 158.169 41.0279L158.331 42.9449C157.143 43.9349 156.099 44.4299 155.199 44.4299C154.299 44.4299 153.561 44.1059 152.985 43.4579C152.409 42.7919 152.121 41.9279 152.121 40.8659L152.283 37.8419L152.256 33.5759H150.393L150.69 31.3619H152.256Z" fill="white"/>
<path d="M101.162 42.2159L99.4277 43.6331L101.162 42.2159ZM101.567 28.5539L99.8301 27.1399L99.8226 27.1492L101.567 28.5539ZM110.234 25.7999L109.691 27.9727L109.719 27.9798L109.748 27.9862L110.234 25.7999ZM111.962 26.3669L113.13 24.4559L113.107 24.442L113.084 24.4287L111.962 26.3669ZM112.448 26.6639L114.46 27.6481L115.356 25.8163L113.616 24.7529L112.448 26.6639ZM110.612 30.4169L109.142 32.107L111.342 34.0201L112.624 31.4011L110.612 30.4169ZM108.857 29.4179L107.975 31.4765L107.996 31.4854L108.017 31.4939L108.857 29.4179ZM103.808 30.4709L102.005 29.1424L101.997 29.1527L101.99 29.1631L103.808 30.4709ZM103.862 39.5429L101.969 40.7399L101.973 40.7463L101.977 40.7526L103.862 39.5429ZM110.855 38.3819L111.976 36.4432L109.569 35.0512L108.722 37.6993L110.855 38.3819ZM113.096 39.6779L115.193 40.4643L115.859 38.6886L114.217 37.7392L113.096 39.6779ZM110.369 43.4039L111.678 45.221L111.687 45.2147L111.696 45.2083L110.369 43.4039ZM106.211 42.4873C104.946 42.4873 103.879 42.001 102.896 40.7987L99.4277 43.6331C101.181 45.7789 103.48 46.9666 106.211 46.9666V42.4873ZM102.896 40.7987C101.896 39.5743 101.35 38.0413 101.35 36.0599H96.8703C96.8703 38.9385 97.6923 41.5095 99.4277 43.6331L102.896 40.7987ZM101.35 36.0599C101.35 33.527 102.037 31.5406 103.311 29.9587L99.8226 27.1492C97.8205 29.6353 96.8703 32.6529 96.8703 36.0599H101.35ZM103.304 29.968C104.581 28.3995 105.992 27.7426 107.642 27.7426V23.2633C104.504 23.2633 101.865 24.6404 99.8301 27.1399L103.304 29.968ZM107.642 27.7426C108.421 27.7426 109.1 27.825 109.691 27.9727L110.777 23.6272C109.784 23.3788 108.735 23.2633 107.642 23.2633V27.7426ZM109.748 27.9862C110.105 28.0656 110.377 28.1397 110.575 28.2047C110.785 28.2735 110.854 28.3135 110.84 28.3052L113.084 24.4287C112.426 24.0479 111.564 23.8011 110.72 23.6136L109.748 27.9862ZM110.794 28.278L111.28 28.575L113.616 24.7529L113.13 24.4559L110.794 28.278ZM110.436 25.6797L108.6 29.4327L112.624 31.4011L114.46 27.6481L110.436 25.6797ZM112.082 28.7269C111.413 28.1457 110.582 27.7001 109.697 27.3419L108.017 31.4939C108.644 31.7477 108.983 31.9681 109.142 32.107L112.082 28.7269ZM109.739 27.3594C108.795 26.9547 107.805 26.6923 106.805 26.6923V31.1716C107.029 31.1716 107.407 31.2332 107.975 31.4765L109.739 27.3594ZM106.805 26.6923C104.83 26.6923 103.17 27.5611 102.005 29.1424L105.611 31.7995C105.958 31.3287 106.296 31.1716 106.805 31.1716V26.6923ZM101.99 29.1631C100.87 30.7196 100.461 32.7203 100.461 34.8719H104.941C104.941 33.2076 105.27 32.2742 105.626 31.7787L101.99 29.1631ZM100.461 34.8719C100.461 37.0587 100.909 39.0638 101.969 40.7399L105.755 38.3459C105.267 37.5741 104.941 36.4651 104.941 34.8719H100.461ZM101.977 40.7526C103.126 42.5423 104.86 43.5916 107.021 43.5916V39.1123C106.518 39.1123 106.146 38.9556 105.747 38.3333L101.977 40.7526ZM107.021 43.5916C108.392 43.5916 109.653 43.1501 110.735 42.3171L108.004 38.7667C107.683 39.0137 107.378 39.1123 107.021 39.1123V43.5916ZM110.735 42.3171C111.823 41.4805 112.571 40.3677 112.988 39.0645L108.722 37.6993C108.563 38.1962 108.321 38.5234 108.004 38.7667L110.735 42.3171ZM109.734 40.3207L111.975 41.6167L114.217 37.7392L111.976 36.4432L109.734 40.3207ZM110.999 38.8915C110.54 40.1165 109.877 40.9857 109.042 41.5996L111.696 45.2083C113.309 44.0222 114.464 42.4074 115.193 40.4643L110.999 38.8915ZM109.06 41.5869C108.227 42.1866 107.302 42.4873 106.211 42.4873V46.9666C108.216 46.9666 110.062 46.3853 111.678 45.221L109.06 41.5869ZM122.621 37.5989L124.858 37.703L124.861 37.651V37.5989H122.621ZM122.297 35.1149L124.283 34.079V34.079L122.297 35.1149ZM118.085 35.4389L116.898 33.5397L115.845 34.1976V35.4389H118.085ZM118.085 37.4099H115.845V37.4623L115.848 37.5147L118.085 37.4099ZM118.382 43.7549L118.79 45.9571L120.711 45.6014L120.619 43.6502L118.382 43.7549ZM114.737 44.4299L112.5 44.3195L112.36 47.1477L115.145 46.6321L114.737 44.4299ZM115.061 37.8689L117.298 37.9794L117.302 37.8977L117.3 37.8158L115.061 37.8689ZM114.737 24.2069L114.335 22.0037L112.453 22.3472L112.498 24.26L114.737 24.2069ZM118.436 23.5319L120.673 23.6442L120.815 20.8213L118.034 21.3287L118.436 23.5319ZM118.085 30.5249L115.848 30.4127L115.845 30.4688V30.5249H118.085ZM118.085 33.6839H115.845V40.4028L119.877 35.0277L118.085 33.6839ZM119.003 32.6309L120.587 34.2146V34.2146L119.003 32.6309ZM120.596 31.4699L119.444 29.5495L120.596 31.4699ZM124.97 31.7939L123.273 33.2553L123.283 33.2672L123.293 33.2789L124.97 31.7939ZM125.807 34.3859L128.043 34.5057L128.047 34.4459V34.3859H125.807ZM125.645 37.4099L123.409 37.2901L123.403 37.4013L123.408 37.5125L125.645 37.4099ZM125.942 43.8899L126.35 46.0921L128.269 45.7368L128.179 43.7874L125.942 43.8899ZM122.297 44.5649L120.06 44.4609L119.929 47.2812L122.705 46.7671L122.297 44.5649ZM124.861 37.5989C124.861 36.9229 124.832 36.3009 124.761 35.7568C124.695 35.254 124.573 34.6347 124.283 34.079L120.311 36.1509C120.264 36.061 120.259 36.0203 120.272 36.0684C120.283 36.1107 120.301 36.196 120.319 36.3361C120.356 36.62 120.381 37.033 120.381 37.5989H124.861ZM124.283 34.079C123.463 32.5079 121.802 32.2543 120.785 32.2543V36.7336C121.01 36.7336 121.017 36.7665 120.906 36.7209C120.841 36.6942 120.735 36.64 120.618 36.5392C120.498 36.4353 120.391 36.3031 120.311 36.1509L124.283 34.079ZM120.785 32.2543C119.413 32.2543 118.096 32.7911 116.898 33.5397L119.272 37.3381C120.09 36.8267 120.573 36.7336 120.785 36.7336V32.2543ZM115.845 35.4389V37.4099H120.325V35.4389H115.845ZM115.848 37.5147L116.145 43.8597L120.619 43.6502L120.322 37.3052L115.848 37.5147ZM117.974 41.5527L114.329 42.2277L115.145 46.6321L118.79 45.9571L117.974 41.5527ZM116.974 44.5404L117.298 37.9794L112.824 37.7585L112.5 44.3195L116.974 44.5404ZM117.3 37.8158L116.976 24.1538L112.498 24.26L112.822 37.922L117.3 37.8158ZM115.139 26.4102L118.838 25.7352L118.034 21.3287L114.335 22.0037L115.139 26.4102ZM116.199 23.4197L115.848 30.4127L120.322 30.6372L120.673 23.6442L116.199 23.4197ZM115.845 30.5249V33.6839H120.325V30.5249H115.845ZM119.877 35.0277C120.079 34.7585 120.314 34.4872 120.587 34.2146L117.419 31.0473C117.008 31.4587 116.631 31.8893 116.293 32.3402L119.877 35.0277ZM120.587 34.2146C120.738 34.063 121.088 33.7863 121.748 33.3904L119.444 29.5495C118.664 30.0175 117.952 30.5148 117.419 31.0473L120.587 34.2146ZM121.748 33.3904C122.134 33.1592 122.502 33.0616 122.891 33.0616V28.5823C121.66 28.5823 120.498 28.9166 119.444 29.5495L121.748 33.3904ZM122.891 33.0616C123.043 33.0616 123.124 33.0829 123.273 33.2553L126.667 30.3325C125.7 29.209 124.395 28.5823 122.891 28.5823V33.0616ZM123.293 33.2789C123.39 33.3875 123.567 33.6646 123.567 34.3859H128.047C128.047 32.9112 127.666 31.4604 126.647 30.309L123.293 33.2789ZM123.571 34.2661L123.409 37.2901L127.881 37.5297L128.043 34.5057L123.571 34.2661ZM123.408 37.5125L123.705 43.9925L128.179 43.7874L127.882 37.3074L123.408 37.5125ZM125.534 41.6877L121.889 42.3627L122.705 46.7671L126.35 46.0921L125.534 41.6877ZM124.534 44.669L124.858 37.703L120.384 37.4949L120.06 44.4609L124.534 44.669ZM129.004 43.4309L127.399 44.9933L127.42 45.0147L127.441 45.0356L129.004 43.4309ZM129.571 37.7339L130.962 39.4887L130.971 39.4814L130.981 39.474L129.571 37.7339ZM135.214 36.4649V38.7046H137.453V36.4649H135.214ZM134.674 34.1969L133.175 35.8616L134.674 34.1969ZM131.164 33.9809L131.788 36.1318L131.81 36.1254L131.832 36.1186L131.164 33.9809ZM129.274 34.7639L127.171 35.5357L128.043 37.9118L130.296 36.7568L129.274 34.7639ZM128.491 32.6309L127.209 30.7941L125.793 31.782L126.388 33.4027L128.491 32.6309ZM131.299 31.1729L130.49 29.0843L130.479 29.0888L131.299 31.1729ZM139.237 43.2959L140.112 45.3575L142.318 44.4207L141.234 42.2828L139.237 43.2959ZM136.375 44.5109L134.388 45.5455L135.344 47.3814L137.25 46.5725L136.375 44.5109ZM135.376 42.1889L137.511 41.5145L136.099 37.0426L133.509 40.9518L135.376 42.1889ZM135.214 40.5689L136.617 42.3144L137.453 41.6421V40.5689H135.214ZM135.214 38.7599H137.453V36.9707L135.708 36.5756L135.214 38.7599ZM131.623 41.2169L129.949 42.7049L129.97 42.7287L129.992 42.7519L131.623 41.2169ZM131.623 42.1903C131.073 42.1903 130.783 42.0378 130.566 41.8263L127.441 45.0356C128.592 46.1561 130.048 46.6696 131.623 46.6696V42.1903ZM130.608 41.8685C130.424 41.6798 130.244 41.3715 130.244 40.7039H125.765C125.765 42.3043 126.251 43.8141 127.399 44.9933L130.608 41.8685ZM130.244 40.7039C130.244 40.3477 130.359 39.9668 130.962 39.4887L128.179 35.9792C126.694 37.1571 125.765 38.7561 125.765 40.7039H130.244ZM130.981 39.474C131.581 38.9876 132.336 38.7046 133.378 38.7046V34.2253C131.431 34.2253 129.648 34.7883 128.161 35.9939L130.981 39.474ZM133.378 38.7046H135.214V34.2253H133.378V38.7046ZM137.453 36.4649V36.0059H132.974V36.4649H137.453ZM137.453 36.0059C137.453 34.9701 137.271 33.5213 136.172 32.5322L133.175 35.8616C132.971 35.6774 132.926 35.51 132.933 35.5328C132.935 35.5421 132.946 35.5836 132.956 35.6662C132.966 35.7483 132.974 35.86 132.974 36.0059H137.453ZM136.172 32.5322C135.143 31.6066 133.703 31.4713 132.649 31.4713V35.9506C133.035 35.9506 133.264 35.9836 133.375 36.0102C133.497 36.0395 133.367 36.0341 133.175 35.8616L136.172 32.5322ZM132.649 31.4713C131.93 31.4713 131.198 31.6237 130.496 31.8432L131.832 36.1186C132.281 35.9782 132.539 35.9506 132.649 35.9506V31.4713ZM130.539 31.8301C129.805 32.0432 129.039 32.3673 128.252 32.7711L130.296 36.7568C130.912 36.4406 131.406 36.2427 131.788 36.1318L130.539 31.8301ZM131.376 33.9921L130.593 31.8591L126.388 33.4027L127.171 35.5357L131.376 33.9921ZM129.772 34.4677C130.372 34.0492 131.145 33.6401 132.119 33.2571L130.479 29.0888C129.256 29.5697 128.157 30.1327 127.209 30.7941L129.772 34.4677ZM132.107 33.2615C133.113 32.8721 133.733 32.7646 134.053 32.7646V28.2853C132.933 28.2853 131.716 28.6097 130.49 29.0843L132.107 33.2615ZM134.053 32.7646C135.138 32.7646 135.538 33.0281 135.674 33.16C135.797 33.2789 136.052 33.6249 136.052 34.6289H140.531C140.531 32.897 140.08 31.191 138.79 29.9419C137.513 28.7058 135.793 28.2853 134.053 28.2853V32.7646ZM136.052 34.6289V39.9209H140.531V34.6289H136.052ZM136.052 39.9209C136.052 41.3891 136.507 42.8663 137.239 44.3091L141.234 42.2828C140.706 41.2415 140.531 40.4687 140.531 39.9209H136.052ZM138.361 41.2344L135.499 42.4494L137.25 46.5725L140.112 45.3575L138.361 41.2344ZM138.361 43.4764C137.951 42.6899 137.677 42.0393 137.511 41.5145L133.24 42.8634C133.506 43.7066 133.898 44.604 134.388 45.5455L138.361 43.4764ZM133.509 40.9518C132.845 41.9537 132.236 42.1903 131.623 42.1903V46.6696C134.033 46.6696 135.926 45.4121 137.243 43.4261L133.509 40.9518ZM132.757 43.9156C134.223 43.9156 135.535 43.1841 136.617 42.3144L133.81 38.8234C133.456 39.1081 133.183 39.2705 132.991 39.3572C132.801 39.4428 132.731 39.4363 132.757 39.4363V43.9156ZM137.453 40.5689V38.7599H132.974V40.5689H137.453ZM135.708 36.5756C134.682 36.3432 133.724 36.1963 132.892 36.1963V40.6756C133.247 40.6756 133.837 40.7447 134.719 40.9443L135.708 36.5756ZM132.892 36.1963C132.04 36.1963 130.983 36.3798 130.128 37.14C129.222 37.9449 128.951 39.0259 128.951 39.9479H133.43C133.43 39.9003 133.438 39.9566 133.394 40.0728C133.345 40.2022 133.252 40.3564 133.104 40.4879C132.816 40.7441 132.609 40.6756 132.892 40.6756V36.1963ZM128.951 39.9479C128.951 40.9008 129.225 41.8908 129.949 42.7049L133.296 39.729C133.357 39.797 133.398 39.8727 133.419 39.9349C133.438 39.9912 133.43 40.0038 133.43 39.9479H128.951ZM129.992 42.7519C130.753 43.5612 131.749 43.9156 132.757 43.9156V39.4363C132.768 39.4363 132.848 39.4389 132.962 39.4852C133.082 39.5336 133.183 39.6071 133.253 39.682L129.992 42.7519ZM141.282 31.3889L140.811 29.1993L138.715 29.6498L139.074 31.7639L141.282 31.3889ZM144.549 30.6869L146.773 30.4269L146.487 27.9797L144.078 28.4973L144.549 30.6869ZM144.873 34.6289L142.635 34.7262L142.941 41.7527L146.755 35.8434L144.873 34.6289ZM149.49 30.8219L151.724 30.9795L151.893 28.5823H149.49V30.8219ZM149.193 35.0339V37.2736H151.28L151.427 35.1915L149.193 35.0339ZM146.709 35.3309L147.358 37.4743L147.378 37.4683L147.398 37.4618L146.709 35.3309ZM144.873 36.4379L143.388 34.7614L142.633 35.4298V36.4379H144.873ZM144.873 37.4099H142.633V37.4623L142.636 37.5147L144.873 37.4099ZM145.17 43.7549L145.581 45.9566L147.498 45.5988L147.407 43.6502L145.17 43.7549ZM141.552 44.4299L139.315 44.3195L139.175 47.1516L141.963 46.6316L141.552 44.4299ZM141.876 37.8689L144.113 37.9794L144.117 37.8908L144.114 37.8021L141.876 37.8689ZM141.752 33.5786L145.019 32.8766L144.078 28.4973L140.811 29.1993L141.752 33.5786ZM142.324 30.9469C142.481 32.2853 142.584 33.5447 142.635 34.7262L147.11 34.5316C147.054 33.2292 146.941 31.8606 146.773 30.4269L142.324 30.9469ZM146.755 35.8434C147.506 34.6792 148.155 33.9347 148.68 33.5016C149.202 33.0716 149.459 33.0616 149.49 33.0616V28.5823C148.081 28.5823 146.848 29.2067 145.831 30.0457C144.817 30.8817 143.878 32.0407 142.991 33.4145L146.755 35.8434ZM147.256 30.6644L146.959 34.8764L151.427 35.1915L151.724 30.9795L147.256 30.6644ZM149.193 32.7943C148.041 32.7943 146.949 32.8993 146.019 33.2L147.398 37.4618C147.693 37.3666 148.256 37.2736 149.193 37.2736V32.7943ZM146.059 33.1875C145.067 33.4882 144.178 34.0614 143.388 34.7614L146.358 38.1145C146.827 37.6985 147.162 37.5337 147.358 37.4743L146.059 33.1875ZM142.633 36.4379V37.4099H147.112V36.4379H142.633ZM142.636 37.5147L142.933 43.8597L147.407 43.6502L147.11 37.3052L142.636 37.5147ZM144.759 41.5533L141.141 42.2283L141.963 46.6316L145.581 45.9566L144.759 41.5533ZM143.789 44.5404L144.113 37.9794L139.639 37.7585L139.315 44.3195L143.789 44.5404ZM144.114 37.8021C144.04 35.3108 143.835 33.0451 143.49 31.014L139.074 31.7639C139.377 33.5488 139.568 35.603 139.637 37.9358L144.114 37.8021ZM152.256 31.3619V33.6016H154.495V31.3619H152.256ZM152.256 28.4189L151.832 26.2197L150.016 26.5695V28.4189H152.256ZM155.901 27.7169L158.13 27.9316L158.417 24.9515L155.477 25.5177L155.901 27.7169ZM155.55 31.3619L153.321 31.1473L153.084 33.6016H155.55V31.3619ZM158.817 31.3619L161.037 31.6597L161.377 29.1223H158.817V31.3619ZM158.52 33.5759V35.8156H160.479L160.74 33.8737L158.52 33.5759ZM155.442 33.5759V31.3363H153.255L153.203 33.5224L155.442 33.5759ZM155.307 39.2189L153.068 39.1654L153.067 39.1921V39.2189H155.307ZM155.55 40.9199L153.598 42.0179L153.613 42.0453L153.629 42.0722L155.55 40.9199ZM158.169 41.0279L160.401 40.8393L160.174 38.1539L157.575 38.8685L158.169 41.0279ZM158.331 42.9449L159.765 44.6655L160.661 43.9187L160.563 42.7563L158.331 42.9449ZM152.985 43.4579L151.291 44.923L151.301 44.9345L151.311 44.9459L152.985 43.4579ZM152.121 40.8659L149.884 40.7461L149.881 40.806V40.8659H152.121ZM152.283 37.8419L154.519 37.9617L154.523 37.8948L154.522 37.8278L152.283 37.8419ZM152.256 33.5759L154.495 33.5618L154.481 31.3363H152.256V33.5759ZM150.393 33.5759L148.173 33.2782L147.833 35.8156H150.393V33.5759ZM150.69 31.3619V29.1223H148.731L148.47 31.0642L150.69 31.3619ZM154.495 31.3619V28.4189H150.016V31.3619H154.495ZM152.679 30.6181L156.324 29.9161L155.477 25.5177L151.832 26.2197L152.679 30.6181ZM153.672 27.5023L153.321 31.1473L157.779 31.5766L158.13 27.9316L153.672 27.5023ZM155.55 33.6016H158.817V29.1223H155.55V33.6016ZM156.597 31.0642L156.3 33.2782L160.74 33.8737L161.037 31.6597L156.597 31.0642ZM158.52 31.3363H155.442V35.8156H158.52V31.3363ZM153.203 33.5224L153.068 39.1654L157.546 39.2725L157.681 33.6295L153.203 33.5224ZM153.067 39.2189C153.067 39.703 153.09 40.1703 153.15 40.5954C153.206 40.9822 153.316 41.517 153.598 42.0179L157.502 39.8219C157.571 39.9456 157.595 40.0309 157.598 40.0393C157.602 40.0525 157.595 40.0307 157.585 39.962C157.564 39.82 157.546 39.5809 157.546 39.2189H153.067ZM153.629 42.0722C154.34 43.2567 155.549 43.5646 156.441 43.5646V39.0853C156.446 39.0853 156.6 39.0845 156.821 39.1848C157.07 39.298 157.309 39.4985 157.47 39.7677L153.629 42.0722ZM156.441 43.5646C157.168 43.5646 157.968 43.406 158.763 43.1874L157.575 38.8685C156.93 39.0459 156.578 39.0853 156.441 39.0853V43.5646ZM155.937 41.2165L156.099 43.1335L160.563 42.7563L160.401 40.8393L155.937 41.2165ZM156.897 41.2244C155.849 42.0981 155.312 42.1903 155.199 42.1903V46.6696C156.885 46.6696 158.437 45.7717 159.765 44.6655L156.897 41.2244ZM155.199 42.1903C154.911 42.1903 154.792 42.1195 154.659 41.97L151.311 44.9459C152.33 46.0923 153.687 46.6696 155.199 46.6696V42.1903ZM154.679 41.9929C154.524 41.8137 154.36 41.5059 154.36 40.8659H149.881C149.881 42.35 150.294 43.7701 151.291 44.923L154.679 41.9929ZM154.357 40.9857L154.519 37.9617L150.046 37.7221L149.884 40.7461L154.357 40.9857ZM154.522 37.8278L154.495 33.5618L150.016 33.5901L150.043 37.8561L154.522 37.8278ZM152.256 31.3363H150.393V35.8156H152.256V31.3363ZM152.613 33.8737L152.91 31.6597L148.47 31.0642L148.173 33.2782L152.613 33.8737ZM150.69 33.6016H152.256V29.1223H150.69V33.6016Z" fill="#103D12"/>
<path d="M187.507 35.9219L189.403 37.8177C189.67 38.0851 190.01 38.2188 190.423 38.2188C190.837 38.2188 191.177 38.0851 191.444 37.8177L195.601 33.6615V34.5365C195.601 34.9497 195.741 35.2899 196.021 35.5573C196.3 35.8247 196.646 35.9583 197.059 35.9583C197.472 35.9583 197.818 35.8183 198.097 35.5383C198.377 35.2593 198.517 34.9132 198.517 34.5V30.125C198.517 29.7118 198.377 29.3652 198.097 29.0852C197.818 28.8062 197.472 28.6667 197.059 28.6667H192.647C192.234 28.6667 191.894 28.8062 191.627 29.0852C191.359 29.3652 191.226 29.7118 191.226 30.125C191.226 30.5382 191.366 30.8843 191.646 31.1633C191.925 31.4433 192.271 31.5833 192.684 31.5833H193.522L190.423 34.7188L188.528 32.8229C188.26 32.5313 187.92 32.3854 187.507 32.3854C187.094 32.3854 186.753 32.5313 186.486 32.8229L182.038 37.2708C181.746 37.5382 181.601 37.8785 181.601 38.2917C181.601 38.7049 181.746 39.0451 182.038 39.3125C182.305 39.6042 182.646 39.75 183.059 39.75C183.472 39.75 183.812 39.6042 184.08 39.3125L187.507 35.9219ZM179.559 47.625C178.757 47.625 178.07 47.3397 177.498 46.769C176.928 46.1973 176.642 45.5104 176.642 44.7083V24.2917C176.642 23.4896 176.928 22.8027 177.498 22.231C178.07 21.6603 178.757 21.375 179.559 21.375H199.976C200.778 21.375 201.465 21.6603 202.036 22.231C202.607 22.8027 202.892 23.4896 202.892 24.2917V44.7083C202.892 45.5104 202.607 46.1973 202.036 46.769C201.465 47.3397 200.778 47.625 199.976 47.625H179.559Z" fill="white"/>
<defs>
<linearGradient id="paint0_linear_154_441" x1="282.55" y1="9.50195" x2="65.9544" y2="83.5413" gradientUnits="userSpaceOnUse">
<stop stop-color="#4C6439"/>
<stop offset="1" stop-color="#7DAC3F"/>
</linearGradient>
</defs>
</svg>
