<svg width="305" height="71" viewBox="0 0 305 71" fill="none" xmlns="http://www.w3.org/2000/svg">
<path d="M304.533 12.7965C304.72 0.228401 287.281 0.286747 276.308 0.868442C208.779 1.61287 65.7039 3.23624 33.6375 3.77426C1.57111 4.31227 -1.53247 13.6379 0.924042 18.2335L13.3264 50.5146C16.2023 57.8675 30.9787 60.9336 38.0074 61.5476L263.011 70.4002C281.3 70.7493 291.781 65.7938 294.736 63.2725C300.334 61.9924 303.6 29.0884 304.533 12.7965Z" fill="#FEF2EA"/>
<path d="M289.487 16.0467C289.655 5.274 273.941 5.32401 264.053 5.82261C203.203 6.46069 74.2785 7.85215 45.3835 8.31331C16.4885 8.77447 13.6918 16.7679 15.9054 20.7069L27.0811 48.3764C29.6726 54.6789 42.9876 57.3071 49.3211 57.8333L252.072 65.4213C268.551 65.7205 277.996 61.473 280.659 59.3118C285.704 58.2146 288.646 30.0112 289.487 16.0467Z" fill="#BEC8FF"/>
<path d="M272.394 70.3042L281.129 57.1551C275.389 61.5066 261.882 60.545 257.157 60.7278C210.534 59.0269 110.898 57.6871 76.0727 56.7578C32.5416 55.5962 42.3067 51.2888 35.8841 45.5206C30.746 40.9061 19.5307 26.5417 17.8656 18.1113L5.28271 26.2655L10.4206 39.2475C16.433 53.6569 12.4976 55.696 35.8841 61.4179C35.8841 61.4179 266.889 71.5977 272.394 70.3042Z" fill="#D8DEFB"/>
<path d="M289.487 18.7005C289.655 9.05003 273.941 9.09483 264.053 9.54149C203.203 10.1131 74.2783 11.3596 45.3833 11.7727C16.4883 12.1859 13.6917 19.3466 15.9053 22.8754L27.081 47.6626C29.6725 53.3086 42.9874 55.663 49.321 56.1344L252.072 62.9319C268.551 63.2 277.996 59.3949 280.659 57.4589C285.703 56.4759 288.646 31.2104 289.487 18.7005Z" fill="url(#paint0_linear_154_428)"/>
<path d="M273.25 34.2017H286.145V36.7921H272.522L264.411 31.8105L273.25 34.2017Z" fill="#0E5210"/>
<path d="M272.449 37.1318L284.473 37.0995L284.308 38.0139L271.547 38.0375L264.411 31.8105L272.449 37.1318Z" fill="#FFF0C6"/>
<ellipse cx="5.85129" cy="1.86808" rx="5.85129" ry="1.86808" transform="matrix(-1 0 0 1 256.053 6.90283)" fill="white"/>
<path d="M147.385 15.6205C146.057 14.1275 142.192 10.7919 137.354 9.39355C137.378 10.6195 139.417 13.5813 147.385 15.6205Z" fill="#0E5210"/>
<path d="M147.385 15.6205C142.668 14.3935 137.902 9.85212 137.358 9.39355C137.182 11.2517 143.273 14.7056 147.385 15.6205Z" fill="#FFF4C1"/>
<path d="M98.0001 25.6915C99.7281 25.6915 101.105 26.1865 102.131 27.1765C103.157 28.1485 103.67 29.4895 103.67 31.1995C103.67 32.9095 103.022 34.3765 101.726 35.6005C100.43 36.8065 98.8461 37.4095 96.9741 37.4095H95.4351L95.7591 44.3215H92.1411L92.4651 37.7605L92.1411 25.6915H98.0001ZM97.0281 28.4185H95.7051L95.5161 34.7905H97.3521C98.2521 34.7905 98.9451 34.4935 99.4311 33.8995C99.9351 33.3055 100.187 32.4595 100.187 31.3615C100.187 29.3995 99.1341 28.4185 97.0281 28.4185ZM104.987 31.2805L108.254 30.5785C108.416 31.9645 108.524 33.2785 108.578 34.5205C110.216 31.9825 111.755 30.7135 113.195 30.7135L112.898 34.9255C111.854 34.9255 111.026 35.0245 110.414 35.2225C109.82 35.4025 109.208 35.7715 108.578 36.3295V37.3015L108.875 43.6465L105.257 44.3215L105.581 37.7605C105.509 35.3485 105.311 33.1885 104.987 31.2805ZM119.768 41.5675C120.29 41.5675 120.839 41.4325 121.415 41.1625C121.991 40.8925 122.441 40.6225 122.765 40.3525L123.251 39.9475L124.493 41.4595C124.313 41.7655 124.034 42.1165 123.656 42.5125C123.278 42.9085 122.891 43.2505 122.495 43.5385C122.117 43.8085 121.604 44.0605 120.956 44.2945C120.326 44.5105 119.669 44.6185 118.985 44.6185C117.527 44.6185 116.339 44.0695 115.421 42.9715C114.503 41.8555 114.044 40.4245 114.044 38.6785C114.044 36.4825 114.683 34.5565 115.961 32.9005C117.239 31.2445 118.733 30.4165 120.443 30.4165C121.757 30.4165 122.774 30.7855 123.494 31.5235C124.232 32.2615 124.601 33.2965 124.601 34.6285C124.601 35.4205 124.466 36.3205 124.196 37.3285L123.656 37.8955L116.906 38.5165C117.212 40.5505 118.166 41.5675 119.768 41.5675ZM119.768 33.1975C118.976 33.1975 118.31 33.5215 117.77 34.1695C117.23 34.7995 116.915 35.6095 116.825 36.5995L121.415 36.0325C121.469 35.6185 121.496 35.2765 121.496 35.0065C121.496 33.8005 120.92 33.1975 119.768 33.1975ZM131.035 41.8105C131.971 41.8105 132.439 41.3965 132.439 40.5685C132.439 40.2805 132.232 40.0105 131.818 39.7585C131.422 39.5065 130.927 39.2545 130.333 39.0025C129.757 38.7505 129.172 38.4715 128.578 38.1655C128.002 37.8415 127.507 37.4005 127.093 36.8425C126.697 36.2845 126.499 35.6455 126.499 34.9255C126.499 33.7195 127.03 32.6665 128.092 31.7665C129.154 30.8665 130.378 30.4165 131.764 30.4165C132.412 30.4165 133.042 30.4975 133.654 30.6595C134.284 30.8035 134.887 31.0375 135.463 31.3615L133.654 34.6555C133.528 34.5475 133.366 34.4125 133.168 34.2505C132.97 34.0885 132.592 33.8815 132.034 33.6295C131.494 33.3595 131.008 33.2245 130.576 33.2245C130.162 33.2245 129.838 33.3235 129.604 33.5215C129.388 33.7015 129.28 33.9625 129.28 34.3045C129.28 34.6285 129.586 34.9615 130.198 35.3035C130.828 35.6275 131.512 35.9335 132.25 36.2215C132.988 36.4915 133.663 36.9505 134.275 37.5985C134.905 38.2285 135.22 38.9845 135.22 39.8665C135.22 41.1265 134.698 42.2335 133.654 43.1875C132.628 44.1415 131.44 44.6185 130.09 44.6185C129.226 44.6185 128.416 44.4295 127.66 44.0515C126.922 43.6735 126.391 43.2955 126.067 42.9175L125.581 42.3505L127.714 39.8665C127.822 40.0105 127.975 40.1905 128.173 40.4065C128.371 40.6225 128.758 40.9105 129.334 41.2705C129.928 41.6305 130.495 41.8105 131.035 41.8105ZM140.284 44.3215C139.222 44.3215 138.349 43.9885 137.665 43.3225C136.999 42.6385 136.666 41.7295 136.666 40.5955C136.666 39.4435 137.188 38.4535 138.232 37.6255C139.276 36.7795 140.545 36.3565 142.039 36.3565H143.875V35.8975C143.875 35.0155 143.695 34.4125 143.335 34.0885C142.975 33.7645 142.3 33.6025 141.31 33.6025C140.896 33.6025 140.401 33.6925 139.825 33.8725C139.267 34.0345 138.637 34.2955 137.935 34.6555L137.152 32.5225C137.926 31.9825 138.862 31.4965 139.96 31.0645C141.076 30.6325 141.994 30.4165 142.714 30.4165C145.54 30.4165 146.953 31.7845 146.953 34.5205V39.8125C146.953 40.8205 147.268 41.9455 147.898 43.1875L145.036 44.4025C144.586 43.5385 144.253 42.7645 144.037 42.0805C143.047 43.5745 141.796 44.3215 140.284 44.3215ZM141.418 41.5675C142.138 41.5675 142.957 41.1985 143.875 40.4605V38.6515C142.921 38.4355 142.147 38.3275 141.553 38.3275C140.419 38.3275 139.852 38.8315 139.852 39.8395C139.852 40.3615 139.996 40.7845 140.284 41.1085C140.572 41.4145 140.95 41.5675 141.418 41.5675ZM153.939 23.4235L153.588 37.3015L153.885 43.6465L150.24 44.3215L150.564 37.7605L150.24 24.0985L153.939 23.4235ZM161.93 41.5675C162.452 41.5675 163.001 41.4325 163.577 41.1625C164.153 40.8925 164.603 40.6225 164.927 40.3525L165.413 39.9475L166.655 41.4595C166.475 41.7655 166.196 42.1165 165.818 42.5125C165.44 42.9085 165.053 43.2505 164.657 43.5385C164.279 43.8085 163.766 44.0605 163.118 44.2945C162.488 44.5105 161.831 44.6185 161.147 44.6185C159.689 44.6185 158.501 44.0695 157.583 42.9715C156.665 41.8555 156.206 40.4245 156.206 38.6785C156.206 36.4825 156.845 34.5565 158.123 32.9005C159.401 31.2445 160.895 30.4165 162.605 30.4165C163.919 30.4165 164.936 30.7855 165.656 31.5235C166.394 32.2615 166.763 33.2965 166.763 34.6285C166.763 35.4205 166.628 36.3205 166.358 37.3285L165.818 37.8955L159.068 38.5165C159.374 40.5505 160.328 41.5675 161.93 41.5675ZM161.93 33.1975C161.138 33.1975 160.472 33.5215 159.932 34.1695C159.392 34.7995 159.077 35.6095 158.987 36.5995L163.577 36.0325C163.631 35.6185 163.658 35.2765 163.658 35.0065C163.658 33.8005 163.082 33.1975 161.93 33.1975Z" fill="white"/>
<path d="M102.131 27.1765L100.576 28.7882L100.583 28.7953L100.591 28.8024L102.131 27.1765ZM101.726 35.6005L103.252 37.2401L103.258 37.2345L103.264 37.2288L101.726 35.6005ZM95.4351 37.4095V35.1699H93.088L93.1979 37.5144L95.4351 37.4095ZM95.7591 44.3215V46.5612H98.1062L97.9963 44.2167L95.7591 44.3215ZM92.1411 44.3215L89.9042 44.2111L89.7881 46.5612H92.1411V44.3215ZM92.4651 37.7605L94.702 37.871L94.7062 37.7857L94.7039 37.7004L92.4651 37.7605ZM92.1411 25.6915V23.4519H89.8405L89.9023 25.7516L92.1411 25.6915ZM95.7051 28.4185V26.1789H93.5309L93.4664 28.3521L95.7051 28.4185ZM95.5161 34.7905L93.2774 34.7241L93.209 37.0302H95.5161V34.7905ZM99.4311 33.8995L97.7233 32.4505L97.7104 32.4658L97.6977 32.4813L99.4311 33.8995ZM98.0001 27.9312C99.2784 27.9312 100.053 28.2834 100.576 28.7882L103.686 25.5649C102.157 24.0897 100.178 23.4519 98.0001 23.4519V27.9312ZM100.591 28.8024C101.079 29.2645 101.43 29.9655 101.43 31.1995H105.91C105.91 29.0136 105.236 27.0326 103.671 25.5507L100.591 28.8024ZM101.43 31.1995C101.43 32.2645 101.058 33.1512 100.188 33.9723L103.264 37.2288C104.986 35.6019 105.91 33.5546 105.91 31.1995H101.43ZM100.2 33.961C99.3443 34.7576 98.3157 35.1699 96.9741 35.1699V39.6492C99.3765 39.6492 101.516 38.8554 103.252 37.2401L100.2 33.961ZM96.9741 35.1699H95.4351V39.6492H96.9741V35.1699ZM93.1979 37.5144L93.5219 44.4264L97.9963 44.2167L97.6723 37.3047L93.1979 37.5144ZM95.7591 42.0819H92.1411V46.5612H95.7591V42.0819ZM94.378 44.432L94.702 37.871L90.2282 37.6501L89.9042 44.2111L94.378 44.432ZM94.7039 37.7004L94.3799 25.6314L89.9023 25.7516L90.2263 37.8206L94.7039 37.7004ZM92.1411 27.9312H98.0001V23.4519H92.1411V27.9312ZM97.0281 26.1789H95.7051V30.6582H97.0281V26.1789ZM93.4664 28.3521L93.2774 34.7241L97.7547 34.8569L97.9437 28.4849L93.4664 28.3521ZM95.5161 37.0302H97.3521V32.5509H95.5161V37.0302ZM97.3521 37.0302C98.7945 37.0302 100.177 36.5241 101.164 35.3178L97.6977 32.4813C97.6844 32.4975 97.6776 32.5025 97.6775 32.5026C97.6769 32.503 97.6762 32.5035 97.6749 32.5043C97.6735 32.505 97.6704 32.5068 97.6646 32.5092C97.6454 32.5175 97.5564 32.5509 97.3521 32.5509V37.0302ZM101.139 35.3485C102.103 34.2116 102.427 32.7754 102.427 31.3615H97.9474C97.9474 32.1436 97.7667 32.3995 97.7233 32.4505L101.139 35.3485ZM102.427 31.3615C102.427 29.9931 102.052 28.5665 100.924 27.5156C99.8258 26.4925 98.3884 26.1789 97.0281 26.1789V30.6582C97.7737 30.6582 97.9158 30.835 97.8707 30.793C97.7956 30.7231 97.9474 30.768 97.9474 31.3615H102.427ZM104.987 31.2805L104.517 29.0909L102.42 29.5414L102.779 31.6555L104.987 31.2805ZM108.254 30.5785L110.479 30.3185L110.193 27.8713L107.784 28.3889L108.254 30.5785ZM108.578 34.5205L106.341 34.6178L106.646 41.6443L110.46 35.735L108.578 34.5205ZM113.195 30.7135L115.429 30.8711L115.598 28.4739H113.195V30.7135ZM112.898 34.9255V37.1652H114.986L115.132 35.0831L112.898 34.9255ZM110.414 35.2225L111.064 37.3659L111.084 37.3599L111.104 37.3534L110.414 35.2225ZM108.578 36.3295L107.093 34.653L106.339 35.3214V36.3295H108.578ZM108.578 37.3015H106.339V37.3539L106.341 37.4063L108.578 37.3015ZM108.875 43.6465L109.286 45.8482L111.204 45.4904L111.113 43.5418L108.875 43.6465ZM105.257 44.3215L103.02 44.2111L102.881 47.0432L105.668 46.5232L105.257 44.3215ZM105.581 37.7605L107.818 37.871L107.823 37.7824L107.82 37.6937L105.581 37.7605ZM105.458 33.4702L108.725 32.7682L107.784 28.3889L104.517 29.0909L105.458 33.4702ZM106.03 30.8385C106.186 32.1769 106.289 33.4363 106.341 34.6178L110.816 34.4232C110.759 33.1208 110.646 31.7522 110.479 30.3185L106.03 30.8385ZM110.46 35.735C111.212 34.5708 111.861 33.8263 112.386 33.3932C112.907 32.9632 113.164 32.9532 113.195 32.9532V28.4739C111.787 28.4739 110.554 29.0984 109.536 29.9373C108.523 30.7733 107.583 31.9323 106.697 33.3061L110.46 35.735ZM110.961 30.556L110.664 34.768L115.132 35.0831L115.429 30.8711L110.961 30.556ZM112.898 32.6859C111.747 32.6859 110.655 32.7909 109.725 33.0916L111.104 37.3534C111.398 37.2582 111.962 37.1652 112.898 37.1652V32.6859ZM109.765 33.0792C108.773 33.3798 107.884 33.953 107.093 34.653L110.063 38.0061C110.533 37.5901 110.868 37.4253 111.064 37.3659L109.765 33.0792ZM106.339 36.3295V37.3015H110.818V36.3295H106.339ZM106.341 37.4063L106.638 43.7513L111.113 43.5418L110.816 37.1968L106.341 37.4063ZM108.465 41.4449L104.847 42.1199L105.668 46.5232L109.286 45.8482L108.465 41.4449ZM107.494 44.432L107.818 37.871L103.344 37.6501L103.02 44.2111L107.494 44.432ZM107.82 37.6937C107.746 35.2024 107.54 32.9367 107.195 30.9056L102.779 31.6555C103.082 33.4404 103.273 35.4946 103.343 37.8274L107.82 37.6937ZM121.415 41.1625L120.465 39.1346L121.415 41.1625ZM122.765 40.3525L121.332 38.632L121.332 38.632L122.765 40.3525ZM123.251 39.9475L124.982 38.526L123.55 36.7831L121.818 38.227L123.251 39.9475ZM124.493 41.4595L126.424 42.5951L127.217 41.2467L126.224 40.038L124.493 41.4595ZM122.495 43.5385L123.797 45.361L123.805 45.3554L123.813 45.3498L122.495 43.5385ZM120.956 44.2945L121.683 46.4131L121.7 46.4072L121.717 46.401L120.956 44.2945ZM115.421 42.9715L113.692 44.3943L113.697 44.4012L113.703 44.4081L115.421 42.9715ZM115.961 32.9005L117.734 34.2689V34.2689L115.961 32.9005ZM123.494 31.5235L121.891 33.0875L121.901 33.0974L121.911 33.1072L123.494 31.5235ZM124.196 37.3285L125.818 38.8731L126.212 38.4596L126.36 37.908L124.196 37.3285ZM123.656 37.8955L123.862 40.1257L124.699 40.0487L125.278 39.4401L123.656 37.8955ZM116.906 38.5165L116.701 36.2863L114.339 36.5037L114.692 38.8497L116.906 38.5165ZM117.77 34.1695L119.471 35.6271L119.481 35.6153L119.491 35.6033L117.77 34.1695ZM116.825 36.5995L114.595 36.3968L114.344 39.1628L117.1 38.8223L116.825 36.5995ZM121.415 36.0325L121.69 38.2553L123.412 38.0426L123.636 36.3222L121.415 36.0325ZM119.768 43.8072C120.683 43.8072 121.556 43.57 122.366 43.1904L120.465 39.1346C120.123 39.2951 119.898 39.3279 119.768 39.3279V43.8072ZM122.366 43.1904C123.037 42.8758 123.674 42.511 124.199 42.0731L121.332 38.632C121.209 38.7341 120.946 38.9092 120.465 39.1346L122.366 43.1904ZM124.199 42.0731L124.685 41.6681L121.818 38.227L121.332 38.632L124.199 42.0731ZM121.521 41.3691L122.763 42.8811L126.224 40.038L124.982 38.526L121.521 41.3691ZM122.563 40.324C122.504 40.4245 122.352 40.6353 122.036 40.9661L125.276 44.0589C125.717 43.5977 126.123 43.1066 126.424 42.5951L122.563 40.324ZM122.036 40.9661C121.74 41.2761 121.454 41.5269 121.178 41.7273L123.813 45.3498C124.329 44.9742 124.816 44.5409 125.276 44.0589L122.036 40.9661ZM121.194 41.7161C121.041 41.8248 120.735 41.9935 120.196 42.188L121.717 46.401C122.474 46.1276 123.193 45.7923 123.797 45.361L121.194 41.7161ZM120.23 42.176C119.84 42.3096 119.429 42.3789 118.985 42.3789V46.8582C119.91 46.8582 120.813 46.7114 121.683 46.4131L120.23 42.176ZM118.985 42.3789C118.176 42.3789 117.623 42.1131 117.14 41.535L113.703 44.4081C115.056 46.026 116.878 46.8582 118.985 46.8582V42.3789ZM117.151 41.5488C116.628 40.9125 116.284 40.0177 116.284 38.6785H111.805C111.805 40.8313 112.379 42.7986 113.692 44.3943L117.151 41.5488ZM116.284 38.6785C116.284 36.9512 116.775 35.5124 117.734 34.2689L114.188 31.5322C112.592 33.6006 111.805 36.0139 111.805 38.6785H116.284ZM117.734 34.2689C118.694 33.026 119.583 32.6562 120.443 32.6562V28.1769C117.884 28.1769 115.785 29.4631 114.188 31.5322L117.734 34.2689ZM120.443 32.6562C121.328 32.6562 121.701 32.8923 121.891 33.0875L125.097 29.9595C123.848 28.6788 122.186 28.1769 120.443 28.1769V32.6562ZM121.911 33.1072C122.121 33.3174 122.362 33.7184 122.362 34.6285H126.841C126.841 32.8747 126.344 31.2057 125.078 29.9399L121.911 33.1072ZM122.362 34.6285C122.362 35.1743 122.267 35.874 122.033 36.7491L126.36 37.908C126.665 36.7671 126.841 35.6668 126.841 34.6285H122.362ZM122.575 35.784L122.035 36.351L125.278 39.4401L125.818 38.8731L122.575 35.784ZM123.451 35.6653L116.701 36.2863L117.112 40.7467L123.862 40.1257L123.451 35.6653ZM114.692 38.8497C114.882 40.1138 115.315 41.3739 116.218 42.337C117.183 43.3656 118.45 43.8072 119.768 43.8072V39.3279C119.605 39.3279 119.533 39.3024 119.516 39.2959C119.507 39.292 119.502 39.2904 119.485 39.2725C119.434 39.2186 119.237 38.9533 119.121 38.1833L114.692 38.8497ZM119.768 30.9579C118.264 30.9579 116.984 31.6151 116.05 32.7358L119.491 35.6033C119.586 35.4892 119.644 35.4597 119.655 35.4545C119.661 35.4512 119.688 35.4372 119.768 35.4372V30.9579ZM116.07 32.712C115.171 33.7604 114.719 35.0374 114.595 36.3968L119.056 36.8023C119.112 36.1816 119.29 35.8386 119.471 35.6271L116.07 32.712ZM117.1 38.8223L121.69 38.2553L121.141 33.8098L116.551 34.3768L117.1 38.8223ZM123.636 36.3222C123.697 35.8579 123.736 35.4106 123.736 35.0065H119.257C119.257 35.1425 119.242 35.3791 119.195 35.7429L123.636 36.3222ZM123.736 35.0065C123.736 34.0833 123.517 32.9752 122.684 32.1028C121.832 31.2112 120.716 30.9579 119.768 30.9579V35.4372C119.867 35.4372 119.86 35.4508 119.787 35.4252C119.701 35.3953 119.569 35.3266 119.445 35.1968C119.188 34.9274 119.257 34.7238 119.257 35.0065H123.736ZM131.818 39.7585L130.616 41.648L130.635 41.66L130.654 41.6716L131.818 39.7585ZM130.333 39.0025L129.436 41.0544L129.447 41.0594L129.459 41.0643L130.333 39.0025ZM128.578 38.1655L127.48 40.1175L127.516 40.1377L127.553 40.1565L128.578 38.1655ZM127.093 36.8425L125.267 38.1387L125.28 38.158L125.295 38.177L127.093 36.8425ZM128.092 31.7665L126.644 30.0579L128.092 31.7665ZM133.654 30.6595L133.081 32.8246L133.118 32.8344L133.155 32.8429L133.654 30.6595ZM135.463 31.3615L137.426 32.4396L138.493 30.4964L136.561 29.4095L135.463 31.3615ZM133.654 34.6555L132.197 36.356L134.29 38.1503L135.617 35.7336L133.654 34.6555ZM132.034 33.6295L131.033 35.6327L131.072 35.6525L131.112 35.6707L132.034 33.6295ZM129.604 33.5215L131.038 35.2421L131.044 35.2367L131.051 35.2312L129.604 33.5215ZM130.198 35.3035L129.106 37.2586L129.139 37.2775L129.174 37.2952L130.198 35.3035ZM132.25 36.2215L131.436 38.3079L131.458 38.3166L131.481 38.3248L132.25 36.2215ZM134.275 37.5985L132.647 39.1363L132.669 39.1596L132.692 39.1822L134.275 37.5985ZM133.654 43.1875L132.143 41.5342L132.136 41.5408L132.129 41.5474L133.654 43.1875ZM127.66 44.0515L126.639 46.0449L126.649 46.0499L126.659 46.0547L127.66 44.0515ZM126.067 42.9175L124.367 44.3751L126.067 42.9175ZM125.581 42.3505L123.882 40.8915L122.63 42.3492L123.881 43.8081L125.581 42.3505ZM127.714 39.8665L129.506 38.5228L127.832 36.2912L126.015 38.4075L127.714 39.8665ZM128.173 40.4065L129.824 38.8932V38.8932L128.173 40.4065ZM129.334 41.2705L128.147 43.1697L128.16 43.1779L128.173 43.1859L129.334 41.2705ZM131.035 44.0502C131.785 44.0502 132.766 43.8902 133.572 43.1775C134.43 42.4185 134.679 41.4038 134.679 40.5685H130.2C130.2 40.5613 130.214 40.1676 130.604 39.8226C130.942 39.5239 131.221 39.5709 131.035 39.5709V44.0502ZM134.679 40.5685C134.679 39.0753 133.598 38.2197 132.983 37.8454L130.654 41.6716C130.717 41.7099 130.627 41.6695 130.507 41.5127C130.367 41.3302 130.2 41.0024 130.2 40.5685H134.679ZM133.021 37.869C132.49 37.5313 131.877 37.2245 131.208 36.9408L129.459 41.0643C129.978 41.2845 130.355 41.4818 130.616 41.648L133.021 37.869ZM131.231 36.9507C130.701 36.7188 130.158 36.4603 129.604 36.1746L127.553 40.1565C128.186 40.4828 128.814 40.7823 129.436 41.0544L131.231 36.9507ZM129.676 36.2135C129.389 36.0517 129.128 35.8265 128.892 35.5081L125.295 38.177C125.886 38.9746 126.616 39.6313 127.48 40.1175L129.676 36.2135ZM128.92 35.5464C128.807 35.3876 128.739 35.2068 128.739 34.9255H124.26C124.26 36.0842 124.587 37.1815 125.267 38.1387L128.92 35.5464ZM128.739 34.9255C128.739 34.483 128.894 34.0227 129.54 33.4751L126.644 30.0579C125.166 31.3104 124.26 32.9561 124.26 34.9255H128.739ZM129.54 33.4751C130.2 32.9163 130.911 32.6562 131.764 32.6562V28.1769C129.845 28.1769 128.109 28.8167 126.644 30.0579L129.54 33.4751ZM131.764 32.6562C132.223 32.6562 132.661 32.7133 133.081 32.8246L134.227 28.4945C133.424 28.2818 132.601 28.1769 131.764 28.1769V32.6562ZM133.155 32.8429C133.571 32.9378 133.972 33.0926 134.365 33.3135L136.561 29.4095C135.802 28.9825 134.998 28.6692 134.153 28.4762L133.155 32.8429ZM133.5 30.2834L131.691 33.5774L135.617 35.7336L137.426 32.4396L133.5 30.2834ZM135.112 32.9551C134.968 32.8317 134.791 32.6849 134.586 32.5172L131.75 35.9839C131.941 36.1402 132.089 36.2633 132.197 36.356L135.112 32.9551ZM134.586 32.5172C134.137 32.1496 133.514 31.8403 132.956 31.5884L131.112 35.6707C131.359 35.782 131.538 35.871 131.66 35.9382C131.798 36.0137 131.806 36.0294 131.75 35.9839L134.586 32.5172ZM133.036 31.6263C132.301 31.259 131.466 30.9849 130.576 30.9849V35.4642C130.55 35.4642 130.687 35.4601 131.033 35.6327L133.036 31.6263ZM130.576 30.9849C129.819 30.9849 128.918 31.1679 128.158 31.8118L131.051 35.2312C130.758 35.4791 130.506 35.4642 130.576 35.4642V30.9849ZM128.17 31.801C127.334 32.4982 127.041 33.4558 127.041 34.3045H131.52C131.52 34.367 131.51 34.5168 131.431 34.7086C131.347 34.9118 131.21 35.0986 131.038 35.2421L128.17 31.801ZM127.041 34.3045C127.041 35.2167 127.479 35.897 127.861 36.3127C128.238 36.7231 128.693 37.0281 129.106 37.2586L131.291 33.3485C131.091 33.237 131.088 33.2045 131.159 33.2819C131.235 33.3646 131.52 33.7163 131.52 34.3045H127.041ZM129.174 37.2952C129.88 37.6582 130.635 37.9952 131.436 38.3079L133.064 34.1351C132.39 33.8719 131.777 33.5969 131.223 33.3119L129.174 37.2952ZM131.481 38.3248C131.851 38.4603 132.241 38.7067 132.647 39.1363L135.903 36.0608C135.085 35.1943 134.125 34.5227 133.02 34.1182L131.481 38.3248ZM132.692 39.1822C132.906 39.397 132.981 39.5853 132.981 39.8665H137.46C137.46 38.3838 136.904 37.0601 135.859 36.0149L132.692 39.1822ZM132.981 39.8665C132.981 40.417 132.786 40.947 132.143 41.5342L135.165 44.8409C136.61 43.5201 137.46 41.8361 137.46 39.8665H132.981ZM132.129 41.5474C131.5 42.1321 130.851 42.3789 130.09 42.3789V46.8582C132.029 46.8582 133.756 46.1509 135.179 44.8277L132.129 41.5474ZM130.09 42.3789C129.566 42.3789 129.1 42.2673 128.662 42.0483L126.659 46.0547C127.733 46.5917 128.887 46.8582 130.09 46.8582V42.3789ZM128.681 42.0582C128.053 41.7363 127.817 41.5176 127.768 41.46L124.367 44.3751C124.965 45.0735 125.792 45.6108 126.639 46.0449L128.681 42.0582ZM127.768 41.46L127.282 40.893L123.881 43.8081L124.367 44.3751L127.768 41.46ZM127.28 43.8096L129.413 41.3256L126.015 38.4075L123.882 40.8915L127.28 43.8096ZM125.923 41.2103C126.093 41.4379 126.301 41.6788 126.522 41.9199L129.824 38.8932C129.649 38.7023 129.551 38.5832 129.506 38.5228L125.923 41.2103ZM126.522 41.9199C126.945 42.3809 127.565 42.8059 128.147 43.1697L130.521 39.3713C130.266 39.2116 130.079 39.0844 129.949 38.9878C129.806 38.8816 129.787 38.8521 129.824 38.8932L126.522 41.9199ZM128.173 43.1859C129.019 43.6983 129.984 44.0502 131.035 44.0502V39.5709C131.006 39.5709 130.837 39.5628 130.495 39.3552L128.173 43.1859ZM137.665 43.3225L136.061 44.8849L136.081 44.9063L136.103 44.9272L137.665 43.3225ZM138.232 37.6255L139.624 39.3803L139.633 39.373L139.642 39.3656L138.232 37.6255ZM143.875 36.3565V38.5962H146.115V36.3565H143.875ZM143.335 34.0885L141.837 35.7532L143.335 34.0885ZM139.825 33.8725L140.45 36.0234L140.471 36.017L140.493 36.0102L139.825 33.8725ZM137.935 34.6555L135.833 35.4273L136.705 37.8034L138.957 36.6484L137.935 34.6555ZM137.152 32.5225L135.871 30.6858L134.455 31.6736L135.05 33.2943L137.152 32.5225ZM139.96 31.0645L139.152 28.9759L139.14 28.9804L139.96 31.0645ZM147.898 43.1875L148.773 45.2491L150.98 44.3123L149.896 42.1744L147.898 43.1875ZM145.036 44.4025L143.05 45.4371L144.006 47.273L145.911 46.4641L145.036 44.4025ZM144.037 42.0805L146.173 41.4061L144.761 36.9342L142.17 40.8434L144.037 42.0805ZM143.875 40.4605L145.278 42.206L146.115 41.5337V40.4605H143.875ZM143.875 38.6515H146.115V36.8623L144.37 36.4672L143.875 38.6515ZM140.284 41.1085L138.61 42.5965L138.631 42.6203L138.653 42.6435L140.284 41.1085ZM140.284 42.0819C139.734 42.0819 139.445 41.9294 139.228 41.7179L136.103 44.9272C137.254 46.0477 138.71 46.5612 140.284 46.5612V42.0819ZM139.27 41.7601C139.086 41.5714 138.906 41.2631 138.906 40.5955H134.427C134.427 42.196 134.912 43.7057 136.061 44.8849L139.27 41.7601ZM138.906 40.5955C138.906 40.2393 139.021 39.8584 139.624 39.3803L136.84 35.8708C135.355 37.0487 134.427 38.6477 134.427 40.5955H138.906ZM139.642 39.3656C140.242 38.8792 140.998 38.5962 142.039 38.5962V34.1169C140.093 34.1169 138.31 34.6799 136.822 35.8855L139.642 39.3656ZM142.039 38.5962H143.875V34.1169H142.039V38.5962ZM146.115 36.3565V35.8975H141.636V36.3565H146.115ZM146.115 35.8975C146.115 34.8617 145.932 33.4129 144.833 32.4238L141.837 35.7532C141.632 35.569 141.587 35.4016 141.594 35.4244C141.597 35.4337 141.608 35.4752 141.618 35.5578C141.628 35.6399 141.636 35.7516 141.636 35.8975H146.115ZM144.833 32.4238C143.805 31.4982 142.365 31.3629 141.31 31.3629V35.8422C141.697 35.8422 141.925 35.8752 142.036 35.9018C142.158 35.9311 142.029 35.9257 141.837 35.7532L144.833 32.4238ZM141.31 31.3629C140.592 31.3629 139.86 31.5153 139.157 31.7348L140.493 36.0102C140.943 35.8698 141.201 35.8422 141.31 35.8422V31.3629ZM139.201 31.7217C138.467 31.9348 137.701 32.2589 136.913 32.6627L138.957 36.6484C139.574 36.3322 140.068 36.1343 140.45 36.0234L139.201 31.7217ZM140.038 33.8837L139.255 31.7507L135.05 33.2943L135.833 35.4273L140.038 33.8837ZM138.434 34.3593C139.034 33.9408 139.806 33.5317 140.78 33.1487L139.14 28.9804C137.918 29.4613 136.819 30.0243 135.871 30.6858L138.434 34.3593ZM140.769 33.1531C141.775 32.7637 142.394 32.6562 142.714 32.6562V28.1769C141.594 28.1769 140.378 28.5013 139.152 28.9759L140.769 33.1531ZM142.714 32.6562C143.8 32.6562 144.199 32.9197 144.336 33.0516C144.458 33.1705 144.714 33.5165 144.714 34.5205H149.193C149.193 32.7886 148.742 31.0826 147.451 29.8335C146.175 28.5974 144.455 28.1769 142.714 28.1769V32.6562ZM144.714 34.5205V39.8125H149.193V34.5205H144.714ZM144.714 39.8125C144.714 41.2807 145.169 42.7579 145.901 44.2007L149.896 42.1744C149.367 41.1331 149.193 40.3603 149.193 39.8125H144.714ZM147.023 41.126L144.161 42.341L145.911 46.4641L148.773 45.2491L147.023 41.126ZM147.023 43.368C146.613 42.5815 146.339 41.9309 146.173 41.4061L141.902 42.755C142.168 43.5982 142.559 44.4956 143.05 45.4371L147.023 43.368ZM142.17 40.8434C141.506 41.8453 140.897 42.0819 140.284 42.0819V46.5612C142.695 46.5612 144.588 45.3037 145.904 43.3177L142.17 40.8434ZM141.418 43.8072C142.884 43.8072 144.197 43.0757 145.278 42.206L142.472 38.715C142.118 38.9997 141.845 39.1621 141.652 39.2488C141.463 39.3344 141.393 39.3279 141.418 39.3279V43.8072ZM146.115 40.4605V38.6515H141.636V40.4605H146.115ZM144.37 36.4672C143.343 36.2348 142.386 36.0879 141.553 36.0879V40.5672C141.909 40.5672 142.499 40.6363 143.381 40.8359L144.37 36.4672ZM141.553 36.0879C140.702 36.0879 139.645 36.2714 138.79 37.0316C137.884 37.8365 137.613 38.9175 137.613 39.8395H142.092C142.092 39.7919 142.099 39.8482 142.056 39.9644C142.007 40.0938 141.913 40.248 141.765 40.3795C141.477 40.6357 141.271 40.5672 141.553 40.5672V36.0879ZM137.613 39.8395C137.613 40.7924 137.887 41.7824 138.61 42.5965L141.958 39.6206C142.019 39.6886 142.059 39.7643 142.08 39.8265C142.099 39.8828 142.092 39.8954 142.092 39.8395H137.613ZM138.653 42.6435C139.415 43.4528 140.41 43.8072 141.418 43.8072V39.3279C141.43 39.3279 141.51 39.3305 141.624 39.3768C141.744 39.4252 141.845 39.4987 141.915 39.5736L138.653 42.6435ZM153.939 23.4235L156.178 23.4802L156.248 20.7256L153.537 21.2203L153.939 23.4235ZM153.588 37.3015L151.35 37.2449L151.347 37.3256L151.351 37.4063L153.588 37.3015ZM153.885 43.6465L154.293 45.8487L156.214 45.493L156.123 43.5418L153.885 43.6465ZM150.24 44.3215L148.004 44.2111L147.864 47.0393L150.648 46.5237L150.24 44.3215ZM150.564 37.7605L152.801 37.871L152.805 37.7893L152.803 37.7074L150.564 37.7605ZM150.24 24.0985L149.838 21.8953L147.956 22.2388L148.001 24.1516L150.24 24.0985ZM151.701 23.3669L151.35 37.2449L155.827 37.3582L156.178 23.4802L151.701 23.3669ZM151.351 37.4063L151.648 43.7513L156.123 43.5418L155.826 37.1968L151.351 37.4063ZM153.478 41.4443L149.833 42.1193L150.648 46.5237L154.293 45.8487L153.478 41.4443ZM152.477 44.432L152.801 37.871L148.328 37.6501L148.004 44.2111L152.477 44.432ZM152.803 37.7074L152.479 24.0454L148.001 24.1516L148.325 37.8136L152.803 37.7074ZM150.642 26.3018L154.341 25.6268L153.537 21.2203L149.838 21.8953L150.642 26.3018ZM163.577 41.1625L162.626 39.1346L163.577 41.1625ZM164.927 40.3525L163.493 38.632V38.632L164.927 40.3525ZM165.413 39.9475L167.143 38.526L165.712 36.7831L163.979 38.227L165.413 39.9475ZM166.655 41.4595L168.585 42.5951L169.378 41.2467L168.385 40.038L166.655 41.4595ZM164.657 43.5385L165.958 45.361L165.966 45.3554L165.974 45.3498L164.657 43.5385ZM163.118 44.2945L163.844 46.4131L163.861 46.4072L163.878 46.401L163.118 44.2945ZM157.583 42.9715L155.853 44.3943L155.859 44.4012L155.864 44.4081L157.583 42.9715ZM158.123 32.9005L159.896 34.2689V34.2689L158.123 32.9005ZM165.656 31.5235L164.052 33.0875L164.062 33.0974L164.072 33.1072L165.656 31.5235ZM166.358 37.3285L167.979 38.8731L168.373 38.4596L168.521 37.908L166.358 37.3285ZM165.818 37.8955L166.023 40.1257L166.86 40.0487L167.439 39.4401L165.818 37.8955ZM159.068 38.5165L158.862 36.2863L156.5 36.5037L156.853 38.8497L159.068 38.5165ZM159.932 34.1695L161.632 35.6271L161.642 35.6153L161.652 35.6033L159.932 34.1695ZM158.987 36.5995L156.756 36.3968L156.505 39.1628L159.261 38.8223L158.987 36.5995ZM163.577 36.0325L163.851 38.2553L165.573 38.0426L165.797 36.3222L163.577 36.0325ZM161.93 43.8072C162.844 43.8072 163.717 43.57 164.527 43.1904L162.626 39.1346C162.284 39.2951 162.059 39.3279 161.93 39.3279V43.8072ZM164.527 43.1904C165.198 42.8758 165.835 42.511 166.36 42.0731L163.493 38.632C163.37 38.7341 163.107 38.9092 162.626 39.1346L164.527 43.1904ZM166.36 42.0731L166.846 41.6681L163.979 38.227L163.493 38.632L166.36 42.0731ZM163.682 41.3691L164.924 42.8811L168.385 40.038L167.143 38.526L163.682 41.3691ZM164.724 40.324C164.665 40.4245 164.513 40.6353 164.197 40.9661L167.438 44.0589C167.878 43.5977 168.284 43.1066 168.585 42.5951L164.724 40.324ZM164.197 40.9661C163.902 41.2761 163.615 41.5269 163.339 41.7273L165.974 45.3498C166.49 44.9742 166.978 44.5409 167.438 44.0589L164.197 40.9661ZM163.355 41.7161C163.203 41.8248 162.896 41.9935 162.357 42.188L163.878 46.401C164.635 46.1276 165.354 45.7923 165.958 45.361L163.355 41.7161ZM162.391 42.176C162.001 42.3096 161.59 42.3789 161.147 42.3789V46.8582C162.071 46.8582 162.974 46.7114 163.844 46.4131L162.391 42.176ZM161.147 42.3789C160.338 42.3789 159.784 42.1131 159.301 41.535L155.864 44.4081C157.217 46.026 159.039 46.8582 161.147 46.8582V42.3789ZM159.312 41.5488C158.789 40.9125 158.445 40.0177 158.445 38.6785H153.966C153.966 40.8313 154.54 42.7986 155.853 44.3943L159.312 41.5488ZM158.445 38.6785C158.445 36.9512 158.936 35.5124 159.896 34.2689L156.35 31.5322C154.753 33.6006 153.966 36.0139 153.966 38.6785H158.445ZM159.896 34.2689C160.855 33.026 161.744 32.6562 162.605 32.6562V28.1769C160.045 28.1769 157.946 29.4631 156.35 31.5322L159.896 34.2689ZM162.605 32.6562C163.489 32.6562 163.862 32.8923 164.052 33.0875L167.259 29.9595C166.009 28.6788 164.348 28.1769 162.605 28.1769V32.6562ZM164.072 33.1072C164.282 33.3174 164.523 33.7184 164.523 34.6285H169.002C169.002 32.8747 168.505 31.2057 167.239 29.9399L164.072 33.1072ZM164.523 34.6285C164.523 35.1743 164.429 35.874 164.194 36.7491L168.521 37.908C168.827 36.7671 169.002 35.6668 169.002 34.6285H164.523ZM164.736 35.784L164.196 36.351L167.439 39.4401L167.979 38.8731L164.736 35.784ZM165.612 35.6653L158.862 36.2863L159.273 40.7467L166.023 40.1257L165.612 35.6653ZM156.853 38.8497C157.043 40.1138 157.476 41.3739 158.379 42.337C159.344 43.3656 160.611 43.8072 161.93 43.8072V39.3279C161.767 39.3279 161.694 39.3024 161.678 39.2959C161.668 39.292 161.663 39.2904 161.646 39.2725C161.595 39.2186 161.398 38.9533 161.282 38.1833L156.853 38.8497ZM161.93 30.9579C160.425 30.9579 159.145 31.6151 158.211 32.7358L161.652 35.6033C161.747 35.4892 161.805 35.4597 161.816 35.4545C161.823 35.4512 161.849 35.4372 161.93 35.4372V30.9579ZM158.231 32.712C157.332 33.7604 156.88 35.0374 156.756 36.3968L161.217 36.8023C161.273 36.1816 161.451 35.8386 161.632 35.6271L158.231 32.712ZM159.261 38.8223L163.851 38.2553L163.302 33.8098L158.712 34.3768L159.261 38.8223ZM165.797 36.3222C165.858 35.8579 165.897 35.4106 165.897 35.0065H161.418C161.418 35.1425 161.403 35.3791 161.356 35.7429L165.797 36.3222ZM165.897 35.0065C165.897 34.0833 165.678 32.9752 164.845 32.1028C163.993 31.2112 162.878 30.9579 161.93 30.9579V35.4372C162.028 35.4372 162.021 35.4508 161.948 35.4252C161.862 35.3953 161.73 35.3266 161.606 35.1968C161.349 34.9274 161.418 34.7238 161.418 35.0065H165.897Z" fill="#103D12"/>
<path d="M185.017 28.6666H198.142V25.7499C198.142 24.5346 197.717 23.5017 196.866 22.651C196.015 21.8003 194.982 21.3749 193.767 21.3749C192.552 21.3749 191.519 21.8003 190.668 22.651C189.818 23.5017 189.392 24.5346 189.392 25.7499H186.476C186.476 23.7326 187.187 22.0127 188.609 20.5903C190.03 19.1689 191.75 18.4583 193.767 18.4583C195.785 18.4583 197.504 19.1689 198.927 20.5903C200.348 22.0127 201.059 23.7326 201.059 25.7499V28.6666H202.517C203.319 28.6666 204.006 28.9519 204.578 29.5226C205.149 30.0943 205.434 30.7812 205.434 31.5833V46.1666C205.434 46.9687 205.149 47.6555 204.578 48.2272C204.006 48.7979 203.319 49.0833 202.517 49.0833H185.017C184.215 49.0833 183.529 48.7979 182.958 48.2272C182.386 47.6555 182.101 46.9687 182.101 46.1666V31.5833C182.101 30.7812 182.386 30.0943 182.958 29.5226C183.529 28.9519 184.215 28.6666 185.017 28.6666ZM193.767 41.7916C194.569 41.7916 195.256 41.5062 195.828 40.9355C196.399 40.3639 196.684 39.677 196.684 38.8749C196.684 38.0728 196.399 37.386 195.828 36.8143C195.256 36.2436 194.569 35.9583 193.767 35.9583C192.965 35.9583 192.279 36.2436 191.708 36.8143C191.136 37.386 190.851 38.0728 190.851 38.8749C190.851 39.677 191.136 40.3639 191.708 40.9355C192.279 41.5062 192.965 41.7916 193.767 41.7916Z" fill="white"/>
<defs>
<linearGradient id="paint0_linear_154_428" x1="282.55" y1="9.39355" x2="65.9544" y2="83.4329" gradientUnits="userSpaceOnUse">
<stop stop-color="#4C6439"/>
<stop offset="1" stop-color="#7DAC3F"/>
</linearGradient>
</defs>
</svg>
