<svg width="305" height="71" viewBox="0 0 305 71" fill="none" xmlns="http://www.w3.org/2000/svg">
<path d="M0.00148564 12.9049C-0.185141 0.3368 17.2539 0.395146 28.2269 0.976841C95.756 1.72127 238.831 3.34464 270.897 3.88265C302.963 4.42067 306.067 13.7463 303.611 18.3419L291.208 50.623C288.332 57.9759 273.556 61.042 266.527 61.656L41.5232 70.5086C23.235 70.8577 12.7535 65.9022 9.79876 63.3809C4.20033 62.1008 0.934563 29.1968 0.00148564 12.9049Z" fill="#FEF2EA"/>
<path d="M15.0474 16.155C14.8792 5.3824 30.5935 5.43241 40.4813 5.93101C101.332 6.56909 230.256 7.96055 259.151 8.42171C288.046 8.88286 290.843 16.8763 288.629 20.8153L277.453 48.4848C274.862 54.7873 261.547 57.4155 255.213 57.9417L52.4625 65.5297C35.9831 65.8289 26.5382 61.5814 23.8757 59.4202C18.8309 58.323 15.8882 30.1196 15.0474 16.155Z" fill="#BEC8FF"/>
<path d="M32.1402 70.4126L23.4052 57.2635C29.1456 61.615 42.6523 60.6534 47.3771 60.8362C94.0005 59.1353 193.637 57.7955 228.462 56.8662C271.993 55.7046 262.228 51.3972 268.65 45.629C273.789 41.0145 285.004 26.6501 286.669 18.2197L299.252 26.3739L294.114 39.3559C288.102 53.7653 292.037 55.8044 268.65 61.5263C268.65 61.5263 37.6454 71.7061 32.1402 70.4126Z" fill="#D8DEFB"/>
<path d="M15.0474 18.8089C14.8792 9.15843 30.5935 9.20323 40.4813 9.64989C101.332 10.2215 230.256 11.468 259.151 11.8811C288.046 12.2943 290.843 19.455 288.629 22.9838L277.453 47.771C274.862 53.417 261.547 55.7714 255.213 56.2428L52.4626 63.0403C35.9831 63.3084 26.5382 59.5033 23.8757 57.5673C18.8309 56.5843 15.8882 31.3188 15.0474 18.8089Z" fill="url(#paint0_linear_154_401)"/>
<path d="M31.2846 34.3101H18.3901V36.9005H32.0125L40.1235 31.9189L31.2846 34.3101Z" fill="#0E5210"/>
<path d="M32.0855 37.2402L20.0618 37.2079L20.2264 38.1222L32.9879 38.1459L40.1234 31.9189L32.0855 37.2402Z" fill="#FFF0C6"/>
<ellipse cx="54.333" cy="8.87931" rx="5.85129" ry="1.86808" fill="white"/>
<path d="M157.149 15.7289C158.477 14.2359 162.343 10.9003 167.18 9.50195C167.156 10.7279 165.117 13.6897 157.149 15.7289Z" fill="#0E5210"/>
<path d="M157.149 15.7289C161.866 14.5019 166.633 9.96052 167.176 9.50195C167.353 11.3601 161.261 14.8139 157.149 15.7289Z" fill="#FFF4C1"/>
<path d="M79.3353 41.0549H79.6323L80.9013 36.4109L83.4933 25.6379L86.5443 26.1239L83.6013 36.8429L81.7923 44.2139L76.8513 44.5649L75.3123 37.3559L74.3943 33.7919L73.5843 36.8429L71.7753 44.2139L66.9153 44.5649L65.2953 37.3559L62.4873 26.3129L65.9973 25.6379L68.1843 36.0599L69.3993 41.0549H69.6963L71.1273 36.0599L73.0983 28.7699L72.4773 26.3129L76.0413 25.6379L78.1743 36.0599L79.3353 41.0549ZM96.448 37.5989C96.448 36.3569 96.34 35.5289 96.124 35.1149C95.908 34.7009 95.404 34.4939 94.612 34.4939C93.82 34.4939 92.92 34.8089 91.912 35.4389V37.4099L92.209 43.7549L88.564 44.4299L88.888 37.8689L88.564 24.2069L92.263 23.5319L91.912 30.5249V33.6839C92.182 33.3239 92.488 32.9729 92.83 32.6309C93.172 32.2889 93.703 31.9019 94.423 31.4699C95.143 31.0379 95.908 30.8219 96.718 30.8219C97.546 30.8219 98.239 31.1459 98.797 31.7939C99.355 32.4239 99.634 33.2879 99.634 34.3859L99.472 37.4099L99.769 43.8899L96.124 44.5649L96.448 37.5989ZM106.368 30.6869L106.044 37.4099L106.341 43.7549L102.723 44.4299L103.047 37.8689L102.75 31.3619L106.368 30.6869ZM102.561 26.7449C102.561 26.1329 102.795 25.5929 103.263 25.1249C103.731 24.6389 104.271 24.3959 104.883 24.3959C105.495 24.3959 105.963 24.5669 106.287 24.9089C106.611 25.2329 106.773 25.7279 106.773 26.3939C106.773 27.0599 106.539 27.6359 106.071 28.1219C105.621 28.5899 105.09 28.8239 104.478 28.8239C103.884 28.8239 103.416 28.6259 103.074 28.2299C102.732 27.8339 102.561 27.3389 102.561 26.7449ZM110.394 31.3619V28.4189L114.039 27.7169L113.688 31.3619H116.955L116.658 33.5759H113.58L113.445 39.2189C113.445 40.0649 113.526 40.6319 113.688 40.9199C113.85 41.1899 114.147 41.3249 114.579 41.3249C115.011 41.3249 115.587 41.2259 116.307 41.0279L116.469 42.9449C115.281 43.9349 114.237 44.4299 113.337 44.4299C112.437 44.4299 111.699 44.1059 111.123 43.4579C110.547 42.7919 110.259 41.9279 110.259 40.8659L110.421 37.8419L110.394 33.5759H108.531L108.828 31.3619H110.394ZM123.799 41.6759C124.321 41.6759 124.87 41.5409 125.446 41.2709C126.022 41.0009 126.472 40.7309 126.796 40.4609L127.282 40.0559L128.524 41.5679C128.344 41.8739 128.065 42.2249 127.687 42.6209C127.309 43.0169 126.922 43.3589 126.526 43.6469C126.148 43.9169 125.635 44.1689 124.987 44.4029C124.357 44.6189 123.7 44.7269 123.016 44.7269C121.558 44.7269 120.37 44.1779 119.452 43.0799C118.534 41.9639 118.075 40.5329 118.075 38.7869C118.075 36.5909 118.714 34.6649 119.992 33.0089C121.27 31.3529 122.764 30.5249 124.474 30.5249C125.788 30.5249 126.805 30.8939 127.525 31.6319C128.263 32.3699 128.632 33.4049 128.632 34.7369C128.632 35.5289 128.497 36.4289 128.227 37.4369L127.687 38.0039L120.937 38.6249C121.243 40.6589 122.197 41.6759 123.799 41.6759ZM123.799 33.3059C123.007 33.3059 122.341 33.6299 121.801 34.2779C121.261 34.9079 120.946 35.7179 120.856 36.7079L125.446 36.1409C125.5 35.7269 125.527 35.3849 125.527 35.1149C125.527 33.9089 124.951 33.3059 123.799 33.3059ZM142.364 30.7949C143.516 30.7949 144.479 31.2989 145.253 32.3069C146.045 33.3149 146.441 34.6739 146.441 36.3839C146.441 38.7779 145.82 40.7219 144.578 42.2159C143.354 43.6919 141.824 44.4299 139.988 44.4299C139.61 44.4299 139.187 44.4029 138.719 44.3489L138.854 49.5059L135.155 50.1809L135.506 37.8689H135.533C135.461 35.4569 135.263 33.2969 134.939 31.3889L138.206 30.6869C138.314 31.6409 138.404 32.5859 138.476 33.5219C138.512 33.4319 138.692 33.1889 139.016 32.7929C139.358 32.3789 139.853 31.9469 140.501 31.4969C141.149 31.0289 141.77 30.7949 142.364 30.7949ZM141.311 34.3049C140.357 34.3049 139.43 34.5659 138.53 35.0879V37.4099L138.638 41.2709C139.61 41.4329 140.348 41.5139 140.852 41.5139C142.58 41.5139 143.444 40.3169 143.444 37.9229C143.444 35.5109 142.733 34.3049 141.311 34.3049ZM151.381 44.4299C150.319 44.4299 149.446 44.0969 148.762 43.4309C148.096 42.7469 147.763 41.8379 147.763 40.7039C147.763 39.5519 148.285 38.5619 149.329 37.7339C150.373 36.8879 151.642 36.4649 153.136 36.4649H154.972V36.0059C154.972 35.1239 154.792 34.5209 154.432 34.1969C154.072 33.8729 153.397 33.7109 152.407 33.7109C151.993 33.7109 151.498 33.8009 150.922 33.9809C150.364 34.1429 149.734 34.4039 149.032 34.7639L148.249 32.6309C149.023 32.0909 149.959 31.6049 151.057 31.1729C152.173 30.7409 153.091 30.5249 153.811 30.5249C156.637 30.5249 158.05 31.8929 158.05 34.6289V39.9209C158.05 40.9289 158.365 42.0539 158.995 43.2959L156.133 44.5109C155.683 43.6469 155.35 42.8729 155.134 42.1889C154.144 43.6829 152.893 44.4299 151.381 44.4299ZM152.515 41.6759C153.235 41.6759 154.054 41.3069 154.972 40.5689V38.7599C154.018 38.5439 153.244 38.4359 152.65 38.4359C151.516 38.4359 150.949 38.9399 150.949 39.9479C150.949 40.4699 151.093 40.8929 151.381 41.2169C151.669 41.5229 152.047 41.6759 152.515 41.6759ZM168.546 30.7949C169.698 30.7949 170.661 31.2989 171.435 32.3069C172.227 33.3149 172.623 34.6739 172.623 36.3839C172.623 38.7779 172.002 40.7219 170.76 42.2159C169.536 43.6919 168.006 44.4299 166.17 44.4299C165.792 44.4299 165.369 44.4029 164.901 44.3489L165.036 49.5059L161.337 50.1809L161.688 37.8689H161.715C161.643 35.4569 161.445 33.2969 161.121 31.3889L164.388 30.6869C164.496 31.6409 164.586 32.5859 164.658 33.5219C164.694 33.4319 164.874 33.1889 165.198 32.7929C165.54 32.3789 166.035 31.9469 166.683 31.4969C167.331 31.0289 167.952 30.7949 168.546 30.7949ZM167.493 34.3049C166.539 34.3049 165.612 34.5659 164.712 35.0879V37.4099L164.82 41.2709C165.792 41.4329 166.53 41.5139 167.034 41.5139C168.762 41.5139 169.626 40.3169 169.626 37.9229C169.626 35.5109 168.915 34.3049 167.493 34.3049ZM179.724 41.6759C180.246 41.6759 180.795 41.5409 181.371 41.2709C181.947 41.0009 182.397 40.7309 182.721 40.4609L183.207 40.0559L184.449 41.5679C184.269 41.8739 183.99 42.2249 183.612 42.6209C183.234 43.0169 182.847 43.3589 182.451 43.6469C182.073 43.9169 181.56 44.1689 180.912 44.4029C180.282 44.6189 179.625 44.7269 178.941 44.7269C177.483 44.7269 176.295 44.1779 175.377 43.0799C174.459 41.9639 174 40.5329 174 38.7869C174 36.5909 174.639 34.6649 175.917 33.0089C177.195 31.3529 178.689 30.5249 180.399 30.5249C181.713 30.5249 182.73 30.8939 183.45 31.6319C184.188 32.3699 184.557 33.4049 184.557 34.7369C184.557 35.5289 184.422 36.4289 184.152 37.4369L183.612 38.0039L176.862 38.6249C177.168 40.6589 178.122 41.6759 179.724 41.6759ZM179.724 33.3059C178.932 33.3059 178.266 33.6299 177.726 34.2779C177.186 34.9079 176.871 35.7179 176.781 36.7079L181.371 36.1409C181.425 35.7269 181.452 35.3849 181.452 35.1149C181.452 33.9089 180.876 33.3059 179.724 33.3059ZM186.617 31.3889L189.884 30.6869C190.046 32.0729 190.154 33.3869 190.208 34.6289C191.846 32.0909 193.385 30.8219 194.825 30.8219L194.528 35.0339C193.484 35.0339 192.656 35.1329 192.044 35.3309C191.45 35.5109 190.838 35.8799 190.208 36.4379V37.4099L190.505 43.7549L186.887 44.4299L187.211 37.8689C187.139 35.4569 186.941 33.2969 186.617 31.3889Z" fill="white"/>
<path d="M79.3353 41.0549L77.1538 41.562L77.5565 43.2946H79.3353V41.0549ZM79.6323 41.0549V43.2946H81.3421L81.7927 41.6453L79.6323 41.0549ZM80.9013 36.4109L83.0617 37.0013L83.0708 36.9682L83.0788 36.9348L80.9013 36.4109ZM83.4933 25.6379L83.8456 23.4262L81.8003 23.1004L81.3158 25.114L83.4933 25.6379ZM86.5443 26.1239L88.704 26.7169L89.3661 24.3055L86.8966 23.9122L86.5443 26.1239ZM83.6013 36.8429L81.4416 36.25L81.4335 36.2794L81.4262 36.3091L83.6013 36.8429ZM81.7923 44.2139L81.951 46.4479L83.5785 46.3323L83.9674 44.7477L81.7923 44.2139ZM76.8513 44.5649L74.661 45.0325L75.0676 46.9369L77.01 46.7989L76.8513 44.5649ZM75.3123 37.3559L77.5026 36.8883L77.4928 36.8426L77.4812 36.7973L75.3123 37.3559ZM74.3943 33.7919L76.5632 33.2333L74.4271 24.9403L72.2297 33.2172L74.3943 33.7919ZM73.5843 36.8429L71.4197 36.2682L71.4143 36.2886L71.4092 36.3091L73.5843 36.8429ZM71.7753 44.2139L71.9367 46.4477L73.562 46.3304L73.9504 44.7477L71.7753 44.2139ZM66.9153 44.5649L64.7302 45.056L65.153 46.9377L67.0767 46.7987L66.9153 44.5649ZM65.2953 37.3559L67.4805 36.8649L67.4736 36.8343L67.4659 36.804L65.2953 37.3559ZM62.4873 26.3129L62.0644 24.1136L59.7313 24.5623L60.3168 26.8649L62.4873 26.3129ZM65.9973 25.6379L68.1892 25.178L67.7369 23.0227L65.5744 23.4386L65.9973 25.6379ZM68.1843 36.0599L65.9924 36.5199L65.9997 36.5547L66.0081 36.5893L68.1843 36.0599ZM69.3993 41.0549L67.2231 41.5843L67.6392 43.2946H69.3993V41.0549ZM69.6963 41.0549V43.2946H71.3844L71.8493 41.6717L69.6963 41.0549ZM71.1273 36.0599L73.2803 36.6767L73.285 36.6606L73.2893 36.6445L71.1273 36.0599ZM73.0983 28.7699L75.2603 29.3545L75.4132 28.789L75.2697 28.2211L73.0983 28.7699ZM72.4773 26.3129L72.0606 24.1124L69.723 24.5551L70.306 26.8617L72.4773 26.3129ZM76.0413 25.6379L78.2355 25.1889L77.793 23.0267L75.6246 23.4374L76.0413 25.6379ZM78.1743 36.0599L75.9802 36.509L75.9861 36.5381L75.9928 36.567L78.1743 36.0599ZM79.3353 43.2946H79.6323V38.8153H79.3353V43.2946ZM81.7927 41.6453L83.0617 37.0013L78.7409 35.8206L77.4719 40.4646L81.7927 41.6453ZM83.0788 36.9348L85.6708 26.1618L81.3158 25.114L78.7238 35.887L83.0788 36.9348ZM83.141 27.8497L86.192 28.3357L86.8966 23.9122L83.8456 23.4262L83.141 27.8497ZM84.3846 25.531L81.4416 36.25L85.761 37.4359L88.704 26.7169L84.3846 25.531ZM81.4262 36.3091L79.6172 43.6801L83.9674 44.7477L85.7764 37.3767L81.4262 36.3091ZM81.6336 41.9799L76.6926 42.3309L77.01 46.7989L81.951 46.4479L81.6336 41.9799ZM79.0416 44.0973L77.5026 36.8883L73.122 37.8235L74.661 45.0325L79.0416 44.0973ZM77.4812 36.7973L76.5632 33.2333L72.2255 34.3506L73.1435 37.9146L77.4812 36.7973ZM72.2297 33.2172L71.4197 36.2682L75.749 37.4176L76.559 34.3666L72.2297 33.2172ZM71.4092 36.3091L69.6002 43.6801L73.9504 44.7477L75.7594 37.3767L71.4092 36.3091ZM71.614 41.9801L66.754 42.3311L67.0767 46.7987L71.9367 46.4477L71.614 41.9801ZM69.1005 44.0739L67.4805 36.8649L63.1102 37.847L64.7302 45.056L69.1005 44.0739ZM67.4659 36.804L64.6579 25.761L60.3168 26.8649L63.1248 37.9079L67.4659 36.804ZM62.9103 28.5123L66.4203 27.8373L65.5744 23.4386L62.0644 24.1136L62.9103 28.5123ZM63.8054 26.0979L65.9924 36.5199L70.3762 35.6L68.1892 25.178L63.8054 26.0979ZM66.0081 36.5893L67.2231 41.5843L71.5755 40.5256L70.3605 35.5306L66.0081 36.5893ZM69.3993 43.2946H69.6963V38.8153H69.3993V43.2946ZM71.8493 41.6717L73.2803 36.6767L68.9743 35.4431L67.5433 40.4381L71.8493 41.6717ZM73.2893 36.6445L75.2603 29.3545L70.9363 28.1854L68.9653 35.4754L73.2893 36.6445ZM75.2697 28.2211L74.6487 25.7641L70.306 26.8617L70.927 29.3187L75.2697 28.2211ZM72.8941 28.5134L76.4581 27.8384L75.6246 23.4374L72.0606 24.1124L72.8941 28.5134ZM73.8472 26.087L75.9802 36.509L80.3685 35.6109L78.2355 25.1889L73.8472 26.087ZM75.9928 36.567L77.1538 41.562L81.5168 40.5479L80.3558 35.5529L75.9928 36.567ZM96.448 37.5989L98.6853 37.703L98.6877 37.651V37.5989H96.448ZM96.124 35.1149L98.1097 34.079V34.079L96.124 35.1149ZM91.912 35.4389L90.725 33.5397L89.6724 34.1976V35.4389H91.912ZM91.912 37.4099H89.6724V37.4623L89.6749 37.5147L91.912 37.4099ZM92.209 43.7549L92.6169 45.9571L94.5376 45.6014L94.4462 43.6502L92.209 43.7549ZM88.564 44.4299L86.3271 44.3195L86.1875 47.1477L88.9719 46.6321L88.564 44.4299ZM88.888 37.8689L91.125 37.9794L91.129 37.8977L91.127 37.8158L88.888 37.8689ZM88.564 24.2069L88.162 22.0037L86.2797 22.3472L86.325 24.26L88.564 24.2069ZM92.263 23.5319L94.4999 23.6442L94.6416 20.8213L91.861 21.3287L92.263 23.5319ZM91.912 30.5249L89.6752 30.4127L89.6724 30.4688V30.5249H91.912ZM91.912 33.6839H89.6724V40.4028L93.7038 35.0277L91.912 33.6839ZM92.83 32.6309L94.4137 34.2146V34.2146L92.83 32.6309ZM94.423 31.4699L93.2708 29.5495L94.423 31.4699ZM98.7971 31.7939L97.0999 33.2553L97.1101 33.2672L97.1205 33.2789L98.7971 31.7939ZM99.634 34.3859L101.87 34.5057L101.874 34.4459V34.3859H99.634ZM99.472 37.4099L97.2356 37.2901L97.2297 37.4013L97.2348 37.5125L99.472 37.4099ZM99.7691 43.8899L100.177 46.0921L102.096 45.7368L102.006 43.7874L99.7691 43.8899ZM96.124 44.5649L93.8868 44.4609L93.7557 47.2812L96.5319 46.7671L96.124 44.5649ZM98.6877 37.5989C98.6877 36.9229 98.6588 36.3009 98.5879 35.7568C98.5223 35.254 98.3996 34.6347 98.1097 34.079L94.1384 36.1509C94.0915 36.061 94.0861 36.0203 94.0987 36.0684C94.1097 36.1107 94.128 36.196 94.1462 36.3361C94.1833 36.62 94.2084 37.033 94.2084 37.5989H98.6877ZM98.1097 34.079C97.29 32.5079 95.6292 32.2543 94.612 32.2543V36.7336C94.8374 36.7336 94.8443 36.7665 94.7332 36.7209C94.6683 36.6942 94.5622 36.64 94.4453 36.5392C94.3248 36.4353 94.2178 36.3031 94.1384 36.1509L98.1097 34.079ZM94.612 32.2543C93.24 32.2543 91.9228 32.7911 90.725 33.5397L93.0991 37.3381C93.9173 36.8267 94.4001 36.7336 94.612 36.7336V32.2543ZM89.6724 35.4389V37.4099H94.1517V35.4389H89.6724ZM89.6749 37.5147L89.9719 43.8597L94.4462 43.6502L94.1492 37.3052L89.6749 37.5147ZM91.8012 41.5527L88.1562 42.2277L88.9719 46.6321L92.6169 45.9571L91.8012 41.5527ZM90.801 44.5404L91.125 37.9794L86.6511 37.7585L86.3271 44.3195L90.801 44.5404ZM91.127 37.8158L90.803 24.1538L86.325 24.26L86.649 37.922L91.127 37.8158ZM88.9661 26.4102L92.6651 25.7352L91.861 21.3287L88.162 22.0037L88.9661 26.4102ZM90.0262 23.4197L89.6752 30.4127L94.1489 30.6372L94.4999 23.6442L90.0262 23.4197ZM89.6724 30.5249V33.6839H94.1517V30.5249H89.6724ZM93.7038 35.0277C93.9056 34.7585 94.1411 34.4872 94.4137 34.2146L91.2464 31.0473C90.835 31.4587 90.4584 31.8893 90.1203 32.3402L93.7038 35.0277ZM94.4137 34.2146C94.5653 34.063 94.9155 33.7863 95.5753 33.3904L93.2708 29.5495C92.4906 30.0175 91.7788 30.5148 91.2464 31.0473L94.4137 34.2146ZM95.5753 33.3904C95.9606 33.1592 96.3293 33.0616 96.718 33.0616V28.5823C95.4868 28.5823 94.3255 28.9166 93.2708 29.5495L95.5753 33.3904ZM96.718 33.0616C96.8699 33.0616 96.9514 33.0829 97.0999 33.2553L100.494 30.3325C99.5267 29.209 98.2222 28.5823 96.718 28.5823V33.0616ZM97.1205 33.2789C97.2167 33.3875 97.3944 33.6646 97.3944 34.3859H101.874C101.874 32.9112 101.493 31.4604 100.474 30.309L97.1205 33.2789ZM97.3976 34.2661L97.2356 37.2901L101.708 37.5297L101.87 34.5057L97.3976 34.2661ZM97.2348 37.5125L97.5318 43.9925L102.006 43.7874L101.709 37.3074L97.2348 37.5125ZM99.3612 41.6877L95.7162 42.3627L96.5319 46.7671L100.177 46.0921L99.3612 41.6877ZM98.3613 44.669L98.6853 37.703L94.2108 37.4949L93.8868 44.4609L98.3613 44.669ZM106.368 30.6869L108.605 30.7947L108.741 27.9659L105.957 28.4853L106.368 30.6869ZM106.044 37.4099L103.807 37.3021L103.801 37.4084L103.806 37.5147L106.044 37.4099ZM106.341 43.7549L106.751 45.9566L108.669 45.5988L108.578 43.6502L106.341 43.7549ZM102.723 44.4299L100.486 44.3195L100.346 47.1516L103.133 46.6316L102.723 44.4299ZM103.047 37.8689L105.284 37.9794L105.289 37.8731L105.284 37.7668L103.047 37.8689ZM102.75 31.3619L102.339 29.1603L100.423 29.5176L100.512 31.464L102.75 31.3619ZM103.263 25.1249L104.846 26.7086L104.861 26.6936L104.876 26.6784L103.263 25.1249ZM106.287 24.9089L104.661 26.4492L104.682 26.4712L104.703 26.4926L106.287 24.9089ZM106.071 28.1219L104.457 26.5684L104.456 26.5696L106.071 28.1219ZM103.074 28.2299L101.379 29.6938L103.074 28.2299ZM104.131 30.5791L103.807 37.3021L108.281 37.5177L108.605 30.7947L104.131 30.5791ZM103.806 37.5147L104.103 43.8597L108.578 43.6502L108.281 37.3052L103.806 37.5147ZM105.93 41.5533L102.312 42.2283L103.133 46.6316L106.751 45.9566L105.93 41.5533ZM104.959 44.5404L105.284 37.9794L100.81 37.7585L100.486 44.3195L104.959 44.5404ZM105.284 37.7668L104.987 31.2598L100.512 31.464L100.809 37.971L105.284 37.7668ZM103.16 33.5636L106.778 32.8886L105.957 28.4853L102.339 29.1603L103.16 33.5636ZM104.8 26.7449C104.8 26.7355 104.801 26.7366 104.799 26.7453C104.797 26.7541 104.794 26.7637 104.791 26.7714C104.788 26.779 104.787 26.7784 104.793 26.7694C104.8 26.7599 104.816 26.7392 104.846 26.7086L101.679 23.5413C100.829 24.3915 100.321 25.4876 100.321 26.7449H104.8ZM104.876 26.6784C104.908 26.6448 104.93 26.6277 104.94 26.6208C104.949 26.6142 104.948 26.6159 104.938 26.6205C104.927 26.6253 104.913 26.6299 104.899 26.6329C104.885 26.6358 104.879 26.6356 104.883 26.6356V22.1563C103.596 22.1563 102.492 22.6966 101.649 23.5714L104.876 26.6784ZM104.883 26.6356C104.984 26.6356 104.985 26.6502 104.924 26.6278C104.892 26.6162 104.848 26.5963 104.799 26.5642C104.749 26.532 104.702 26.4929 104.661 26.4492L107.912 23.3686C107.049 22.4569 105.916 22.1563 104.883 22.1563V26.6356ZM104.703 26.4926C104.647 26.4364 104.604 26.3788 104.573 26.3269C104.543 26.2759 104.528 26.2374 104.523 26.2198C104.513 26.1898 104.533 26.235 104.533 26.3939H109.012C109.012 25.4035 108.773 24.2277 107.87 23.3253L104.703 26.4926ZM104.533 26.3939C104.533 26.4587 104.523 26.4808 104.522 26.4825C104.521 26.4847 104.511 26.5131 104.457 26.5684L107.684 29.6754C108.548 28.7782 109.012 27.6477 109.012 26.3939H104.533ZM104.456 26.5696C104.432 26.5951 104.417 26.6057 104.415 26.6077C104.413 26.6088 104.414 26.6081 104.417 26.6062C104.42 26.6044 104.425 26.6018 104.432 26.599C104.438 26.5961 104.445 26.5935 104.452 26.5911C104.46 26.5888 104.467 26.5871 104.472 26.5859C104.484 26.5835 104.487 26.5843 104.478 26.5843V31.0636C105.739 31.0636 106.841 30.5515 107.685 29.6742L104.456 26.5696ZM104.478 26.5843C104.43 26.5843 104.469 26.577 104.554 26.6128C104.646 26.6517 104.722 26.712 104.769 26.7661L101.379 29.6938C102.206 30.6521 103.331 31.0636 104.478 31.0636V26.5843ZM104.769 26.7661C104.774 26.7725 104.782 26.7831 104.79 26.7969C104.798 26.8107 104.803 26.8226 104.806 26.8304C104.808 26.8379 104.807 26.8368 104.805 26.8244C104.803 26.8117 104.8 26.786 104.8 26.7449H100.321C100.321 27.799 100.638 28.836 101.379 29.6938L104.769 26.7661ZM110.394 31.3619V33.6016H112.634V31.3619H110.394ZM110.394 28.4189L109.971 26.2197L108.155 26.5695V28.4189H110.394ZM114.039 27.7169L116.269 27.9316L116.556 24.9515L113.616 25.5177L114.039 27.7169ZM113.688 31.3619L111.459 31.1473L111.223 33.6016H113.688V31.3619ZM116.955 31.3619L119.175 31.6597L119.516 29.1223H116.955V31.3619ZM116.658 33.5759V35.8156H118.618L118.878 33.8737L116.658 33.5759ZM113.58 33.5759V31.3363H111.394L111.341 33.5224L113.58 33.5759ZM113.445 39.2189L111.206 39.1654L111.206 39.1921V39.2189H113.445ZM113.688 40.9199L111.736 42.0179L111.752 42.0453L111.768 42.0722L113.688 40.9199ZM116.307 41.0279L118.539 40.8393L118.312 38.1539L115.714 38.8685L116.307 41.0279ZM116.469 42.9449L117.903 44.6655L118.799 43.9187L118.701 42.7563L116.469 42.9449ZM111.123 43.4579L109.429 44.923L109.439 44.9345L109.449 44.9459L111.123 43.4579ZM110.259 40.8659L108.023 40.7461L108.02 40.806V40.8659H110.259ZM110.421 37.8419L112.658 37.9617L112.661 37.8948L112.661 37.8278L110.421 37.8419ZM110.394 33.5759L112.634 33.5618L112.62 31.3363H110.394V33.5759ZM108.531 33.5759L106.312 33.2782L105.971 35.8156H108.531V33.5759ZM108.828 31.3619V29.1223H106.869L106.609 31.0642L108.828 31.3619ZM112.634 31.3619V28.4189H108.155V31.3619H112.634ZM110.818 30.6181L114.463 29.9161L113.616 25.5177L109.971 26.2197L110.818 30.6181ZM111.81 27.5023L111.459 31.1473L115.918 31.5766L116.269 27.9316L111.81 27.5023ZM113.688 33.6016H116.955V29.1223H113.688V33.6016ZM114.736 31.0642L114.439 33.2782L118.878 33.8737L119.175 31.6597L114.736 31.0642ZM116.658 31.3363H113.58V35.8156H116.658V31.3363ZM111.341 33.5224L111.206 39.1654L115.684 39.2725L115.819 33.6295L111.341 33.5224ZM111.206 39.2189C111.206 39.703 111.228 40.1703 111.289 40.5954C111.344 40.9822 111.455 41.517 111.736 42.0179L115.64 39.8219C115.71 39.9456 115.734 40.0309 115.736 40.0393C115.74 40.0525 115.733 40.0307 115.723 39.962C115.703 39.82 115.685 39.5809 115.685 39.2189H111.206ZM111.768 42.0722C112.479 43.2567 113.688 43.5646 114.579 43.5646V39.0853C114.584 39.0853 114.739 39.0845 114.959 39.1848C115.209 39.298 115.447 39.4985 115.609 39.7677L111.768 42.0722ZM114.579 43.5646C115.306 43.5646 116.106 43.406 116.901 43.1874L115.714 38.8685C115.068 39.0459 114.717 39.0853 114.579 39.0853V43.5646ZM114.076 41.2165L114.238 43.1335L118.701 42.7563L118.539 40.8393L114.076 41.2165ZM115.036 41.2244C113.987 42.0981 113.451 42.1903 113.337 42.1903V46.6696C115.024 46.6696 116.576 45.7717 117.903 44.6655L115.036 41.2244ZM113.337 42.1903C113.049 42.1903 112.93 42.1195 112.797 41.97L109.449 44.9459C110.469 46.0923 111.825 46.6696 113.337 46.6696V42.1903ZM112.817 41.9929C112.662 41.8137 112.499 41.5059 112.499 40.8659H108.02C108.02 42.35 108.432 43.7701 109.429 44.923L112.817 41.9929ZM112.496 40.9857L112.658 37.9617L108.185 37.7221L108.023 40.7461L112.496 40.9857ZM112.661 37.8278L112.634 33.5618L108.155 33.5901L108.182 37.8561L112.661 37.8278ZM110.394 31.3363H108.531V35.8156H110.394V31.3363ZM110.751 33.8737L111.048 31.6597L106.609 31.0642L106.312 33.2782L110.751 33.8737ZM108.828 33.6016H110.394V29.1223H108.828V33.6016ZM125.446 41.2709L124.495 39.243L125.446 41.2709ZM126.796 40.4609L125.362 38.7404L125.362 38.7404L126.796 40.4609ZM127.282 40.0559L129.013 38.6343L127.581 36.8915L125.848 38.3354L127.282 40.0559ZM128.524 41.5679L130.454 42.7035L131.248 41.3551L130.255 40.1463L128.524 41.5679ZM126.526 43.6469L127.828 45.4694L127.836 45.4638L127.843 45.4582L126.526 43.6469ZM124.987 44.4029L125.713 46.5215L125.731 46.5156L125.748 46.5094L124.987 44.4029ZM119.452 43.0799L117.722 44.5027L117.728 44.5096L117.734 44.5165L119.452 43.0799ZM119.992 33.0089L121.765 34.3773V34.3773L119.992 33.0089ZM127.525 31.6319L125.922 33.1959L125.932 33.2058L125.941 33.2156L127.525 31.6319ZM128.227 37.4369L129.849 38.9815L130.243 38.568L130.39 38.0164L128.227 37.4369ZM127.687 38.0039L127.892 40.2341L128.729 40.1571L129.309 39.5485L127.687 38.0039ZM120.937 38.6249L120.732 36.3947L118.369 36.6121L118.722 38.9581L120.937 38.6249ZM121.801 34.2779L123.502 35.7355L123.512 35.7237L123.522 35.7117L121.801 34.2779ZM120.856 36.7079L118.626 36.5052L118.374 39.2712L121.131 38.9307L120.856 36.7079ZM125.446 36.1409L125.721 38.3637L127.442 38.151L127.667 36.4306L125.446 36.1409ZM123.799 43.9156C124.713 43.9156 125.587 43.6784 126.397 43.2988L124.495 39.243C124.153 39.4035 123.929 39.4363 123.799 39.4363V43.9156ZM126.397 43.2988C127.068 42.9842 127.704 42.6194 128.23 42.1815L125.362 38.7404C125.24 38.8425 124.976 39.0176 124.495 39.243L126.397 43.2988ZM128.23 42.1815L128.716 41.7765L125.848 38.3354L125.362 38.7404L128.23 42.1815ZM125.551 41.4775L126.793 42.9895L130.255 40.1463L129.013 38.6343L125.551 41.4775ZM126.594 40.4324C126.535 40.5329 126.383 40.7437 126.067 41.0745L129.307 44.1673C129.747 43.7061 130.154 43.215 130.454 42.7035L126.594 40.4324ZM126.067 41.0745C125.771 41.3845 125.484 41.6353 125.209 41.8357L127.843 45.4582C128.36 45.0826 128.847 44.6493 129.307 44.1673L126.067 41.0745ZM125.224 41.8245C125.072 41.9331 124.765 42.1019 124.226 42.2964L125.748 46.5094C126.505 46.236 127.224 45.9007 127.828 45.4694L125.224 41.8245ZM124.261 42.2844C123.871 42.418 123.46 42.4873 123.016 42.4873V46.9666C123.94 46.9666 124.843 46.8198 125.713 46.5215L124.261 42.2844ZM123.016 42.4873C122.207 42.4873 121.654 42.2215 121.17 41.6434L117.734 44.5165C119.086 46.1344 120.909 46.9666 123.016 46.9666V42.4873ZM121.182 41.6572C120.658 41.0209 120.315 40.1261 120.315 38.7869H115.835C115.835 40.9397 116.41 42.907 117.722 44.5027L121.182 41.6572ZM120.315 38.7869C120.315 37.0596 120.805 35.6208 121.765 34.3773L118.219 31.6406C116.623 33.709 115.835 36.1222 115.835 38.7869H120.315ZM121.765 34.3773C122.724 33.1344 123.614 32.7646 124.474 32.7646V28.2853C121.914 28.2853 119.816 29.5715 118.219 31.6406L121.765 34.3773ZM124.474 32.7646C125.359 32.7646 125.731 33.0007 125.922 33.1959L129.128 30.0679C127.879 28.7872 126.217 28.2853 124.474 28.2853V32.7646ZM125.941 33.2156C126.152 33.4258 126.392 33.8268 126.392 34.7369H130.872C130.872 32.9831 130.375 31.3141 129.109 30.0483L125.941 33.2156ZM126.392 34.7369C126.392 35.2827 126.298 35.9824 126.064 36.8575L130.39 38.0164C130.696 36.8755 130.872 35.7752 130.872 34.7369H126.392ZM126.605 35.8924L126.065 36.4594L129.309 39.5485L129.849 38.9815L126.605 35.8924ZM127.482 35.7737L120.732 36.3947L121.142 40.8551L127.892 40.2341L127.482 35.7737ZM118.722 38.9581C118.913 40.2222 119.345 41.4823 120.249 42.4454C121.213 43.474 122.48 43.9156 123.799 43.9156V39.4363C123.636 39.4363 123.563 39.4108 123.547 39.4043C123.537 39.4004 123.532 39.3988 123.515 39.3809C123.465 39.327 123.268 39.0617 123.152 38.2917L118.722 38.9581ZM123.799 31.0663C122.295 31.0663 121.014 31.7235 120.081 32.8442L123.522 35.7117C123.617 35.5976 123.675 35.5681 123.685 35.5629C123.692 35.5596 123.718 35.5456 123.799 35.5456V31.0663ZM120.101 32.8204C119.202 33.8688 118.749 35.1458 118.626 36.5052L123.086 36.9107C123.143 36.29 123.32 35.947 123.502 35.7355L120.101 32.8204ZM121.131 38.9307L125.721 38.3637L125.171 33.9182L120.581 34.4852L121.131 38.9307ZM127.667 36.4306C127.727 35.9663 127.767 35.519 127.767 35.1149H123.287C123.287 35.2508 123.273 35.4875 123.225 35.8513L127.667 36.4306ZM127.767 35.1149C127.767 34.1917 127.548 33.0836 126.715 32.2112C125.863 31.3196 124.747 31.0663 123.799 31.0663V35.5456C123.898 35.5456 123.891 35.5592 123.817 35.5336C123.732 35.5037 123.6 35.435 123.476 35.3052C123.218 35.0358 123.287 34.8322 123.287 35.1149H127.767ZM145.253 32.3069L143.477 33.6709L143.484 33.6808L143.492 33.6906L145.253 32.3069ZM144.578 42.2159L142.856 40.7842L142.854 40.7863L144.578 42.2159ZM138.719 44.3489L138.976 42.1241L136.412 41.8283L136.48 44.4075L138.719 44.3489ZM138.854 49.5059L139.256 51.7092L141.143 51.3648L141.093 49.4473L138.854 49.5059ZM135.155 50.1809L132.916 50.1171L132.837 52.8804L135.557 52.3842L135.155 50.1809ZM135.506 37.8689V35.6293H133.329L133.267 37.8051L135.506 37.8689ZM135.533 37.8689V40.1086H137.84L137.771 37.8021L135.533 37.8689ZM134.939 31.3889L134.468 29.1993L132.372 29.6498L132.731 31.7639L134.939 31.3889ZM138.206 30.6869L140.431 30.435L140.153 27.9778L137.735 28.4973L138.206 30.6869ZM138.476 33.5219L136.243 33.6937L140.555 34.3537L138.476 33.5219ZM139.016 32.7929L137.289 31.3665L137.282 31.3747L139.016 32.7929ZM140.501 31.4969L141.778 33.3365L141.795 33.3247L141.812 33.3126L140.501 31.4969ZM138.53 35.0879L137.406 33.1506L136.29 33.7978V35.0879H138.53ZM138.53 37.4099H136.29V37.4412L136.291 37.4726L138.53 37.4099ZM138.638 41.2709L136.399 41.3336L136.451 43.1769L138.27 43.4801L138.638 41.2709ZM142.364 33.0346C142.741 33.0346 143.076 33.1496 143.477 33.6709L147.029 30.9429C145.882 29.4483 144.29 28.5553 142.364 28.5553V33.0346ZM143.492 33.6906C143.884 34.19 144.201 35.0084 144.201 36.3839H148.68C148.68 34.3394 148.206 32.4398 147.014 30.9232L143.492 33.6906ZM144.201 36.3839C144.201 38.3804 143.691 39.7793 142.856 40.7842L146.3 43.6477C147.949 41.6645 148.68 39.1755 148.68 36.3839H144.201ZM142.854 40.7863C142.034 41.7754 141.124 42.1903 139.988 42.1903V46.6696C142.524 46.6696 144.674 45.6085 146.302 43.6456L142.854 40.7863ZM139.988 42.1903C139.713 42.1903 139.378 42.1705 138.976 42.1241L138.462 46.5738C138.996 46.6354 139.506 46.6696 139.988 46.6696V42.1903ZM136.48 44.4075L136.615 49.5645L141.093 49.4473L140.958 44.2903L136.48 44.4075ZM138.452 47.3027L134.753 47.9777L135.557 52.3842L139.256 51.7092L138.452 47.3027ZM137.394 50.2448L137.745 37.9328L133.267 37.8051L132.916 50.1171L137.394 50.2448ZM135.506 40.1086H135.533V35.6293H135.506V40.1086ZM137.771 37.8021C137.697 35.3108 137.492 33.0451 137.147 31.014L132.731 31.7639C133.034 33.5488 133.225 35.603 133.294 37.9358L137.771 37.8021ZM135.409 33.5786L138.676 32.8766L137.735 28.4973L134.468 29.1993L135.409 33.5786ZM135.98 30.9389C136.086 31.8668 136.173 32.7851 136.243 33.6937L140.709 33.3502C140.635 32.3868 140.542 31.4151 140.431 30.435L135.98 30.9389ZM140.555 34.3537C140.531 34.4146 140.508 34.4632 140.492 34.4966C140.475 34.5308 140.46 34.5582 140.449 34.5774C140.428 34.6144 140.413 34.6381 140.409 34.6445C140.401 34.6563 140.407 34.6458 140.438 34.6053C140.497 34.5256 140.597 34.3975 140.749 34.2111L137.282 31.3747C137.111 31.5844 136.959 31.7757 136.838 31.9391C136.783 32.0132 136.541 32.3289 136.396 32.6902L140.555 34.3537ZM140.743 34.2193C140.909 34.0178 141.227 33.7191 141.778 33.3365L139.223 29.6574C138.478 30.1748 137.807 30.74 137.289 31.3666L140.743 34.2193ZM141.812 33.3126C142.007 33.1718 142.151 33.1008 142.242 33.0662C142.287 33.0493 142.318 33.0416 142.337 33.038C142.355 33.0345 142.363 33.0346 142.364 33.0346V28.5553C141.161 28.5553 140.089 29.0316 139.19 29.6813L141.812 33.3126ZM141.311 32.0653C139.927 32.0653 138.616 32.4491 137.406 33.1506L139.654 37.0253C140.244 36.6828 140.787 36.5446 141.311 36.5446V32.0653ZM136.29 35.0879V37.4099H140.77V35.0879H136.29ZM136.291 37.4726L136.399 41.3336L140.877 41.2083L140.769 37.3473L136.291 37.4726ZM138.27 43.4801C139.272 43.6471 140.157 43.7536 140.852 43.7536V39.2743C140.538 39.2743 139.948 39.2188 139.006 39.0618L138.27 43.4801ZM140.852 43.7536C142.295 43.7536 143.683 43.2137 144.612 41.927C145.443 40.7755 145.684 39.3223 145.684 37.9229H141.204C141.204 38.9176 141.013 39.2599 140.98 39.3054C140.977 39.31 140.983 39.3009 141 39.2867C141.017 39.2721 141.035 39.2618 141.047 39.2562C141.073 39.2444 141.027 39.2743 140.852 39.2743V43.7536ZM145.684 37.9229C145.684 36.5701 145.497 35.1867 144.84 34.072C144.074 32.7729 142.799 32.0653 141.311 32.0653V36.5446C141.343 36.5446 141.262 36.5486 141.142 36.4806C141.02 36.4117 140.974 36.3349 140.981 36.3469C140.997 36.3732 141.058 36.4941 141.113 36.7719C141.167 37.0462 141.204 37.4233 141.204 37.9229H145.684ZM148.762 43.4309L147.158 44.9933L147.178 45.0147L147.2 45.0356L148.762 43.4309ZM149.329 37.7339L150.721 39.4887L150.73 39.4814L150.739 39.474L149.329 37.7339ZM154.972 36.4649V38.7046H157.212V36.4649H154.972ZM154.432 34.1969L152.934 35.8616L154.432 34.1969ZM150.922 33.9809L151.547 36.1318L151.569 36.1254L151.59 36.1186L150.922 33.9809ZM149.032 34.7639L146.93 35.5357L147.802 37.9118L150.054 36.7568L149.032 34.7639ZM148.249 32.6309L146.968 30.7941L145.552 31.782L146.147 33.4027L148.249 32.6309ZM151.057 31.1729L150.249 29.0843L150.237 29.0888L151.057 31.1729ZM158.995 43.2959L159.87 45.3575L162.077 44.4207L160.993 42.2828L158.995 43.2959ZM156.133 44.5109L154.147 45.5455L155.103 47.3814L157.008 46.5725L156.133 44.5109ZM155.134 42.1889L157.27 41.5145L155.858 37.0426L153.267 40.9518L155.134 42.1889ZM154.972 40.5689L156.375 42.3144L157.212 41.6421V40.5689H154.972ZM154.972 38.7599H157.212V36.9707L155.467 36.5756L154.972 38.7599ZM151.381 41.2169L149.707 42.7049L149.728 42.7287L149.75 42.7519L151.381 41.2169ZM151.381 42.1903C150.831 42.1903 150.542 42.0378 150.325 41.8263L147.2 45.0356C148.351 46.1561 149.807 46.6696 151.381 46.6696V42.1903ZM150.367 41.8685C150.183 41.6798 150.003 41.3715 150.003 40.7039H145.524C145.524 42.3043 146.009 43.8141 147.158 44.9933L150.367 41.8685ZM150.003 40.7039C150.003 40.3477 150.118 39.9668 150.721 39.4887L147.938 35.9792C146.452 37.1571 145.524 38.7561 145.524 40.7039H150.003ZM150.739 39.474C151.339 38.9876 152.095 38.7046 153.136 38.7046V34.2253C151.19 34.2253 149.407 34.7883 147.919 35.9939L150.739 39.474ZM153.136 38.7046H154.972V34.2253H153.136V38.7046ZM157.212 36.4649V36.0059H152.733V36.4649H157.212ZM157.212 36.0059C157.212 34.9701 157.029 33.5213 155.93 32.5322L152.934 35.8616C152.729 35.6774 152.684 35.51 152.691 35.5328C152.694 35.5421 152.705 35.5836 152.715 35.6662C152.725 35.7483 152.733 35.86 152.733 36.0059H157.212ZM155.93 32.5322C154.902 31.6066 153.462 31.4713 152.407 31.4713V35.9506C152.794 35.9506 153.022 35.9836 153.133 36.0102C153.255 36.0395 153.126 36.0341 152.934 35.8616L155.93 32.5322ZM152.407 31.4713C151.689 31.4713 150.957 31.6237 150.254 31.8432L151.59 36.1186C152.04 35.9782 152.298 35.9506 152.407 35.9506V31.4713ZM150.298 31.8301C149.564 32.0432 148.798 32.3673 148.01 32.7711L150.054 36.7568C150.671 36.4406 151.165 36.2427 151.547 36.1318L150.298 31.8301ZM151.135 33.9921L150.352 31.8591L146.147 33.4027L146.93 35.5357L151.135 33.9921ZM149.531 34.4677C150.131 34.0492 150.904 33.6401 151.877 33.2571L150.237 29.0888C149.015 29.5697 147.916 30.1327 146.968 30.7941L149.531 34.4677ZM151.866 33.2615C152.872 32.8721 153.491 32.7646 153.811 32.7646V28.2853C152.691 28.2853 151.475 28.6097 150.249 29.0843L151.866 33.2615ZM153.811 32.7646C154.897 32.7646 155.296 33.0281 155.433 33.16C155.555 33.2789 155.811 33.6249 155.811 34.6289H160.29C160.29 32.897 159.839 31.191 158.548 29.9419C157.272 28.7058 155.552 28.2853 153.811 28.2853V32.7646ZM155.811 34.6289V39.9209H160.29V34.6289H155.811ZM155.811 39.9209C155.811 41.3891 156.266 42.8663 156.998 44.3091L160.993 42.2828C160.464 41.2415 160.29 40.4687 160.29 39.9209H155.811ZM158.12 41.2344L155.258 42.4494L157.008 46.5725L159.87 45.3575L158.12 41.2344ZM158.12 43.4764C157.71 42.6899 157.436 42.0393 157.27 41.5145L152.999 42.8634C153.265 43.7066 153.656 44.604 154.147 45.5455L158.12 43.4764ZM153.267 40.9518C152.603 41.9537 151.995 42.1903 151.381 42.1903V46.6696C153.792 46.6696 155.685 45.4121 157.001 43.4261L153.267 40.9518ZM152.515 43.9156C153.981 43.9156 155.294 43.1841 156.375 42.3144L153.569 38.8234C153.215 39.1081 152.942 39.2705 152.749 39.3572C152.56 39.4428 152.49 39.4363 152.515 39.4363V43.9156ZM157.212 40.5689V38.7599H152.733V40.5689H157.212ZM155.467 36.5756C154.44 36.3432 153.483 36.1963 152.65 36.1963V40.6756C153.006 40.6756 153.596 40.7447 154.478 40.9443L155.467 36.5756ZM152.65 36.1963C151.799 36.1963 150.742 36.3798 149.887 37.14C148.981 37.9449 148.71 39.0259 148.71 39.9479H153.189C153.189 39.9003 153.196 39.9566 153.153 40.0728C153.104 40.2022 153.01 40.3564 152.862 40.4879C152.574 40.7441 152.368 40.6756 152.65 40.6756V36.1963ZM148.71 39.9479C148.71 40.9008 148.984 41.8908 149.707 42.7049L153.055 39.729C153.116 39.797 153.156 39.8727 153.177 39.9349C153.197 39.9912 153.189 40.0038 153.189 39.9479H148.71ZM149.75 42.7519C150.512 43.5612 151.507 43.9156 152.515 43.9156V39.4363C152.527 39.4363 152.607 39.4389 152.721 39.4852C152.841 39.5336 152.942 39.6071 153.012 39.682L149.75 42.7519ZM171.435 32.3069L169.659 33.6709L169.667 33.6808L169.674 33.6906L171.435 32.3069ZM170.76 42.2159L169.038 40.7842L169.037 40.7863L170.76 42.2159ZM164.901 44.3489L165.158 42.1241L162.595 41.8283L162.663 44.4075L164.901 44.3489ZM165.036 49.5059L165.439 51.7092L167.326 51.3648L167.275 49.4473L165.036 49.5059ZM161.337 50.1809L159.099 50.1171L159.02 52.8804L161.74 52.3842L161.337 50.1809ZM161.688 37.8689V35.6293H159.512L159.45 37.8051L161.688 37.8689ZM161.715 37.8689V40.1086H164.023L163.954 37.8021L161.715 37.8689ZM161.121 31.3889L160.651 29.1993L158.554 29.6498L158.913 31.7639L161.121 31.3889ZM164.388 30.6869L166.614 30.435L166.336 27.9778L163.918 28.4973L164.388 30.6869ZM164.658 33.5219L162.425 33.6937L166.738 34.3537L164.658 33.5219ZM165.198 32.7929L163.472 31.3665L163.465 31.3747L165.198 32.7929ZM166.683 31.4969L167.961 33.3365L167.978 33.3247L167.995 33.3126L166.683 31.4969ZM164.712 35.0879L163.589 33.1506L162.473 33.7978V35.0879H164.712ZM164.712 37.4099H162.473V37.4412L162.474 37.4726L164.712 37.4099ZM164.82 41.2709L162.582 41.3336L162.633 43.1769L164.452 43.4801L164.82 41.2709ZM168.546 33.0346C168.924 33.0346 169.259 33.1496 169.659 33.6709L173.212 30.9429C172.064 29.4483 170.473 28.5553 168.546 28.5553V33.0346ZM169.674 33.6906C170.067 34.19 170.384 35.0084 170.384 36.3839H174.863C174.863 34.3394 174.388 32.4398 173.197 30.9232L169.674 33.6906ZM170.384 36.3839C170.384 38.3804 169.874 39.7793 169.038 40.7842L172.483 43.6477C174.131 41.6645 174.863 39.1755 174.863 36.3839H170.384ZM169.037 40.7863C168.216 41.7754 167.307 42.1903 166.17 42.1903V46.6696C168.706 46.6696 170.857 45.6085 172.484 43.6456L169.037 40.7863ZM166.17 42.1903C165.896 42.1903 165.561 42.1705 165.158 42.1241L164.645 46.5738C165.178 46.6354 165.689 46.6696 166.17 46.6696V42.1903ZM162.663 44.4075L162.798 49.5645L167.275 49.4473L167.14 44.2903L162.663 44.4075ZM164.634 47.3027L160.935 47.9777L161.74 52.3842L165.439 51.7092L164.634 47.3027ZM163.576 50.2448L163.927 37.9328L159.45 37.8051L159.099 50.1171L163.576 50.2448ZM161.688 40.1086H161.715V35.6293H161.688V40.1086ZM163.954 37.8021C163.88 35.3108 163.674 33.0451 163.33 31.014L158.913 31.7639C159.217 33.5488 159.407 35.603 159.477 37.9358L163.954 37.8021ZM161.592 33.5786L164.859 32.8766L163.918 28.4973L160.651 29.1993L161.592 33.5786ZM162.163 30.9389C162.268 31.8668 162.356 32.7851 162.425 33.6937L166.892 33.3502C166.817 32.3868 166.725 31.4151 166.614 30.435L162.163 30.9389ZM166.738 34.3537C166.714 34.4146 166.691 34.4632 166.674 34.4966C166.657 34.5308 166.642 34.5582 166.632 34.5774C166.611 34.6144 166.596 34.6381 166.591 34.6445C166.584 34.6563 166.59 34.6458 166.62 34.6053C166.679 34.5256 166.779 34.3975 166.932 34.2111L163.465 31.3747C163.294 31.5844 163.142 31.7757 163.021 31.9391C162.966 32.0132 162.724 32.3289 162.579 32.6902L166.738 34.3537ZM166.925 34.2193C167.092 34.0178 167.41 33.7191 167.961 33.3365L165.406 29.6574C164.661 30.1748 163.989 30.74 163.472 31.3666L166.925 34.2193ZM167.995 33.3126C168.19 33.1718 168.333 33.1008 168.425 33.0662C168.47 33.0493 168.501 33.0416 168.519 33.038C168.538 33.0345 168.546 33.0346 168.546 33.0346V28.5553C167.343 28.5553 166.272 29.0316 165.372 29.6813L167.995 33.3126ZM167.493 32.0653C166.11 32.0653 164.798 32.4491 163.589 33.1506L165.836 37.0253C166.427 36.6828 166.969 36.5446 167.493 36.5446V32.0653ZM162.473 35.0879V37.4099H166.952V35.0879H162.473ZM162.474 37.4726L162.582 41.3336L167.059 41.2083L166.951 37.3473L162.474 37.4726ZM164.452 43.4801C165.454 43.6471 166.34 43.7536 167.034 43.7536V39.2743C166.721 39.2743 166.131 39.2188 165.189 39.0618L164.452 43.4801ZM167.034 43.7536C168.478 43.7536 169.866 43.2137 170.794 41.927C171.626 40.7755 171.866 39.3223 171.866 37.9229H167.387C167.387 38.9176 167.195 39.2599 167.163 39.3054C167.159 39.31 167.165 39.3009 167.182 39.2867C167.2 39.2721 167.217 39.2618 167.23 39.2562C167.255 39.2444 167.209 39.2743 167.034 39.2743V43.7536ZM171.866 37.9229C171.866 36.5701 171.68 35.1867 171.023 34.072C170.257 32.7729 168.982 32.0653 167.493 32.0653V36.5446C167.525 36.5446 167.445 36.5486 167.324 36.4806C167.202 36.4117 167.157 36.3349 167.164 36.3469C167.179 36.3732 167.241 36.4941 167.296 36.7719C167.349 37.0462 167.387 37.4233 167.387 37.9229H171.866ZM181.371 41.2709L180.42 39.243L181.371 41.2709ZM182.721 40.4609L181.287 38.7404V38.7404L182.721 40.4609ZM183.207 40.0559L184.937 38.6343L183.506 36.8915L181.773 38.3354L183.207 40.0559ZM184.449 41.5679L186.379 42.7035L187.172 41.3551L186.179 40.1463L184.449 41.5679ZM182.451 43.6469L183.753 45.4694L183.76 45.4638L183.768 45.4582L182.451 43.6469ZM180.912 44.4029L181.638 46.5215L181.655 46.5156L181.673 46.5094L180.912 44.4029ZM175.377 43.0799L173.647 44.5027L173.653 44.5096L173.659 44.5165L175.377 43.0799ZM175.917 33.0089L177.69 34.3773V34.3773L175.917 33.0089ZM183.45 31.6319L181.847 33.1959L181.856 33.2058L181.866 33.2156L183.45 31.6319ZM184.152 37.4369L185.774 38.9815L186.167 38.568L186.315 38.0164L184.152 37.4369ZM183.612 38.0039L183.817 40.2341L184.654 40.1571L185.234 39.5485L183.612 38.0039ZM176.862 38.6249L176.657 36.3947L174.294 36.6121L174.647 38.9581L176.862 38.6249ZM177.726 34.2779L179.426 35.7355L179.436 35.7237L179.446 35.7117L177.726 34.2779ZM176.781 36.7079L174.55 36.5052L174.299 39.2712L177.055 38.9307L176.781 36.7079ZM181.371 36.1409L181.645 38.3637L183.367 38.151L183.592 36.4306L181.371 36.1409ZM179.724 43.9156C180.638 43.9156 181.512 43.6784 182.321 43.2988L180.42 39.243C180.078 39.4035 179.853 39.4363 179.724 39.4363V43.9156ZM182.321 43.2988C182.993 42.9842 183.629 42.6194 184.155 42.1815L181.287 38.7404C181.165 38.8425 180.901 39.0176 180.42 39.243L182.321 43.2988ZM184.155 42.1815L184.641 41.7765L181.773 38.3354L181.287 38.7404L184.155 42.1815ZM181.476 41.4775L182.718 42.9895L186.179 40.1463L184.937 38.6343L181.476 41.4775ZM182.518 40.4324C182.459 40.5329 182.308 40.7437 181.992 41.0745L185.232 44.1673C185.672 43.7061 186.078 43.215 186.379 42.7035L182.518 40.4324ZM181.992 41.0745C181.696 41.3845 181.409 41.6353 181.134 41.8357L183.768 45.4582C184.285 45.0826 184.772 44.6493 185.232 44.1673L181.992 41.0745ZM181.149 41.8245C180.997 41.9331 180.69 42.1019 180.151 42.2964L181.673 46.5094C182.43 46.236 183.149 45.9007 183.753 45.4694L181.149 41.8245ZM180.185 42.2844C179.796 42.418 179.384 42.4873 178.941 42.4873V46.9666C179.865 46.9666 180.768 46.8198 181.638 46.5215L180.185 42.2844ZM178.941 42.4873C178.132 42.4873 177.578 42.2215 177.095 41.6434L173.659 44.5165C175.011 46.1344 176.834 46.9666 178.941 46.9666V42.4873ZM177.106 41.6572C176.583 41.0209 176.239 40.1261 176.239 38.7869H171.76C171.76 40.9397 172.335 42.907 173.647 44.5027L177.106 41.6572ZM176.239 38.7869C176.239 37.0596 176.73 35.6208 177.69 34.3773L174.144 31.6406C172.548 33.709 171.76 36.1222 171.76 38.7869H176.239ZM177.69 34.3773C178.649 33.1344 179.539 32.7646 180.399 32.7646V28.2853C177.839 28.2853 175.741 29.5715 174.144 31.6406L177.69 34.3773ZM180.399 32.7646C181.284 32.7646 181.656 33.0007 181.847 33.1959L185.053 30.0679C183.803 28.7872 182.142 28.2853 180.399 28.2853V32.7646ZM181.866 33.2156C182.076 33.4258 182.317 33.8268 182.317 34.7369H186.796C186.796 32.9831 186.299 31.3141 185.034 30.0483L181.866 33.2156ZM182.317 34.7369C182.317 35.2827 182.223 35.9824 181.988 36.8575L186.315 38.0164C186.621 36.8755 186.796 35.7752 186.796 34.7369H182.317ZM182.53 35.8924L181.99 36.4594L185.234 39.5485L185.774 38.9815L182.53 35.8924ZM183.407 35.7737L176.657 36.3947L177.067 40.8551L183.817 40.2341L183.407 35.7737ZM174.647 38.9581C174.837 40.2222 175.27 41.4823 176.173 42.4454C177.138 43.474 178.405 43.9156 179.724 43.9156V39.4363C179.561 39.4363 179.488 39.4108 179.472 39.4043C179.462 39.4004 179.457 39.3988 179.44 39.3809C179.39 39.327 179.192 39.0617 179.077 38.2917L174.647 38.9581ZM179.724 31.0663C178.219 31.0663 176.939 31.7235 176.005 32.8442L179.446 35.7117C179.541 35.5976 179.599 35.5681 179.61 35.5629C179.617 35.5596 179.643 35.5456 179.724 35.5456V31.0663ZM176.025 32.8204C175.127 33.8688 174.674 35.1458 174.55 36.5052L179.011 36.9107C179.068 36.29 179.245 35.947 179.426 35.7355L176.025 32.8204ZM177.055 38.9307L181.645 38.3637L181.096 33.9182L176.506 34.4852L177.055 38.9307ZM183.592 36.4306C183.652 35.9663 183.691 35.519 183.691 35.1149H179.212C179.212 35.2508 179.197 35.4875 179.15 35.8513L183.592 36.4306ZM183.691 35.1149C183.691 34.1917 183.473 33.0836 182.639 32.2112C181.788 31.3196 180.672 31.0663 179.724 31.0663V35.5456C179.823 35.5456 179.816 35.5592 179.742 35.5336C179.656 35.5037 179.524 35.435 179.4 35.3052C179.143 35.0358 179.212 34.8322 179.212 35.1149H183.691ZM186.617 31.3889L186.146 29.1993L184.05 29.6498L184.409 31.7639L186.617 31.3889ZM189.884 30.6869L192.108 30.4269L191.822 27.9797L189.413 28.4973L189.884 30.6869ZM190.208 34.6289L187.97 34.7262L188.276 41.7527L192.089 35.8434L190.208 34.6289ZM194.825 30.8219L197.059 30.9795L197.228 28.5823H194.825V30.8219ZM194.528 35.0339V37.2736H196.615L196.762 35.1915L194.528 35.0339ZM192.044 35.3309L192.693 37.4743L192.713 37.4683L192.733 37.4618L192.044 35.3309ZM190.208 36.4379L188.723 34.7614L187.968 35.4298V36.4379H190.208ZM190.208 37.4099H187.968V37.4623L187.97 37.5147L190.208 37.4099ZM190.505 43.7549L190.915 45.9566L192.833 45.5988L192.742 43.6502L190.505 43.7549ZM186.887 44.4299L184.65 44.3195L184.51 47.1516L187.297 46.6316L186.887 44.4299ZM187.211 37.8689L189.448 37.9794L189.452 37.8908L189.449 37.8021L187.211 37.8689ZM187.087 33.5786L190.354 32.8766L189.413 28.4973L186.146 29.1993L187.087 33.5786ZM187.659 30.9469C187.816 32.2853 187.919 33.5447 187.97 34.7262L192.445 34.5316C192.389 33.2292 192.276 31.8606 192.108 30.4269L187.659 30.9469ZM192.089 35.8434C192.841 34.6792 193.49 33.9347 194.015 33.5016C194.537 33.0716 194.793 33.0616 194.825 33.0616V28.5823C193.416 28.5823 192.183 29.2067 191.166 30.0457C190.152 30.8817 189.213 32.0407 188.326 33.4145L192.089 35.8434ZM192.591 30.6644L192.294 34.8764L196.762 35.1915L197.059 30.9795L192.591 30.6644ZM194.528 32.7943C193.376 32.7943 192.284 32.8993 191.354 33.2L192.733 37.4618C193.027 37.3666 193.591 37.2736 194.528 37.2736V32.7943ZM191.394 33.1875C190.402 33.4882 189.513 34.0614 188.723 34.7614L191.693 38.1145C192.162 37.6985 192.497 37.5337 192.693 37.4743L191.394 33.1875ZM187.968 36.4379V37.4099H192.447V36.4379H187.968ZM187.97 37.5147L188.267 43.8597L192.742 43.6502L192.445 37.3052L187.97 37.5147ZM190.094 41.5533L186.476 42.2283L187.297 46.6316L190.915 45.9566L190.094 41.5533ZM189.124 44.5404L189.448 37.9794L184.974 37.7585L184.65 44.3195L189.124 44.5404ZM189.449 37.8021C189.375 35.3108 189.17 33.0451 188.825 31.014L184.409 31.7639C184.712 33.5488 184.902 35.603 184.972 37.9358L189.449 37.8021Z" fill="#103D12"/>
<path d="M229.958 29.1251V21.1042L237.979 29.1251M219.75 18.9167C218.131 18.9167 216.833 20.2147 216.833 21.8334V45.1667C216.833 45.9403 217.141 46.6822 217.688 47.2291C218.235 47.7761 218.976 48.0834 219.75 48.0834H237.25C238.024 48.0834 238.765 47.7761 239.312 47.2291C239.859 46.6822 240.167 45.9403 240.167 45.1667V27.6667L231.417 18.9167H219.75Z" fill="white"/>
<defs>
<linearGradient id="paint0_linear_154_401" x1="21.9845" y1="9.50195" x2="238.58" y2="83.5413" gradientUnits="userSpaceOnUse">
<stop stop-color="#4C6439"/>
<stop offset="1" stop-color="#7DAC3F"/>
</linearGradient>
</defs>
</svg>
