<svg width="33" height="29" viewBox="0 0 33 29" fill="none" xmlns="http://www.w3.org/2000/svg">
<path d="M32.7212 3.31971C31.4942 3.98366 30.2671 4.20497 28.8356 4.42628C30.2671 3.54103 31.2897 2.21314 31.6987 0.442628C30.4716 1.32788 29.0401 1.77051 27.404 2.21314C26.177 0.885257 24.3364 0 22.4958 0C18.2012 0 14.9291 4.42628 15.9516 8.85257C10.4299 8.63125 5.52171 5.75417 2.04508 1.32789C0.204508 4.6476 1.22705 8.85257 4.09015 11.0657C3.06762 11.0657 2.04508 10.6231 1.02254 10.1805C1.02254 13.5002 3.27212 16.5986 6.33974 17.4838C5.3172 17.7051 4.29466 17.9264 3.27212 17.7051C4.09016 20.5822 6.54425 22.7954 9.61186 22.7954C7.15777 24.7872 3.47663 25.8938 0 25.4511C3.06762 27.443 6.54425 28.7708 10.2254 28.7708C22.7004 28.7708 29.6536 17.4838 29.2446 7.08205C30.6762 6.1968 31.9032 4.86891 32.7212 3.31971Z" fill="white" fill-opacity="0.5"/>
</svg>
