<svg width="37" height="33" viewBox="0 0 37 33" fill="none" xmlns="http://www.w3.org/2000/svg">
<path d="M36.943 4.31712C35.567 5.0617 34.1909 5.30989 32.5855 5.55808C34.1909 4.56532 35.3376 3.07616 35.7963 1.09062C34.4202 2.08339 32.8148 2.57978 30.9801 3.07616C29.604 1.58701 27.5399 0.594238 25.4758 0.594238C20.6595 0.594238 16.99 5.55808 18.1368 10.5219C11.9444 10.2737 6.44017 7.04724 2.54131 2.08339C0.477209 5.80628 1.62393 10.5219 4.83476 13.0039C3.68804 13.0039 2.54131 12.5075 1.39459 12.0111C1.39459 15.734 3.91738 19.2087 7.35755 20.2014C6.21083 20.4496 5.0641 20.6978 3.91738 20.4496C4.83476 23.6761 7.58689 26.158 11.0271 26.158C8.27493 28.3918 4.14672 29.6327 0.247864 29.1364C3.68804 31.3701 7.5869 32.8592 11.7151 32.8592C25.7051 32.8592 33.5028 20.2014 33.0442 8.53639C34.6496 7.54362 36.0256 6.05447 36.943 4.31712Z" fill="white"/>
</svg>
