<svg width="305" height="71" viewBox="0 0 305 71" fill="none" xmlns="http://www.w3.org/2000/svg">
<path d="M0.00148564 12.7965C-0.185141 0.228401 17.2539 0.286747 28.2269 0.868442C95.756 1.61287 238.831 3.23624 270.897 3.77426C302.963 4.31227 306.067 13.6379 303.611 18.2335L291.208 50.5146C288.332 57.8675 273.556 60.9336 266.527 61.5476L41.5232 70.4002C23.235 70.7493 12.7535 65.7938 9.79876 63.2725C4.20033 61.9924 0.934563 29.0884 0.00148564 12.7965Z" fill="#FEF2EA"/>
<path d="M15.0474 16.0467C14.8792 5.274 30.5935 5.32401 40.4813 5.82261C101.332 6.46069 230.256 7.85215 259.151 8.31331C288.046 8.77447 290.843 16.7679 288.629 20.7069L277.453 48.3764C274.862 54.6789 261.547 57.3071 255.213 57.8333L52.4625 65.4213C35.9831 65.7205 26.5382 61.473 23.8757 59.3118C18.8309 58.2146 15.8882 30.0112 15.0474 16.0467Z" fill="#BEC8FF"/>
<path d="M32.1402 70.3042L23.4052 57.1551C29.1456 61.5066 42.6523 60.545 47.3771 60.7278C94.0005 59.0269 193.637 57.6871 228.462 56.7578C271.993 55.5962 262.228 51.2888 268.65 45.5206C273.789 40.9061 285.004 26.5417 286.669 18.1113L299.252 26.2655L294.114 39.2475C288.102 53.6569 292.037 55.696 268.65 61.4179C268.65 61.4179 37.6454 71.5977 32.1402 70.3042Z" fill="#D8DEFB"/>
<path d="M15.0474 18.7005C14.8792 9.05003 30.5935 9.09483 40.4813 9.54149C101.332 10.1131 230.256 11.3596 259.151 11.7727C288.046 12.1859 290.843 19.3466 288.629 22.8754L277.453 47.6626C274.862 53.3086 261.547 55.663 255.213 56.1344L52.4626 62.9319C35.9831 63.2 26.5382 59.3949 23.8757 57.4589C18.8309 56.4759 15.8882 31.2104 15.0474 18.7005Z" fill="url(#paint0_linear_154_415)"/>
<path d="M31.2846 34.2017H18.3901V36.7921H32.0125L40.1235 31.8105L31.2846 34.2017Z" fill="#0E5210"/>
<path d="M32.0855 37.1318L20.0618 37.0995L20.2264 38.0139L32.9879 38.0375L40.1234 31.8105L32.0855 37.1318Z" fill="#FFF0C6"/>
<ellipse cx="54.333" cy="8.77092" rx="5.85129" ry="1.86808" fill="white"/>
<path d="M157.149 15.6205C158.477 14.1275 162.343 10.7919 167.18 9.39355C167.156 10.6195 165.117 13.5813 157.149 15.6205Z" fill="#0E5210"/>
<path d="M157.149 15.6205C161.866 14.3935 166.633 9.85212 167.176 9.39355C167.353 11.2517 161.261 14.7056 157.149 15.6205Z" fill="#FFF4C1"/>
<path d="M111.14 44.4565L109.817 39.1915H103.364L101.933 44.3215L98.4773 44.0515L100.853 37.4905L104.471 25.8805L109.304 25.5295L112.787 37.0855L115.028 43.8625L111.14 44.4565ZM106.874 29.0395H106.523L104.201 36.3295H109.007L106.874 29.0395ZM120.228 44.3215C119.256 44.3215 118.464 44.0065 117.852 43.3765C117.258 42.7285 116.961 41.8825 116.961 40.8385L117.123 37.7335L116.826 31.2535L120.444 30.5785L120.093 38.7865C120.093 39.5605 120.228 40.1275 120.498 40.4875C120.786 40.8475 121.236 41.0275 121.848 41.0275C122.46 41.0275 123.306 40.7215 124.386 40.1095V38.4895L124.089 31.3885L127.734 30.7135L127.41 37.4635L127.437 39.6775C127.437 40.8295 127.734 41.9905 128.328 43.1605L125.52 44.4025C124.926 43.2325 124.566 42.2965 124.44 41.5945C122.82 43.4125 121.416 44.3215 120.228 44.3215ZM137.88 41.6755C136.476 43.4395 135.261 44.3215 134.235 44.3215C132.957 44.3215 131.904 43.7995 131.076 42.7555C130.266 41.7115 129.861 40.3705 129.861 38.7325C129.861 36.4825 130.482 34.5835 131.724 33.0355C132.984 31.4875 134.523 30.7135 136.341 30.7135L137.853 30.9295V30.4165L137.529 24.0985L141.228 23.4235L140.877 37.3015V39.6775C140.877 40.7575 141.147 41.9995 141.687 43.4035L138.771 44.6185C138.249 43.5385 137.952 42.5575 137.88 41.6755ZM132.885 37.3285C132.885 38.4805 133.092 39.3805 133.506 40.0285C133.938 40.6765 134.55 41.0005 135.342 41.0005C136.152 41.0005 136.989 40.6765 137.853 40.0285V34.1965C136.773 33.9805 135.972 33.8725 135.45 33.8725C134.64 33.8725 134.01 34.1605 133.56 34.7365C133.11 35.3125 132.885 36.1765 132.885 37.3285ZM147.922 30.5785L147.598 37.3015L147.895 43.6465L144.277 44.3215L144.601 37.7605L144.304 31.2535L147.922 30.5785ZM144.115 26.6365C144.115 26.0245 144.349 25.4845 144.817 25.0165C145.285 24.5305 145.825 24.2875 146.437 24.2875C147.049 24.2875 147.517 24.4585 147.841 24.8005C148.165 25.1245 148.327 25.6195 148.327 26.2855C148.327 26.9515 148.093 27.5275 147.625 28.0135C147.175 28.4815 146.644 28.7155 146.032 28.7155C145.438 28.7155 144.97 28.5175 144.628 28.1215C144.286 27.7255 144.115 27.2305 144.115 26.6365ZM151.949 31.2535V28.3105L155.594 27.6085L155.243 31.2535H158.51L158.213 33.4675H155.135L155 39.1105C155 39.9565 155.081 40.5235 155.243 40.8115C155.405 41.0815 155.702 41.2165 156.134 41.2165C156.566 41.2165 157.142 41.1175 157.862 40.9195L158.024 42.8365C156.836 43.8265 155.792 44.3215 154.892 44.3215C153.992 44.3215 153.254 43.9975 152.678 43.3495C152.102 42.6835 151.814 41.8195 151.814 40.7575L151.976 37.7335L151.949 33.4675H150.086L150.383 31.2535H151.949Z" fill="white"/>
<path d="M111.14 44.4565L108.968 45.0023L109.465 46.9781L111.479 46.6705L111.14 44.4565ZM109.817 39.1915L111.989 38.6457L111.564 36.9519H109.817V39.1915ZM103.364 39.1915V36.9519H101.664L101.207 38.5898L103.364 39.1915ZM101.933 44.3215L101.759 46.5544L103.596 46.6979L104.091 44.9233L101.933 44.3215ZM98.4773 44.0515L96.3715 43.2889L95.3697 46.0552L98.3028 46.2844L98.4773 44.0515ZM100.853 37.4905L102.959 38.2531L102.976 38.2054L102.991 38.1569L100.853 37.4905ZM104.471 25.8805L104.309 23.6468L102.787 23.7573L102.333 25.2142L104.471 25.8805ZM109.304 25.5295L111.449 24.8832L110.931 23.1659L109.142 23.2958L109.304 25.5295ZM112.787 37.0855L110.643 37.7318L110.652 37.7604L110.661 37.7887L112.787 37.0855ZM115.028 43.8625L115.367 46.0765L117.987 45.6761L117.155 43.1594L115.028 43.8625ZM106.874 29.0395L109.024 28.4106L108.552 26.7999H106.874V29.0395ZM106.523 29.0395V26.7999H104.886L104.389 28.3598L106.523 29.0395ZM104.201 36.3295L102.067 35.6498L101.137 38.5692H104.201V36.3295ZM109.007 36.3295V38.5692H111.996L111.157 35.7006L109.007 36.3295ZM113.312 43.9107L111.989 38.6457L107.645 39.7373L108.968 45.0023L113.312 43.9107ZM109.817 36.9519H103.364V41.4312H109.817V36.9519ZM101.207 38.5898L99.776 43.7198L104.091 44.9233L105.522 39.7933L101.207 38.5898ZM102.108 42.0887L98.6517 41.8187L98.3028 46.2844L101.759 46.5544L102.108 42.0887ZM100.583 44.8141L102.959 38.2531L98.7475 36.7279L96.3715 43.2889L100.583 44.8141ZM102.991 38.1569L106.609 26.5469L102.333 25.2142L98.715 36.8242L102.991 38.1569ZM104.633 28.1143L109.466 27.7633L109.142 23.2958L104.309 23.6468L104.633 28.1143ZM107.16 26.1758L110.643 37.7318L114.932 36.4392L111.449 24.8832L107.16 26.1758ZM110.661 37.7887L112.902 44.5657L117.155 43.1594L114.914 36.3824L110.661 37.7887ZM114.69 41.6486L110.802 42.2426L111.479 46.6705L115.367 46.0765L114.69 41.6486ZM106.874 26.7999H106.523V31.2792H106.874V26.7999ZM104.389 28.3598L102.067 35.6498L106.335 37.0093L108.657 29.7192L104.389 28.3598ZM104.201 38.5692H109.007V34.0899H104.201V38.5692ZM111.157 35.7006L109.024 28.4106L104.725 29.6685L106.858 36.9585L111.157 35.7006ZM117.852 43.3765L116.201 44.8899L116.223 44.9138L116.245 44.9371L117.852 43.3765ZM116.961 40.8385L114.724 40.7218L114.721 40.7801V40.8385H116.961ZM117.123 37.7335L119.359 37.8502L119.365 37.7406L119.36 37.631L117.123 37.7335ZM116.826 31.2535L116.415 29.0519L114.499 29.4093L114.589 31.3561L116.826 31.2535ZM120.444 30.5785L122.681 30.6742L122.802 27.8603L120.033 28.3769L120.444 30.5785ZM120.093 38.7865L117.855 38.6908L117.853 38.7387V38.7865H120.093ZM120.498 40.4875L118.706 41.8313L118.727 41.8593L118.749 41.8866L120.498 40.4875ZM124.386 40.1095L125.49 42.0581L126.626 41.4146V40.1095H124.386ZM124.386 38.4895H126.626V38.4427L126.624 38.3959L124.386 38.4895ZM124.089 31.3885L123.681 29.1863L121.77 29.5402L121.851 31.4821L124.089 31.3885ZM127.734 30.7135L129.971 30.8209L130.107 27.9964L127.326 28.5113L127.734 30.7135ZM127.41 37.4635L125.173 37.3562L125.17 37.4235L125.17 37.4908L127.41 37.4635ZM127.437 39.6775H129.677V39.6639L129.676 39.6502L127.437 39.6775ZM128.328 43.1605L129.234 45.2088L131.394 44.2531L130.325 42.1467L128.328 43.1605ZM125.52 44.4025L123.523 45.4164L124.484 47.3096L126.426 46.4508L125.52 44.4025ZM124.44 41.5945L126.644 41.1989L125.831 36.6671L122.768 40.1045L124.44 41.5945ZM120.228 42.0819C119.79 42.0819 119.601 41.9634 119.458 41.816L116.245 44.9371C117.326 46.0497 118.722 46.5612 120.228 46.5612V42.0819ZM119.503 41.8632C119.357 41.7036 119.201 41.4336 119.201 40.8385H114.721C114.721 42.3314 115.159 43.7535 116.201 44.8899L119.503 41.8632ZM119.197 40.9552L119.359 37.8502L114.886 37.6168L114.724 40.7218L119.197 40.9552ZM119.36 37.631L119.063 31.151L114.589 31.3561L114.886 37.8361L119.36 37.631ZM117.237 33.4552L120.855 32.7802L120.033 28.3769L116.415 29.0519L117.237 33.4552ZM118.206 30.4828L117.855 38.6908L122.33 38.8822L122.681 30.6742L118.206 30.4828ZM117.853 38.7865C117.853 39.7319 118.001 40.8915 118.706 41.8313L122.29 39.1438C122.385 39.2703 122.389 39.3428 122.373 39.2735C122.357 39.205 122.333 39.0521 122.333 38.7865H117.853ZM118.749 41.8866C119.592 42.9402 120.795 43.2672 121.848 43.2672V38.7879C121.755 38.7879 121.784 38.7735 121.883 38.8131C121.998 38.8592 122.136 38.9505 122.247 39.0884L118.749 41.8866ZM121.848 43.2672C123.076 43.2672 124.353 42.7021 125.49 42.0581L123.282 38.161C122.813 38.4265 122.449 38.5944 122.18 38.6919C121.897 38.7942 121.803 38.7879 121.848 38.7879V43.2672ZM126.626 40.1095V38.4895H122.146V40.1095H126.626ZM126.624 38.3959L126.327 31.2949L121.851 31.4821L122.148 38.5831L126.624 38.3959ZM124.497 33.5907L128.142 32.9157L127.326 28.5113L123.681 29.1863L124.497 33.5907ZM125.497 30.6062L125.173 37.3562L129.647 37.5709L129.971 30.8209L125.497 30.6062ZM125.17 37.4908L125.197 39.7048L129.676 39.6502L129.649 37.4362L125.17 37.4908ZM125.197 39.6775C125.197 41.2281 125.6 42.7342 126.331 44.1744L130.325 42.1467C129.868 41.2469 129.677 40.431 129.677 39.6775H125.197ZM127.422 41.1123L124.614 42.3543L126.426 46.4508L129.234 45.2088L127.422 41.1123ZM127.517 43.3887C126.954 42.2792 126.712 41.5757 126.644 41.1989L122.235 41.9902C122.42 43.0173 122.898 44.1858 123.523 45.4164L127.517 43.3887ZM122.768 40.1045C122.036 40.9253 121.431 41.4515 120.955 41.7598C120.474 42.0713 120.247 42.0819 120.228 42.0819V46.5612C121.396 46.5612 122.466 46.1173 123.389 45.5198C124.317 44.919 125.223 44.0817 126.112 43.0845L122.768 40.1045ZM137.88 41.6755L140.112 41.4933L139.651 35.8531L136.127 40.2808L137.88 41.6755ZM131.076 42.7555L129.306 44.1284L129.313 44.1379L129.321 44.1472L131.076 42.7555ZM131.724 33.0355L129.987 31.6217L129.982 31.6278L129.977 31.634L131.724 33.0355ZM136.341 30.7135L136.657 28.4964L136.5 28.4739H136.341V30.7135ZM137.853 30.9295L137.536 33.1467L140.092 33.5118V30.9295H137.853ZM137.853 30.4165H140.092V30.3591L140.089 30.3018L137.853 30.4165ZM137.529 24.0985L137.126 21.8953L135.191 22.2485L135.292 24.2132L137.529 24.0985ZM141.228 23.4235L143.466 23.4802L143.536 20.7256L140.825 21.2203L141.228 23.4235ZM140.877 37.3015L138.638 37.2449L138.637 37.2732V37.3015H140.877ZM141.687 43.4035L142.548 45.4709L144.559 44.633L143.777 42.5996L141.687 43.4035ZM138.771 44.6185L136.754 45.5932L137.676 47.5008L139.632 46.6859L138.771 44.6185ZM133.506 40.0285L131.618 41.2343L131.63 41.2527L131.642 41.2709L133.506 40.0285ZM137.853 40.0285L139.196 41.8202L140.092 41.1483V40.0285H137.853ZM137.853 34.1965H140.092V32.3605L138.292 32.0004L137.853 34.1965ZM133.56 34.7365L131.795 33.3577L133.56 34.7365ZM136.127 40.2808C135.495 41.0753 134.983 41.5689 134.6 41.8476C134.205 42.1339 134.101 42.0819 134.235 42.0819V46.5612C135.394 46.5612 136.41 46.0681 137.231 45.4725C138.062 44.8691 138.86 44.0398 139.632 43.0703L136.127 40.2808ZM134.235 42.0819C133.673 42.0819 133.254 41.8987 132.83 41.3638L129.321 44.1472C130.553 45.7004 132.24 46.5612 134.235 46.5612V42.0819ZM132.845 41.3826C132.407 40.8178 132.1 39.9952 132.1 38.7325H127.621C127.621 40.7459 128.124 42.6052 129.306 44.1284L132.845 41.3826ZM132.1 38.7325C132.1 36.9203 132.59 35.5349 133.47 34.4371L129.977 31.634C128.373 33.6322 127.621 36.0448 127.621 38.7325H132.1ZM133.461 34.4493C134.343 33.3657 135.268 32.9532 136.341 32.9532V28.4739C133.777 28.4739 131.625 29.6094 129.987 31.6217L133.461 34.4493ZM136.024 32.9307L137.536 33.1467L138.169 28.7124L136.657 28.4964L136.024 32.9307ZM140.092 30.9295V30.4165H135.613V30.9295H140.092ZM140.089 30.3018L139.765 23.9838L135.292 24.2132L135.616 30.5312L140.089 30.3018ZM137.931 26.3018L141.63 25.6268L140.825 21.2203L137.126 21.8953L137.931 26.3018ZM138.989 23.3669L138.638 37.2449L143.115 37.3582L143.466 23.4802L138.989 23.3669ZM138.637 37.3015V39.6775H143.116V37.3015H138.637ZM138.637 39.6775C138.637 41.1174 138.993 42.6404 139.596 44.2075L143.777 42.5996C143.3 41.3587 143.116 40.3977 143.116 39.6775H138.637ZM140.825 41.3362L137.909 42.5512L139.632 46.6859L142.548 45.4709L140.825 41.3362ZM140.787 43.6439C140.345 42.7297 140.155 42.0214 140.112 41.4933L135.647 41.8578C135.748 43.0937 136.152 44.3473 136.754 45.5932L140.787 43.6439ZM130.645 37.3285C130.645 38.7089 130.886 40.0889 131.618 41.2343L135.393 38.8227C135.297 38.6721 135.124 38.2522 135.124 37.3285H130.645ZM131.642 41.2709C132.498 42.5545 133.816 43.2402 135.342 43.2402V38.7609C135.296 38.7609 135.28 38.7563 135.285 38.7575C135.287 38.7581 135.294 38.7597 135.303 38.7633C135.313 38.7669 135.324 38.7718 135.336 38.7782C135.349 38.7846 135.36 38.7915 135.369 38.7984C135.379 38.8053 135.386 38.811 135.389 38.8146C135.398 38.8221 135.389 38.8164 135.369 38.7862L131.642 41.2709ZM135.342 43.2402C136.775 43.2402 138.073 42.6627 139.196 41.8202L136.509 38.2368C135.904 38.6903 135.528 38.7609 135.342 38.7609V43.2402ZM140.092 40.0285V34.1965H135.613V40.0285H140.092ZM138.292 32.0004C137.19 31.78 136.206 31.6329 135.45 31.6329V36.1122C135.737 36.1122 136.355 36.1811 137.413 36.3927L138.292 32.0004ZM135.45 31.6329C134.035 31.6329 132.719 32.1746 131.795 33.3577L135.324 36.1153C135.336 36.1007 135.338 36.1007 135.33 36.1074C135.321 36.1144 135.31 36.1211 135.301 36.1254C135.292 36.1295 135.294 36.1268 135.315 36.1227C135.336 36.1184 135.38 36.1122 135.45 36.1122V31.6329ZM131.795 33.3577C130.904 34.4972 130.645 35.9464 130.645 37.3285H135.124C135.124 36.4067 135.315 36.1278 135.324 36.1153L131.795 33.3577ZM147.922 30.5785L150.159 30.6863L150.296 27.8575L147.512 28.3769L147.922 30.5785ZM147.598 37.3015L145.361 37.1937L145.356 37.3L145.361 37.4063L147.598 37.3015ZM147.895 43.6465L148.306 45.8482L150.224 45.4904L150.132 43.5418L147.895 43.6465ZM144.277 44.3215L142.04 44.2111L141.901 47.0432L144.688 46.5232L144.277 44.3215ZM144.601 37.7605L146.838 37.871L146.843 37.7647L146.839 37.6584L144.601 37.7605ZM144.304 31.2535L143.894 29.0519L141.978 29.4092L142.067 31.3556L144.304 31.2535ZM144.817 25.0165L146.401 26.6002L146.416 26.5853L146.431 26.57L144.817 25.0165ZM147.841 24.8005L146.215 26.3408L146.236 26.3628L146.258 26.3842L147.841 24.8005ZM147.625 28.0135L146.012 26.46L146.011 26.4612L147.625 28.0135ZM144.628 28.1215L142.933 29.5854L144.628 28.1215ZM145.685 30.4707L145.361 37.1937L149.835 37.4093L150.159 30.6863L145.685 30.4707ZM145.361 37.4063L145.658 43.7513L150.132 43.5418L149.835 37.1968L145.361 37.4063ZM147.485 41.4449L143.867 42.1199L144.688 46.5232L148.306 45.8482L147.485 41.4449ZM146.514 44.432L146.838 37.871L142.364 37.6501L142.04 44.2111L146.514 44.432ZM146.839 37.6584L146.542 31.1514L142.067 31.3556L142.364 37.8626L146.839 37.6584ZM144.715 33.4552L148.333 32.7802L147.512 28.3769L143.894 29.0519L144.715 33.4552ZM146.355 26.6365C146.355 26.6271 146.356 26.6282 146.354 26.6369C146.352 26.6457 146.349 26.6553 146.346 26.663C146.343 26.6706 146.342 26.67 146.348 26.661C146.355 26.6515 146.37 26.6308 146.401 26.6002L143.234 23.4329C142.383 24.2831 141.876 25.3792 141.876 26.6365H146.355ZM146.431 26.57C146.463 26.5364 146.485 26.5193 146.494 26.5124C146.503 26.5058 146.503 26.5075 146.492 26.5121C146.482 26.5169 146.468 26.5215 146.454 26.5245C146.44 26.5274 146.433 26.5272 146.437 26.5272V22.0479C145.151 22.0479 144.046 22.5882 143.204 23.463L146.431 26.57ZM146.437 26.5272C146.539 26.5272 146.54 26.5418 146.479 26.5194C146.447 26.5078 146.403 26.4879 146.354 26.4558C146.304 26.4236 146.257 26.3845 146.215 26.3408L149.467 23.2602C148.603 22.3485 147.471 22.0479 146.437 22.0479V26.5272ZM146.258 26.3842C146.201 26.328 146.159 26.2705 146.128 26.2185C146.098 26.1675 146.083 26.129 146.077 26.1114C146.067 26.0814 146.088 26.1266 146.088 26.2855H150.567C150.567 25.2951 150.327 24.1193 149.425 23.2169L146.258 26.3842ZM146.088 26.2855C146.088 26.3503 146.078 26.3724 146.077 26.3741C146.076 26.3763 146.065 26.4047 146.012 26.46L149.239 29.567C150.103 28.6698 150.567 27.5393 150.567 26.2855H146.088ZM146.011 26.4612C145.986 26.4867 145.972 26.4973 145.969 26.4993C145.968 26.5004 145.969 26.4997 145.972 26.4978C145.975 26.496 145.98 26.4934 145.986 26.4906C145.993 26.4878 146 26.4851 146.007 26.4827C146.015 26.4804 146.021 26.4787 146.027 26.4775C146.039 26.4751 146.042 26.4759 146.032 26.4759V30.9552C147.294 30.9552 148.396 30.4431 149.24 29.5658L146.011 26.4612ZM146.032 26.4759C145.985 26.4759 146.024 26.4686 146.108 26.5044C146.2 26.5433 146.277 26.6036 146.323 26.6577L142.933 29.5854C143.761 30.5437 144.886 30.9552 146.032 30.9552V26.4759ZM146.323 26.6577C146.329 26.6641 146.337 26.6747 146.345 26.6885C146.353 26.7023 146.358 26.7142 146.36 26.722C146.363 26.7295 146.362 26.7284 146.36 26.716C146.358 26.7033 146.355 26.6776 146.355 26.6365H141.876C141.876 27.6906 142.192 28.7276 142.933 29.5854L146.323 26.6577ZM151.949 31.2535V33.4932H154.189V31.2535H151.949ZM151.949 28.3105L151.526 26.1113L149.709 26.4611V28.3105H151.949ZM155.594 27.6085L157.823 27.8232L158.11 24.8431L155.171 25.4093L155.594 27.6085ZM155.243 31.2535L153.014 31.0389L152.777 33.4932H155.243V31.2535ZM158.51 31.2535L160.73 31.5513L161.07 29.0139H158.51V31.2535ZM158.213 33.4675V35.7072H160.172L160.433 33.7653L158.213 33.4675ZM155.135 33.4675V31.2279H152.948L152.896 33.414L155.135 33.4675ZM155 39.1105L152.761 39.057L152.76 39.0837V39.1105H155ZM155.243 40.8115L153.291 41.9095L153.306 41.9369L153.323 41.9638L155.243 40.8115ZM157.862 40.9195L160.094 40.7309L159.867 38.0455L157.268 38.7601L157.862 40.9195ZM158.024 42.8365L159.458 44.5571L160.354 43.8103L160.256 42.6479L158.024 42.8365ZM152.678 43.3495L150.984 44.8146L150.994 44.8261L151.004 44.8375L152.678 43.3495ZM151.814 40.7575L149.578 40.6377L149.574 40.6976V40.7575H151.814ZM151.976 37.7335L154.213 37.8533L154.216 37.7864L154.216 37.7194L151.976 37.7335ZM151.949 33.4675L154.189 33.4534L154.175 31.2279H151.949V33.4675ZM150.086 33.4675L147.866 33.1698L147.526 35.7072H150.086V33.4675ZM150.383 31.2535V29.0139H148.424L148.163 30.9558L150.383 31.2535ZM154.189 31.2535V28.3105H149.709V31.2535H154.189ZM152.373 30.5097L156.018 29.8077L155.171 25.4093L151.526 26.1113L152.373 30.5097ZM153.365 27.3939L153.014 31.0389L157.472 31.4682L157.823 27.8232L153.365 27.3939ZM155.243 33.4932H158.51V29.0139H155.243V33.4932ZM156.29 30.9558L155.993 33.1698L160.433 33.7653L160.73 31.5513L156.29 30.9558ZM158.213 31.2279H155.135V35.7072H158.213V31.2279ZM152.896 33.414L152.761 39.057L157.239 39.1641L157.374 33.5211L152.896 33.414ZM152.76 39.1105C152.76 39.5946 152.783 40.0619 152.844 40.487C152.899 40.8738 153.009 41.4086 153.291 41.9095L157.195 39.7135C157.265 39.8372 157.289 39.9226 157.291 39.9309C157.295 39.9441 157.288 39.9223 157.278 39.8536C157.258 39.7116 157.24 39.4725 157.24 39.1105H152.76ZM153.323 41.9638C154.033 43.1483 155.243 43.4562 156.134 43.4562V38.9769C156.139 38.9769 156.293 38.9761 156.514 39.0764C156.763 39.1896 157.002 39.3901 157.164 39.6593L153.323 41.9638ZM156.134 43.4562C156.861 43.4562 157.661 43.2976 158.456 43.079L157.268 38.7601C156.623 38.9375 156.271 38.9769 156.134 38.9769V43.4562ZM155.63 41.1081L155.792 43.0251L160.256 42.6479L160.094 40.7309L155.63 41.1081ZM156.59 41.116C155.542 41.9897 155.006 42.0819 154.892 42.0819V46.5612C156.579 46.5612 158.13 45.6633 159.458 44.5571L156.59 41.116ZM154.892 42.0819C154.604 42.0819 154.485 42.0111 154.352 41.8616L151.004 44.8375C152.023 45.9839 153.38 46.5612 154.892 46.5612V42.0819ZM154.372 41.8845C154.217 41.7053 154.054 41.3975 154.054 40.7575H149.574C149.574 42.2416 149.987 43.6617 150.984 44.8146L154.372 41.8845ZM154.05 40.8773L154.213 37.8533L149.74 37.6137L149.578 40.6377L154.05 40.8773ZM154.216 37.7194L154.189 33.4534L149.709 33.4817L149.736 37.7477L154.216 37.7194ZM151.949 31.2279H150.086V35.7072H151.949V31.2279ZM152.306 33.7653L152.603 31.5513L148.163 30.9558L147.866 33.1698L152.306 33.7653ZM150.383 33.4932H151.949V29.0139H150.383V33.4932Z" fill="#103D12"/>
<path d="M193.5 48.0834C190.122 47.2327 187.333 45.2941 185.134 42.2676C182.933 39.242 181.833 35.882 181.833 32.1876V23.2917L193.5 18.9167L205.167 23.2917V32.1876C205.167 35.882 204.067 39.242 201.868 42.2676C199.668 45.2941 196.879 47.2327 193.5 48.0834ZM193.5 45.0209C195.858 44.2917 197.826 42.8519 199.406 40.7013C200.986 38.5498 201.91 36.1494 202.177 33.5001H193.5V22.0157L184.75 25.297V32.8438C184.75 33.014 184.774 33.2327 184.823 33.5001H193.5V45.0209Z" fill="white"/>
<defs>
<linearGradient id="paint0_linear_154_415" x1="21.9845" y1="9.39355" x2="238.58" y2="83.4329" gradientUnits="userSpaceOnUse">
<stop stop-color="#4C6439"/>
<stop offset="1" stop-color="#7DAC3F"/>
</linearGradient>
</defs>
</svg>
