<svg width="112" height="61" viewBox="0 0 112 61" fill="none" xmlns="http://www.w3.org/2000/svg">
<line x1="4.02492" y1="18.1584" x2="54.6584" y2="43.4751" stroke="white" stroke-width="6" stroke-linecap="round"/>
<line x1="3" y1="-3" x2="59.6099" y2="-3" transform="matrix(-0.894427 0.447214 0.447214 0.894427 112 19.5)" stroke="white" stroke-width="6" stroke-linecap="round"/>
<line x1="4.02492" y1="31.6584" x2="54.6584" y2="56.9751" stroke="white" stroke-width="6" stroke-linecap="round"/>
<line x1="3" y1="-3" x2="59.6099" y2="-3" transform="matrix(-0.894427 0.447214 0.447214 0.894427 112 33)" stroke="white" stroke-width="6" stroke-linecap="round"/>
<path d="M21.365 11.015C22.215 11.865 23.065 12.29 23.915 12.29C24.355 12.29 24.705 12.19 24.965 11.99C25.235 11.78 25.37 11.515 25.37 11.195C25.37 10.865 25.21 10.59 24.89 10.37C24.57 10.14 24.18 9.94 23.72 9.77C23.27 9.6 22.82 9.41 22.37 9.2C21.92 8.98 21.535 8.67 21.215 8.27C20.895 7.87 20.735 7.385 20.735 6.815C20.735 5.915 21.11 5.14 21.86 4.49C22.61 3.83 23.5 3.5 24.53 3.5C25 3.5 25.455 3.55 25.895 3.65C26.335 3.75 26.76 3.895 27.17 4.085L26.15 6.275C25.87 6.055 25.485 5.855 24.995 5.675C24.515 5.485 24.09 5.39 23.72 5.39C23.36 5.39 23.065 5.48 22.835 5.66C22.615 5.83 22.505 6.06 22.505 6.35C22.505 6.64 22.665 6.9 22.985 7.13C23.305 7.35 23.69 7.545 24.14 7.715C24.6 7.885 25.055 8.075 25.505 8.285C25.965 8.485 26.355 8.785 26.675 9.185C26.995 9.585 27.155 10.07 27.155 10.64C27.155 11.58 26.78 12.405 26.03 13.115C25.28 13.815 24.405 14.165 23.405 14.165C22.655 14.165 21.99 13.985 21.41 13.625C20.9 13.315 20.54 13.04 20.33 12.8L20.195 12.635L21.365 11.015ZM30.9939 8.225C30.5539 8.225 30.2139 8.385 29.9739 8.705C29.7339 9.015 29.6139 9.495 29.6139 10.145C29.6139 10.795 29.7339 11.32 29.9739 11.72C30.2239 12.11 30.5839 12.305 31.0539 12.305C31.2939 12.305 31.5289 12.23 31.7589 12.08C31.9889 11.93 32.1639 11.78 32.2839 11.63L32.4489 11.39L33.1989 12.17C33.1689 12.22 33.1289 12.29 33.0789 12.38C33.0389 12.47 32.9289 12.63 32.7489 12.86C32.5789 13.09 32.3939 13.295 32.1939 13.475C32.0039 13.645 31.7539 13.805 31.4439 13.955C31.1339 14.095 30.8089 14.165 30.4689 14.165C29.7189 14.165 29.1089 13.86 28.6389 13.25C28.1689 12.64 27.9339 11.845 27.9339 10.865C27.9339 9.645 28.2889 8.575 28.9989 7.655C29.7089 6.735 30.5389 6.275 31.4889 6.275C31.7789 6.275 32.0689 6.32 32.3589 6.41C32.6489 6.49 32.9439 6.62 33.2439 6.8L32.1939 8.645C31.8339 8.365 31.4339 8.225 30.9939 8.225ZM34.0204 6.755L35.8354 6.365C35.9254 7.135 35.9854 7.865 36.0154 8.555C36.9254 7.145 37.7804 6.44 38.5804 6.44L38.4154 8.78C37.8354 8.78 37.3754 8.835 37.0354 8.945C36.7054 9.045 36.3654 9.25 36.0154 9.56V10.1L36.1804 13.625L34.1704 14L34.3504 10.355C34.3104 9.015 34.2004 7.815 34.0204 6.755ZM39.0821 10.865C39.0821 9.585 39.4271 8.5 40.1171 7.61C40.8071 6.72 41.6121 6.275 42.5321 6.275C43.4621 6.275 44.1821 6.575 44.6921 7.175C45.2121 7.775 45.4721 8.57 45.4721 9.56C45.4721 10.88 45.1371 11.98 44.4671 12.86C43.8071 13.73 42.9721 14.165 41.9621 14.165C41.1321 14.165 40.4421 13.855 39.8921 13.235C39.3521 12.605 39.0821 11.815 39.0821 10.865ZM43.7921 10.34C43.7921 8.89 43.2971 8.165 42.3071 8.165C41.2771 8.165 40.7621 8.845 40.7621 10.205C40.7621 10.915 40.9071 11.47 41.1971 11.87C41.4871 12.27 41.8671 12.47 42.3371 12.47C42.8171 12.47 43.1771 12.29 43.4171 11.93C43.6671 11.56 43.7921 11.03 43.7921 10.34ZM48.8234 2.39L48.6284 10.1L48.7934 13.625L46.7684 14L46.9484 10.355L46.7684 2.765L48.8234 2.39ZM52.6174 2.39L52.4224 10.1L52.5874 13.625L50.5624 14L50.7424 10.355L50.5624 2.765L52.6174 2.39ZM60.0758 14.165C59.3658 14.165 58.3408 14.11 57.0008 14L57.1808 10.355L57.0008 3.65H61.0058C62.3558 3.65 63.4108 4.055 64.1708 4.865C64.9308 5.675 65.3108 6.8 65.3108 8.24C65.3108 10.06 64.8408 11.505 63.9008 12.575C62.9608 13.635 61.6858 14.165 60.0758 14.165ZM60.4658 5.27C59.8058 5.27 59.3408 5.275 59.0708 5.285L58.9208 10.1L59.0258 12.53C59.8658 12.59 60.4308 12.62 60.7208 12.62C61.5108 12.62 62.1308 12.3 62.5808 11.66C63.0408 11.02 63.2708 10.09 63.2708 8.87C63.2708 7.65 63.0458 6.745 62.5958 6.155C62.1558 5.565 61.4458 5.27 60.4658 5.27ZM66.1817 10.865C66.1817 9.585 66.5267 8.5 67.2167 7.61C67.9067 6.72 68.7117 6.275 69.6317 6.275C70.5617 6.275 71.2817 6.575 71.7917 7.175C72.3117 7.775 72.5717 8.57 72.5717 9.56C72.5717 10.88 72.2367 11.98 71.5667 12.86C70.9067 13.73 70.0717 14.165 69.0617 14.165C68.2317 14.165 67.5417 13.855 66.9917 13.235C66.4517 12.605 66.1817 11.815 66.1817 10.865ZM70.8917 10.34C70.8917 8.89 70.3967 8.165 69.4067 8.165C68.3767 8.165 67.8617 8.845 67.8617 10.205C67.8617 10.915 68.0067 11.47 68.2967 11.87C68.5867 12.27 68.9667 12.47 69.4367 12.47C69.9167 12.47 70.2767 12.29 70.5167 11.93C70.7667 11.56 70.8917 11.03 70.8917 10.34ZM80.558 12.125H80.753L81.233 10.07L82.013 6.365L83.843 6.59L82.748 10.31L81.833 13.82L79.373 14.045L78.548 10.4L78.473 10.16L77.468 13.82L75.083 14.045L74.213 10.4L73.178 6.755L75.143 6.38L75.758 9.68L76.298 12.125H76.493L77.783 7.85L77.468 6.755L79.403 6.38L80.033 9.68L80.558 12.125ZM89.1897 10.205C89.1897 9.515 89.1297 9.055 89.0097 8.825C88.8897 8.595 88.6097 8.48 88.1697 8.48C87.7297 8.48 87.2297 8.655 86.6697 9.005V10.1L86.8347 13.625L84.8247 14L85.0047 10.355C84.9647 9.015 84.8547 7.815 84.6747 6.755L86.4897 6.365C86.5597 6.945 86.6097 7.51 86.6397 8.06C86.7897 7.86 86.9597 7.665 87.1497 7.475C87.3397 7.275 87.6397 7.055 88.0497 6.815C88.4597 6.565 88.8897 6.44 89.3397 6.44C89.7997 6.44 90.1847 6.62 90.4947 6.98C90.8047 7.33 90.9597 7.81 90.9597 8.42L90.8697 10.1L91.0347 13.7L89.0097 14.075L89.1897 10.205Z" fill="white"/>
</svg>
