<svg width="36" height="36" viewBox="0 0 36 36" fill="none" xmlns="http://www.w3.org/2000/svg">
<path d="M13.9411 14.8437C12.8019 14.8437 11.9026 15.7283 11.9026 16.8075C11.9026 17.8867 12.8219 18.7713 13.9411 18.7713C15.0802 18.7713 15.9795 17.8867 15.9795 16.8075C15.9995 15.7283 15.0802 14.8437 13.9411 14.8437ZM21.2354 14.8437C20.0963 14.8437 19.197 15.7283 19.197 16.8075C19.197 17.8867 20.1163 18.7713 21.2354 18.7713C22.3745 18.7713 23.2738 17.8867 23.2738 16.8075C23.2738 15.7283 22.3745 14.8437 21.2354 14.8437Z" fill="white"/>
<path d="M30.9479 0H4.16861C1.91035 0 0.0717773 1.62767 0.0717773 3.64457V27.5643C0.0717773 29.5812 1.91035 31.2089 4.16861 31.2089H26.8311L25.7719 27.9358L28.3299 30.0412L30.748 32.0227L35.0447 35.3842V3.64457C35.0447 1.62767 33.2061 0 30.9479 0ZM23.2339 23.1059C23.2339 23.1059 22.5144 22.3451 21.9149 21.6728C24.5329 21.0182 25.5321 19.5675 25.5321 19.5675C24.7127 20.0452 23.9333 20.3813 23.2339 20.6113C22.2346 20.9828 21.2754 21.2305 20.3361 21.3721C18.4176 21.6905 16.6589 21.6021 15.1601 21.3544C14.021 21.1598 13.0417 20.8767 12.2224 20.5936C11.7627 20.4344 11.2631 20.2398 10.7635 19.9921C10.7036 19.9567 10.6436 19.939 10.5836 19.9036C10.5437 19.8859 10.5237 19.8682 10.5037 19.8505C10.144 19.6736 9.94414 19.5498 9.94414 19.5498C9.94414 19.5498 10.9034 20.9651 13.4414 21.6374C12.8419 22.3097 12.1025 23.1059 12.1025 23.1059C7.68589 22.982 6.00718 20.4167 6.00718 20.4167C6.00718 14.7198 8.88496 10.1022 8.88496 10.1022C11.7627 8.19144 14.5006 8.24452 14.5006 8.24452L14.7005 8.45683C11.1032 9.37681 9.44453 10.7745 9.44453 10.7745C9.44453 10.7745 9.88419 10.5622 10.6236 10.2614C12.762 9.42989 14.4606 9.19989 15.1601 9.14682C15.28 9.12912 15.3799 9.11143 15.4998 9.11143C16.7189 8.9699 18.0978 8.93451 19.5367 9.07605C21.4352 9.27066 23.4737 9.76604 25.5521 10.7745C25.5521 10.7745 23.9733 9.44758 20.5759 8.52759L20.8557 8.24452C20.8557 8.24452 23.5936 8.19144 26.4714 10.1022C26.4714 10.1022 29.3491 14.7198 29.3491 20.4167C29.3491 20.4167 27.6504 22.982 23.2339 23.1059Z" fill="white"/>
</svg>
