<svg width="37" height="36" viewBox="0 0 37 36" fill="none" xmlns="http://www.w3.org/2000/svg">
<path fill-rule="evenodd" clip-rule="evenodd" d="M18.3718 0C8.30866 0 0.146362 8.11948 0.146362 18.1298C0.146362 26.1381 5.40154 32.9228 12.5575 35.3698C13.452 35.481 13.7875 34.9249 13.7875 34.48C13.7875 34.0351 13.7875 32.9228 13.7875 31.3657C8.75591 32.4779 7.63779 28.9187 7.63779 28.9187C6.8551 26.8054 5.62516 26.2493 5.62516 26.2493C3.94798 25.137 5.73698 25.137 5.73698 25.137C7.52597 25.2483 8.53228 27.0279 8.53228 27.0279C10.2095 29.8085 12.7812 29.0299 13.7875 28.585C13.8993 27.3616 14.4583 26.583 14.9056 26.1381C10.8803 25.6932 6.63148 24.136 6.63148 17.1288C6.63148 15.1267 7.30235 13.5696 8.53228 12.2348C8.42047 11.9012 7.7496 10.0103 8.75591 7.56336C8.75591 7.56336 10.3213 7.11845 13.7875 9.4542C15.241 9.00929 16.8064 8.89807 18.3718 8.89807C19.9371 8.89807 21.5025 9.12052 22.9561 9.4542C26.4223 7.11845 27.9876 7.56336 27.9876 7.56336C28.9939 10.0103 28.3231 11.9012 28.2112 12.3461C29.3294 13.5696 30.1121 15.2379 30.1121 17.24C30.1121 24.2472 25.8632 25.6932 21.8379 26.1381C22.5088 26.6942 23.0679 27.8065 23.0679 29.4748C23.0679 31.9218 23.0679 33.8127 23.0679 34.48C23.0679 34.9249 23.4033 35.481 24.2978 35.3698C31.5656 32.9228 36.709 26.1381 36.709 18.1298C36.5972 8.11948 28.4349 0 18.3718 0Z" fill="white"/>
</svg>
