<svg width="32" height="31" viewBox="0 0 32 31" fill="none" xmlns="http://www.w3.org/2000/svg">
<path d="M2.19866 13.3012C10.784 8.94091 16.5089 6.06634 19.3733 4.6775C27.552 0.712048 29.2514 0.0232089 30.3591 0.000220516C30.6027 -0.00453967 31.1474 0.0658413 31.5003 0.399596C31.7982 0.681411 31.8802 1.0621 31.9194 1.3293C31.9586 1.59649 32.0075 2.20516 31.9687 2.68076C31.5255 8.10915 29.6077 21.2824 28.6321 27.3623C28.2193 29.935 27.4064 30.7975 26.6194 30.882C24.9092 31.0654 23.6106 29.5644 21.9541 28.2987C19.3621 26.3181 17.8978 25.0851 15.3818 23.1524C12.4742 20.9188 14.3591 19.6912 16.0161 17.6849C16.4498 17.1599 23.9851 9.17022 24.1309 8.44544C24.1492 8.35479 24.1661 8.0169 23.9939 7.83849C23.8217 7.66007 23.5676 7.72109 23.3842 7.76961C23.1242 7.83839 18.9834 11.0288 10.9619 17.3408C9.78658 18.2816 8.72199 18.74 7.76816 18.7159C6.71664 18.6895 4.69393 18.0229 3.19025 17.4531C1.34594 16.7542 -0.119893 16.3848 0.00774815 15.1979C0.0742313 14.5797 0.804534 13.9475 2.19866 13.3012Z" fill="white" fill-opacity="0.5"/>
</svg>
